<svg xmlns="http://www.w3.org/2000/svg" xmlns:xlink="http://www.w3.org/1999/xlink" width="400" height="330.137" viewBox="0 0 400 330.137">
  <defs>
    <filter id="Elipse_4966" x="108" y="42" width="198" height="198" filterUnits="userSpaceOnUse">
      <feOffset dy="3" input="SourceAlpha"/>
      <feGaussianBlur stdDeviation="3" result="blur"/>
      <feFlood flood-opacity="0.161"/>
      <feComposite operator="in" in2="blur"/>
      <feComposite in="SourceGraphic"/>
    </filter>
  </defs>
  <g id="Grupo_179255" data-name="Grupo 179255" transform="translate(-180 -837)">
    <rect id="Background" width="400" height="330.137" rx="20" transform="translate(180 837)" fill="#bfe0fa"/>
    <g transform="matrix(1, 0, 0, 1, 180, 837)" filter="url(#Elipse_4966)">
      <circle id="Elipse_4966-2" data-name="Elipse 4966" cx="90" cy="90" r="90" transform="translate(117 48)" fill="#fff"/>
    </g>
    <g id="empleados" transform="translate(325.999 889.937)">
      <path id="Trazado_266147" data-name="Trazado 266147" d="M274.616,273.736l-10.311-4.056h-36.6L217.4,273.736a9.981,9.981,0,0,0-6.319,9.688l1.38,34.448h67.1l1.38-34.448A9.982,9.982,0,0,0,274.616,273.736Z" transform="translate(-160.775 -180.998)" fill="#dbd9dc"/>
      <rect id="Rectángulo_46215" data-name="Rectángulo 46215" width="23.292" height="19.963" transform="translate(73.585 75.321)" fill="#b48764"/>
      <path id="Trazado_266148" data-name="Trazado 266148" d="M293.875,39.114A21.519,21.519,0,0,0,280.844,44.1s-6.932,0-6.932,8.318a62.149,62.149,0,0,0,1.664,13.257h38.263C317.166,47.38,309.264,38.282,293.875,39.114Z" transform="translate(-208.645 -5.331)" fill="#b5bbc9"/>
      <path id="Trazado_266149" data-name="Trazado 266149" d="M283.894,74.936c-6.111-7.641-3.05-14.709-3.05-14.709s-6.932,0-6.932,8.318A62.15,62.15,0,0,0,275.576,81.8h8.318Z" transform="translate(-208.645 -21.453)" fill="#9ea4b0"/>
      <path id="Trazado_266150" data-name="Trazado 266150" d="M306.857,120.483h-1.664l-3.263-3.943c-14.972,3.119-22.818-3.347-22.818-3.347-.819,5.177-5.833,9.077-5.833,9.077l-3.078-1.787h0a3.26,3.26,0,0,0-.555.059,3.517,3.517,0,0,0-2.713,3.51v1.2a3.494,3.494,0,0,0,2.66,3.475,3.275,3.275,0,0,0,.924.058,1.608,1.608,0,0,1,1.693,1.33,16.617,16.617,0,0,0,32.7.022,1.616,1.616,0,0,1,1.611-1.342h.343a3.327,3.327,0,0,0,3.327-3.327V123.81A3.327,3.327,0,0,0,306.857,120.483Z" transform="translate(-203.326 -61.799)" fill="#c39772"/>
      <path id="Trazado_266151" data-name="Trazado 266151" d="M458.362,311.073l7.238-7.238a9.949,9.949,0,0,1,1.478,5.606l-1.38,34.448h-10.26V318.131A9.981,9.981,0,0,1,458.362,311.073Z" transform="translate(-346.918 -207.015)" fill="#edebed"/>
      <path id="Trazado_266152" data-name="Trazado 266152" d="M343.954,297.707h-6.688l-1.672,41.514h10.032Z" transform="translate(-255.629 -202.347)" fill="#a2e6b0"/>
      <path id="Trazado_266153" data-name="Trazado 266153" d="M348.5,306.75l-.364-9.043h-6.688l-.364,9.043Z" transform="translate(-259.811 -202.347)" fill="#a2e6b0"/>
      <g id="Grupo_146886" data-name="Grupo 146886" transform="translate(66.931 83.691)">
        <path id="Trazado_266154" data-name="Trazado 266154" d="M299.193,260.38l-13.309-11.645-4.991,4.991,7.73,11.6a3.327,3.327,0,0,0,5.121.507Z" transform="translate(-280.894 -248.735)" fill="#edebed"/>
        <path id="Trazado_266155" data-name="Trazado 266155" d="M357.693,260.38,371,248.735l4.991,4.991-7.73,11.6a3.327,3.327,0,0,1-5.121.507Z" transform="translate(-339.393 -248.735)" fill="#edebed"/>
      </g>
      <path id="Trazado_266156" data-name="Trazado 266156" d="M291.856,149.835a16.642,16.642,0,0,1-13.28-16.3V121.6a18.386,18.386,0,0,1-5.3,7.075l-3.078-1.787h0a3.26,3.26,0,0,0-.555.059,3.517,3.517,0,0,0-2.713,3.51v1.2a3.494,3.494,0,0,0,2.66,3.475,3.283,3.283,0,0,0,.924.058,1.608,1.608,0,0,1,1.692,1.33,16.573,16.573,0,0,0,19.649,13.313Z" transform="translate(-203.327 -68.199)" fill="#b48764"/>
      <path id="Trazado_266157" data-name="Trazado 266157" d="M61.481,315.27l-8.975-3.918H22.544l-8.975,3.918a9.981,9.981,0,0,0-5.979,9.571l1.05,24.774H66.411l1.05-24.774A9.982,9.982,0,0,0,61.481,315.27Z" transform="translate(-5.774 -212.741)" fill="#858fa6"/>
      <rect id="Rectángulo_46216" data-name="Rectángulo 46216" width="16.636" height="16.636" transform="translate(23.432 86.966)" fill="#fad7a5"/>
      <circle id="Elipse_4964" data-name="Elipse 4964" cx="9.982" cy="9.982" r="9.982" transform="translate(21.769 33.731)" fill="#b5bbc9"/>
      <ellipse id="Elipse_4965" data-name="Elipse 4965" cx="19.963" cy="19.131" rx="19.963" ry="19.131" transform="translate(11.788 42.048)" fill="#b5bbc9"/>
      <path id="Trazado_266158" data-name="Trazado 266158" d="M62.78,113.612c-6.654-6.654-7.649-12.391-7.492-15.992a18.678,18.678,0,0,0-5.817,13.5,18.391,18.391,0,0,0,2.86,9.853Z" transform="translate(-37.683 -49.936)" fill="#9ea4b0"/>
      <path id="Trazado_266159" data-name="Trazado 266159" d="M83.084,155.344a8.978,8.978,0,0,0-.954-.069,3.327,3.327,0,0,1-2.353-.975l-2.291-1.737s-11.779,2.467-22.443-4.616c-1.035,3.024-2.865,5.332-6.128,8.357l-3.155-1.03h0a3.251,3.251,0,0,0-.558.059,3.517,3.517,0,0,0-2.71,3.51v1.205a3.494,3.494,0,0,0,2.659,3.474,3.28,3.28,0,0,0,.927.059,1.606,1.606,0,0,1,1.691,1.329,16.617,16.617,0,0,0,32.693.044,1.63,1.63,0,0,1,1.7-1.366,3.35,3.35,0,0,0,1.082-.079,3.446,3.446,0,0,0,2.521-3.481c-.018-.755-.018-1.495-.018-1.495A3.473,3.473,0,0,0,83.084,155.344Z" transform="translate(-32.365 -88.272)" fill="#ffe1b4"/>
      <g id="Grupo_146887" data-name="Grupo 146887" transform="translate(1.806 104.714)">
        <path id="Trazado_266160" data-name="Trazado 266160" d="M16.526,344.258l-6.078-7.294a9.956,9.956,0,0,0-2.859,7.386l1.05,24.774H19.225V351.713A11.645,11.645,0,0,0,16.526,344.258Z" transform="translate(-7.58 -336.964)" fill="#b1bfde"/>
        <path id="Trazado_266161" data-name="Trazado 266161" d="M212.751,344.258l6.078-7.294a9.956,9.956,0,0,1,2.859,7.386l-1.05,24.774H210.052V351.713A11.645,11.645,0,0,1,212.751,344.258Z" transform="translate(-161.807 -336.964)" fill="#b1bfde"/>
      </g>
      <path id="Trazado_266162" data-name="Trazado 266162" d="M54.135,168.648v-11.88a24.018,24.018,0,0,1-5.219,6.255l-3.155-1.03h0a3.252,3.252,0,0,0-.558.059,3.517,3.517,0,0,0-2.71,3.51v1.205a3.494,3.494,0,0,0,2.658,3.474,3.282,3.282,0,0,0,.927.059,1.606,1.606,0,0,1,1.691,1.329,16.574,16.574,0,0,0,19.649,13.315A16.642,16.642,0,0,1,54.135,168.648Z" transform="translate(-32.365 -94.991)" fill="#fad7a5"/>
      <g id="Grupo_146888" data-name="Grupo 146888" transform="translate(16.238 93.404)">
        <path id="Trazado_266163" data-name="Trazado 266163" d="M83.192,299.528,73.161,289.5l-5.016,5.016,6.186,10.042a1.672,1.672,0,0,0,2.509.395Z" transform="translate(-68.145 -289.496)" fill="#b1bfde"/>
        <path id="Trazado_266164" data-name="Trazado 266164" d="M131.3,299.528,141.328,289.5l5.016,5.016-6.186,10.042a1.672,1.672,0,0,1-2.509.395Z" transform="translate(-116.249 -289.496)" fill="#b1bfde"/>
      </g>
      <path id="Trazado_266165" data-name="Trazado 266165" d="M287.954,361.686h-6.688a1.787,1.787,0,1,0,0,3.574h6.688a1.787,1.787,0,1,0,0-3.574Z" transform="translate(-212.885 -251.081)"/>
      <path id="Trazado_266166" data-name="Trazado 266166" d="M282.567,91.475l-9.732-3.754-4.962-4.962a1.779,1.779,0,0,0-1.148-.518V78.294a18.43,18.43,0,0,0,4.675-9.208,5.113,5.113,0,0,0,1.253-.1,5.289,5.289,0,0,0,4.1-5.245v-1.3a5.356,5.356,0,0,0-1.574-3.8c1.578-8.583.278-15.577-3.776-20.259-3.921-4.528-10.239-6.692-18.269-6.258a23.936,23.936,0,0,0-13.726,5.063,9.416,9.416,0,0,0-3.678,1.25c-1.985,1.191-4.351,3.693-4.351,8.847a44.626,44.626,0,0,0,1.239,10.381,5.3,5.3,0,0,0-2.911,4.8v1.283a5.289,5.289,0,0,0,4.1,5.245,5.1,5.1,0,0,0,1.253.1,18.432,18.432,0,0,0,4.675,9.208v3.948a1.778,1.778,0,0,0-1.149.518l-4.962,4.962L223.9,91.475a11.833,11.833,0,0,0-2.39,1.251,1.787,1.787,0,1,0,2.008,2.956,8.268,8.268,0,0,1,1.668-.873l9.031-3.484,6.905,10.358a5.112,5.112,0,0,0,3.764,2.26c.171.017.342.025.511.025a5.1,5.1,0,0,0,2.515-.666l-1.482,33.613a1.787,1.787,0,0,0,1.707,1.864l.08,0A1.787,1.787,0,0,0,250,137.074l1.375-31.2h3.71l1.375,31.2a1.787,1.787,0,0,0,1.784,1.708l.08,0a1.787,1.787,0,0,0,1.707-1.864L258.554,103.3a5.1,5.1,0,0,0,2.515.666c.17,0,.34-.008.511-.025a5.113,5.113,0,0,0,3.764-2.26l6.905-10.358,9.031,3.484a8.225,8.225,0,0,1,3.214,2.24l-6.179,6.179a11.741,11.741,0,0,0-3.462,8.357V137a1.787,1.787,0,0,0,3.574,0v-25.41a8.191,8.191,0,0,1,2.415-5.83l5.423-5.423a8.236,8.236,0,0,1,.285,2.5l-1.384,34.092a1.787,1.787,0,0,0,1.713,1.858h.074a1.787,1.787,0,0,0,1.784-1.714l1.385-34.093A11.815,11.815,0,0,0,282.567,91.475Zm-29.332,1.877-9.916-8.677v-3.42a18.5,18.5,0,0,0,19.833,0v3.42ZM234.948,65.513a1.533,1.533,0,0,1-.416-.028,1.733,1.733,0,0,1-1.246-1.744V62.458a1.694,1.694,0,0,1,1.261-1.7,1.553,1.553,0,0,1,1.53.586,2.493,2.493,0,0,0,3.425.538,12.975,12.975,0,0,0,2.931-2.865,1.787,1.787,0,0,0-2.868-2.133,9.487,9.487,0,0,1-1.392,1.5,5.112,5.112,0,0,0-1.938-1.035,41.1,41.1,0,0,1-1.276-10.072c0-2.737.844-4.66,2.508-5.716a5.8,5.8,0,0,1,2.672-.857,1.8,1.8,0,0,0,1.233-.494,20.131,20.131,0,0,1,11.96-4.525c6.887-.372,12.2,1.367,15.374,5.029,3.2,3.691,4.261,9.357,3.106,16.45a7.745,7.745,0,0,0-1.524.106l-1.679-4.032a1.789,1.789,0,0,0-2.1-1.042c-.166.043-16.669,4.227-23.589-4.388a1.787,1.787,0,1,0-2.786,2.238c7.066,8.8,21.088,6.884,25.755,5.951l1.3,3.118a2.938,2.938,0,0,0,3.394,1.74,3.858,3.858,0,0,1,1.337-.1,1.686,1.686,0,0,1,1.268,1.677v1.3a1.733,1.733,0,0,1-1.246,1.744,1.514,1.514,0,0,1-.416.028,3.481,3.481,0,0,0-3.619,2.836,14.913,14.913,0,0,1-29.334,0A3.479,3.479,0,0,0,234.948,65.513Zm10.293,34.874A1.534,1.534,0,0,1,244.1,99.7l-6.957-10.435,2.8-2.8,10.68,9.345L246.5,99.939A1.534,1.534,0,0,1,245.241,100.387Zm6.3,1.913.108-2.456,1.589-1.589,1.589,1.589.108,2.456Zm10.833-2.6a1.557,1.557,0,0,1-2.4.237l-4.125-4.125,10.68-9.345,2.8,2.8Z" transform="translate(-168.134 -0.002)"/>
      <path id="Trazado_266167" data-name="Trazado 266167" d="M56.673,100.839,47.947,97.03l-4.77-4.77a1.777,1.777,0,0,0-1.149-.518V88.93a18.458,18.458,0,0,0,8.019-12.017,5.135,5.135,0,0,0,1.41-.134A5.319,5.319,0,0,0,55.4,71.568v-1.3a5.328,5.328,0,0,0-2.29-4.395,20.208,20.208,0,0,0,.618-4.951A20.836,20.836,0,0,0,43.7,43.251,11.587,11.587,0,0,0,31.882,32.063,11.587,11.587,0,0,0,20.066,43.251,20.837,20.837,0,0,0,10.032,60.92a20.208,20.208,0,0,0,.614,4.937A5.34,5.34,0,0,0,8.36,70.285v1.283a5.319,5.319,0,0,0,3.946,5.211,5.125,5.125,0,0,0,1.41.134A18.458,18.458,0,0,0,21.735,88.93v2.811a1.777,1.777,0,0,0-1.148.518l-4.77,4.77L7.09,100.839a11.893,11.893,0,0,0-7.08,11.332l1.055,24.9a1.787,1.787,0,0,0,1.784,1.712l.077,0a1.787,1.787,0,0,0,1.71-1.861l-1.056-24.9a8.229,8.229,0,0,1,1.133-4.5l4.69,5.629a9.935,9.935,0,0,1,2.3,6.348v17.5a1.787,1.787,0,1,0,3.574,0V119.5a13.516,13.516,0,0,0-3.127-8.636l-4.986-5.984a8.1,8.1,0,0,1,1.356-.761l7.6-3.32,5.374,8.723a3.459,3.459,0,0,0,5.19.817l3.405-2.906v29.565a1.787,1.787,0,0,0,3.574,0V107.429l3.405,2.906a3.459,3.459,0,0,0,5.19-.817l5.374-8.723,7.6,3.32a8.112,8.112,0,0,1,1.356.761l-4.986,5.984a13.516,13.516,0,0,0-3.127,8.636v17.5a1.787,1.787,0,0,0,3.574,0V119.5a9.936,9.936,0,0,1,2.3-6.348l4.69-5.629a8.229,8.229,0,0,1,1.133,4.5l-1.055,24.9a1.787,1.787,0,0,0,1.71,1.861l.077,0a1.787,1.787,0,0,0,1.784-1.712l1.055-24.9A11.894,11.894,0,0,0,56.673,100.839Zm-24.791-65.2a8.188,8.188,0,0,1,7.958,5.712,22.663,22.663,0,0,0-15.916,0A8.188,8.188,0,0,1,31.882,35.637ZM17.215,76.177A3.481,3.481,0,0,0,13.6,73.341a1.544,1.544,0,0,1-.467-.04,1.745,1.745,0,0,1-1.2-1.733V70.285a1.694,1.694,0,0,1,1.261-1.7,1.553,1.553,0,0,1,1.529.585,2.492,2.492,0,0,0,3.425.538,12.963,12.963,0,0,0,2.892-2.814,1.787,1.787,0,0,0-2.858-2.146,9.475,9.475,0,0,1-1.363,1.466,5.12,5.12,0,0,0-2.7-1.187,16.644,16.644,0,0,1-.518-4.107c0-9.616,8.2-17.44,18.276-17.44S50.158,51.3,50.158,60.92a16.637,16.637,0,0,1-.515,4.1,8.2,8.2,0,0,0-1.391.229l-1.343-1.1a3.431,3.431,0,0,0-2.385-.782c-2.627.155-16.079.51-22.981-7.75A1.787,1.787,0,0,0,18.8,57.9c3.4,4.074,8.4,6.829,14.839,8.188a43.74,43.74,0,0,0,11.035.842l2.1,1.723a1.783,1.783,0,0,0,2.032.165,3.943,3.943,0,0,1,1.761-.234,1.686,1.686,0,0,1,1.267,1.677v1.3a1.745,1.745,0,0,1-1.2,1.733,1.528,1.528,0,0,1-.467.04,3.484,3.484,0,0,0-3.619,2.836,14.913,14.913,0,0,1-29.334,0ZM31.882,91.966a18.449,18.449,0,0,0,6.573-1.209v3.7l-6.573,6.573-6.573-6.573v-3.7A18.445,18.445,0,0,0,31.882,91.966Zm-7.41,15.562L19.1,98.8,21.85,96.05l7.4,7.4Zm14.82,0-4.779-4.078,7.4-7.4L44.667,98.8Z" transform="translate(0)"/>
      <path id="Trazado_266168" data-name="Trazado 266168" d="M83.987,394.766H78.971a1.787,1.787,0,1,0,0,3.574h5.016a1.787,1.787,0,1,0,0-3.574Z" transform="translate(-58.793 -276.279)"/>
    </g>
    <text id="What_do_you_mean_by" data-name="What do you mean by" transform="translate(380 1109)" fill="#12263f" font-size="20" font-family="Roboto-Bold, Roboto" font-weight="700"><tspan x="-89.702" y="0">Personal que labora</tspan><tspan x="-102.622" y="27">y ejecuta las máquinas</tspan></text>
  </g>
</svg>
