<svg xmlns="http://www.w3.org/2000/svg" xmlns:xlink="http://www.w3.org/1999/xlink" width="440.179" height="300" viewBox="0 0 440.179 300">
  <defs>
    <clipPath id="clip-path">
      <rect id="Rectángulo_45965" data-name="Rectángulo 45965" width="440.179" height="300" fill="none"/>
    </clipPath>
    <clipPath id="clip-path-3">
      <rect id="Rectángulo_45955" data-name="Rectángulo 45955" width="128.52" height="121.608" fill="none"/>
    </clipPath>
    <clipPath id="clip-path-4">
      <rect id="Rectángulo_45954" data-name="Rectángulo 45954" width="119.974" height="157.943" fill="none"/>
    </clipPath>
    <clipPath id="clip-path-6">
      <rect id="Rectángulo_45958" data-name="Rectángulo 45958" width="22.836" height="37.509" fill="none"/>
    </clipPath>
    <clipPath id="clip-path-7">
      <rect id="Rectángulo_45957" data-name="Rectángulo 45957" width="55.003" height="26.78" fill="none"/>
    </clipPath>
    <clipPath id="clip-path-9">
      <rect id="Rectángulo_45961" data-name="Rectángulo 45961" width="37.05" height="49.21" fill="none"/>
    </clipPath>
    <clipPath id="clip-path-10">
      <rect id="Rectángulo_45960" data-name="Rectángulo 45960" width="40.637" height="40.636" fill="none"/>
    </clipPath>
    <clipPath id="clip-path-12">
      <rect id="Rectángulo_45964" data-name="Rectángulo 45964" width="108.311" height="145.08" fill="none"/>
    </clipPath>
    <linearGradient id="linear-gradient" x1="0.145" y1="0.972" x2="0.611" y2="0.354" gradientUnits="objectBoundingBox">
      <stop offset="0.032" stop-color="#a2e6b0"/>
      <stop offset="1" stop-color="#48a5f0"/>
    </linearGradient>
    <linearGradient id="linear-gradient-2" x1="0.198" y1="0.9" x2="0.826" y2="0.123" gradientUnits="objectBoundingBox">
      <stop offset="0" stop-color="#a2e6b0"/>
      <stop offset="0.544" stop-color="#68bcda"/>
      <stop offset="1" stop-color="#48a5f0"/>
    </linearGradient>
  </defs>
  <g id="Grupo_179260" data-name="Grupo 179260" transform="translate(-8400.485 -2212.599)">
    <g id="Grupo_179112" data-name="Grupo 179112" transform="translate(0 -29)">
      <g id="Grupo_146446" data-name="Grupo 146446" transform="translate(8400.485 2241.599)">
        <g id="Grupo_146445" data-name="Grupo 146445" clip-path="url(#clip-path)">
          <g id="Grupo_146421" data-name="Grupo 146421">
            <g id="Grupo_146420" data-name="Grupo 146420" clip-path="url(#clip-path)">
              <path id="Trazado_208525" data-name="Trazado 208525" d="M450.826,257.345l1.439-1.1-.653-3.1-1.795-.561a18.97,18.97,0,0,0-2.3-4.544l.691-1.666-2.117-2.361-1.833.412a19.184,19.184,0,0,0-4.266-2.777l-.236-1.8-3.013-.986-1.376,1.268a19,19,0,0,0-5.087-.265l-1.1-1.439-3.1.654-.56,1.795a18.959,18.959,0,0,0-4.545,2.3l-1.666-.691-2.361,2.116.413,1.834a19.166,19.166,0,0,0-2.777,4.265l-1.8.236-.986,3.013,1.269,1.377a18.921,18.921,0,0,0-.265,5.087l-1.439,1.1.653,3.1,1.795.561a18.954,18.954,0,0,0,2.3,4.544l-.691,1.667,2.117,2.36,1.833-.412a19.183,19.183,0,0,0,4.266,2.777l.236,1.8,3.012.986,1.377-1.268a18.925,18.925,0,0,0,5.087.265l1.1,1.439,3.1-.653.56-1.795a18.94,18.94,0,0,0,4.544-2.3l1.667.691,2.36-2.116-.412-1.834a19.166,19.166,0,0,0,2.777-4.265l1.8-.236.986-3.013-1.269-1.376a18.93,18.93,0,0,0,.265-5.087m-19.013,11.69a10.157,10.157,0,1,1,10.156-10.156,10.157,10.157,0,0,1-10.156,10.156" transform="translate(-44.074 -25.546)" fill="#eef7ff"/>
              <path id="Trazado_208526" data-name="Trazado 208526" d="M89.457,58.278l1.188-.912L90.106,54.8l-1.482-.463a15.628,15.628,0,0,0-1.9-3.753l.571-1.377-1.748-1.949-1.514.339a15.868,15.868,0,0,0-3.524-2.293l-.195-1.484-2.488-.814-1.137,1.048a15.635,15.635,0,0,0-4.2-.22l-.912-1.188-2.562.539-.463,1.482a15.677,15.677,0,0,0-3.753,1.9L63.419,46,61.47,47.751l.339,1.513a15.869,15.869,0,0,0-2.293,3.524l-1.484.195-.814,2.488,1.048,1.137a15.635,15.635,0,0,0-.22,4.2l-1.188.912.539,2.563,1.482.463a15.661,15.661,0,0,0,1.9,3.753l-.571,1.377,1.748,1.949,1.514-.339A15.869,15.869,0,0,0,67,73.779l.195,1.484,2.488.814,1.137-1.048a15.64,15.64,0,0,0,4.2.22l.911,1.188,2.562-.539.463-1.482a15.661,15.661,0,0,0,3.753-1.9l1.377.571,1.949-1.748-.339-1.514A15.869,15.869,0,0,0,87.987,66.3l1.484-.195.814-2.488-1.047-1.138a15.672,15.672,0,0,0,.219-4.2M73.752,67.933a8.389,8.389,0,1,1,8.389-8.389,8.39,8.39,0,0,1-8.389,8.389" transform="translate(-6.092 -4.57)" fill="#eef7ff"/>
              <path id="Trazado_208527" data-name="Trazado 208527" d="M465.873,102.494l1.361-1.044-.618-2.934-1.7-.53a17.974,17.974,0,0,0-2.178-4.3l.654-1.576-2-2.232-1.733.389a18.163,18.163,0,0,0-4.035-2.626l-.223-1.7-2.849-.932-1.3,1.2a17.909,17.909,0,0,0-4.811-.251L445.4,84.6l-2.934.617-.529,1.7a17.909,17.909,0,0,0-4.3,2.178l-1.577-.654-2.232,2,.389,1.734a18.163,18.163,0,0,0-2.626,4.035l-1.7.222-.932,2.85,1.2,1.3a17.945,17.945,0,0,0-.251,4.811l-1.361,1.044.618,2.933,1.7.53a17.939,17.939,0,0,0,2.178,4.3l-.654,1.576,2,2.232,1.734-.389a18.106,18.106,0,0,0,4.034,2.626l.223,1.7,2.849.932,1.3-1.2a17.945,17.945,0,0,0,4.811.251l1.044,1.361,2.934-.618.53-1.7a17.916,17.916,0,0,0,4.3-2.177l1.577.654,2.232-2-.389-1.734a18.137,18.137,0,0,0,2.626-4.034l1.7-.223.932-2.849-1.2-1.3a17.946,17.946,0,0,0,.251-4.811m-17.982,11.055a9.605,9.605,0,1,1,9.605-9.605,9.606,9.606,0,0,1-9.605,9.605" transform="translate(-45.916 -9.064)" fill="#eef7ff"/>
              <path id="Trazado_208528" data-name="Trazado 208528" d="M82.072,265.184l1.992-1.527-.9-4.294-2.484-.776a26.222,26.222,0,0,0-3.186-6.288l.956-2.306-2.929-3.267-2.537.57a26.574,26.574,0,0,0-5.9-3.843l-.326-2.486L62.58,239.6l-1.9,1.755a26.223,26.223,0,0,0-7.04-.367L52.108,239l-4.294.9-.775,2.484a26.245,26.245,0,0,0-6.289,3.186l-2.306-.956-3.267,2.929.57,2.538a26.6,26.6,0,0,0-3.843,5.9l-2.486.326-1.364,4.171,1.755,1.905a26.258,26.258,0,0,0-.367,7.04l-1.992,1.527.9,4.294,2.484.776a26.224,26.224,0,0,0,3.187,6.288l-.957,2.306L36,287.886l2.537-.57a26.567,26.567,0,0,0,5.9,3.843l.327,2.486,4.17,1.364,1.905-1.755a26.223,26.223,0,0,0,7.04.367l1.527,1.992,4.294-.9.776-2.484a26.209,26.209,0,0,0,6.288-3.187l2.307.957,3.266-2.929-.57-2.537a26.537,26.537,0,0,0,3.843-5.9L82.1,278.3l1.364-4.17-1.755-1.905a26.185,26.185,0,0,0,.367-7.04M55.757,281.363a14.057,14.057,0,1,1,14.057-14.057,14.057,14.057,0,0,1-14.057,14.057m5.938-14.057a5.937,5.937,0,1,1-5.937-5.937,5.937,5.937,0,0,1,5.938,5.938" transform="translate(-2.941 -25.607)" fill="#eef7ff"/>
              <path id="Trazado_208529" data-name="Trazado 208529" d="M442.6,159.675l2.385-1.829-1.082-5.142-2.974-.929a31.422,31.422,0,0,0-3.816-7.531l1.146-2.762-3.508-3.912-3.038.682a31.813,31.813,0,0,0-7.071-4.6l-.39-2.978-4.995-1.634-2.281,2.1a31.415,31.415,0,0,0-8.431-.44l-1.829-2.385-5.143,1.082-.929,2.974a31.443,31.443,0,0,0-7.532,3.816l-2.762-1.146-3.913,3.508.682,3.039a31.788,31.788,0,0,0-4.6,7.071l-2.977.39-1.634,4.995,2.1,2.281a31.415,31.415,0,0,0-.439,8.431l-2.386,1.829,1.082,5.142,2.975.929a31.407,31.407,0,0,0,3.815,7.532l-1.146,2.762,3.508,3.912,3.039-.682a31.787,31.787,0,0,0,7.071,4.6l.39,2.978,4.995,1.634,2.282-2.1a31.413,31.413,0,0,0,8.431.44l1.829,2.385,5.142-1.082.929-2.974a31.454,31.454,0,0,0,7.531-3.816l2.762,1.146,3.912-3.508-.682-3.039a31.793,31.793,0,0,0,4.6-7.071l2.977-.39,1.634-4.995-2.1-2.281a31.415,31.415,0,0,0,.439-8.431m-31.516,19.376a16.835,16.835,0,1,1,16.835-16.835,16.835,16.835,0,0,1-16.835,16.835m7.111-16.835a7.111,7.111,0,1,1-7.111-7.111,7.111,7.111,0,0,1,7.111,7.111" transform="translate(-40.413 -13.748)" fill="#eef7ff"/>
              <path id="Trazado_208530" data-name="Trazado 208530" d="M397.433,179.661H361.561a5.9,5.9,0,0,1-5.9-5.9V98.15a5.9,5.9,0,0,1,5.9-5.9h35.872a5.9,5.9,0,0,1,5.9,5.9v75.612a5.9,5.9,0,0,1-5.9,5.9" transform="translate(-38.107 -9.884)" fill="#5793cf"/>
              <rect id="Rectángulo_45945" data-name="Rectángulo 45945" width="40.862" height="66.227" transform="translate(320.96 90.84)" fill="#d5eaff"/>
              <path id="Trazado_208531" data-name="Trazado 208531" d="M385.851,182.417a3.97,3.97,0,1,0-3.97,3.97,3.97,3.97,0,0,0,3.97-3.97" transform="translate(-40.49 -19.119)" fill="#d5eaff"/>
              <path id="Trazado_208532" data-name="Trazado 208532" d="M386.843,97.194H376.475a.361.361,0,1,1,0-.722h10.369a.361.361,0,0,1,0,.722" transform="translate(-40.298 -10.336)" fill="#173c7a"/>
              <line id="Línea_378" data-name="Línea 378" x2="31.888" transform="translate(325.447 101.4)" fill="none" stroke="#173c7a" stroke-miterlimit="10" stroke-width="1.055"/>
              <line id="Línea_379" data-name="Línea 379" x2="31.888" transform="translate(325.447 108.262)" fill="none" stroke="#173c7a" stroke-miterlimit="10" stroke-width="1.055"/>
              <line id="Línea_380" data-name="Línea 380" x2="31.888" transform="translate(325.447 115.124)" fill="none" stroke="#173c7a" stroke-miterlimit="10" stroke-width="1.055"/>
              <line id="Línea_381" data-name="Línea 381" x2="23.746" transform="translate(329.532 121.986)" fill="none" stroke="#173c7a" stroke-miterlimit="10" stroke-width="1.055"/>
              <path id="Trazado_208533" data-name="Trazado 208533" d="M379.287,167.133l-1.954-2.038-2.819.146,3.083-7.622,4.773,1.891Z" transform="translate(-40.126 -16.888)" fill="#173c7a"/>
              <path id="Trazado_208534" data-name="Trazado 208534" d="M383.985,167.133l1.954-2.038,2.819.146-3.012-7.622-4.773,1.891Z" transform="translate(-40.818 -16.888)" fill="#173c7a"/>
              <path id="Trazado_208535" data-name="Trazado 208535" d="M388.682,152.935l.407-1.392-.857-1.17-.1-1.446-1.206-.8-.583-1.327-1.408-.346-1-1.048-1.441.159-1.3-.64-1.3.64-1.441-.158-1,1.047-1.408.346-.583,1.328-1.206.8-.1,1.446-.857,1.17.407,1.392-.407,1.392.857,1.17.1,1.446,1.206.8.584,1.327,1.408.346,1,1.048,1.441-.159,1.3.64,1.3-.64,1.441.159,1-1.048,1.408-.346.584-1.328,1.206-.8.1-1.446.856-1.17Z" transform="translate(-39.997 -15.527)" fill="#5793cf"/>
              <circle id="Elipse_4954" data-name="Elipse 4954" cx="5.326" cy="5.326" r="5.326" transform="translate(335.873 132.082)" fill="none" stroke="#d5eaff" stroke-miterlimit="10" stroke-width="0.264"/>
              <path id="Trazado_208536" data-name="Trazado 208536" d="M386.144,77.549a10.765,10.765,0,0,1,15.242-.142" transform="translate(-41.373 -7.962)" fill="none" stroke="#d5eaff" stroke-linecap="round" stroke-linejoin="round" stroke-width="1.583"/>
              <path id="Trazado_208537" data-name="Trazado 208537" d="M404.989,72.522a16.618,16.618,0,0,0-23.527.22" transform="translate(-40.871 -7.259)" fill="none" stroke="#d5eaff" stroke-linecap="round" stroke-linejoin="round" stroke-width="1.583"/>
              <path id="Trazado_208538" data-name="Trazado 208538" d="M408.419,67.4a22.2,22.2,0,0,0-31.427.293" transform="translate(-40.392 -6.539)" fill="none" stroke="#d5eaff" stroke-linecap="round" stroke-linejoin="round" stroke-width="1.583"/>
              <path id="Trazado_208539" data-name="Trazado 208539" d="M390.825,82.355a4.922,4.922,0,0,1,6.961-.065" transform="translate(-41.874 -8.666)" fill="none" stroke="#d5eaff" stroke-linecap="round" stroke-linejoin="round" stroke-width="1.583"/>
              <path id="Trazado_208540" data-name="Trazado 208540" d="M401.387,77.407a10.765,10.765,0,0,0-15.242.142" transform="translate(-41.373 -7.962)" fill="none" stroke="#d5eaff" stroke-linecap="round" stroke-linejoin="round" stroke-width="1.583"/>
              <path id="Trazado_208541" data-name="Trazado 208541" d="M397.786,82.29a4.922,4.922,0,0,0-6.961.065" transform="translate(-41.874 -8.666)" fill="none" stroke="#d5eaff" stroke-linecap="round" stroke-linejoin="round" stroke-width="1.583"/>
              <path id="Trazado_208542" data-name="Trazado 208542" d="M114.066,207.5l-66.832,0a1.68,1.68,0,0,1-1.68-1.68l0-89.545a1.68,1.68,0,0,1,1.679-1.68l66.832,0a1.681,1.681,0,0,1,1.68,1.68l0,89.545a1.681,1.681,0,0,1-1.68,1.68" transform="translate(-4.881 -12.278)" fill="#d5eaff"/>
              <rect id="Rectángulo_45946" data-name="Rectángulo 45946" width="13.584" height="92.913" transform="translate(40.508 102.316)" fill="#92b6e4"/>
              <rect id="Rectángulo_45947" data-name="Rectángulo 45947" width="37.875" height="3.41" transform="translate(63.271 123.618)" fill="#d5eaff"/>
              <rect id="Rectángulo_45948" data-name="Rectángulo 45948" width="26.296" height="3.41" transform="translate(69.061 117.46)" fill="#d5eaff"/>
              <path id="Trazado_208543" data-name="Trazado 208543" d="M93.063,222.057l-5.076-2.425-5.076,2.425V209.764H93.063Z" transform="translate(-8.883 -22.475)" fill="#5793cf"/>
              <path id="Trazado_208544" data-name="Trazado 208544" d="M140.575,198.126l-69.7,0a1.752,1.752,0,0,1-1.752-1.752l0-93.382a1.753,1.753,0,0,1,1.753-1.753l69.7,0a1.753,1.753,0,0,1,1.753,1.753l0,93.382a1.752,1.752,0,0,1-1.752,1.752" transform="translate(-7.406 -10.847)" fill="#9fe3ad"/>
              <rect id="Rectángulo_45949" data-name="Rectángulo 45949" width="14.166" height="96.896" transform="translate(61.548 90.394)" fill="#3d5075"/>
              <rect id="Rectángulo_45950" data-name="Rectángulo 45950" width="39.498" height="3.556" transform="translate(85.287 112.609)" fill="#d5eaff"/>
              <rect id="Rectángulo_45951" data-name="Rectángulo 45951" width="27.423" height="3.556" transform="translate(91.324 106.187)" fill="#d5eaff"/>
              <path id="Trazado_208545" data-name="Trazado 208545" d="M145.035,36.862H161.9c1.512,6.378,6.441,7.521,9.293,7.628a.6.6,0,0,0,.375-1.071c-3.134-2.447-1.946-6.557-1.946-6.557h11.408a2.4,2.4,0,0,0,2.391-2.391V12.07a2.4,2.4,0,0,0-2.391-2.391H145.035a2.4,2.4,0,0,0-2.391,2.391v22.4a2.4,2.4,0,0,0,2.391,2.391" transform="translate(-15.283 -1.037)" fill="#d5eaff"/>
              <path id="Trazado_208546" data-name="Trazado 208546" d="M173.24,24.25a2.592,2.592,0,1,1,2.592,2.591,2.592,2.592,0,0,1-2.592-2.591" transform="translate(-18.561 -2.321)" fill="#fefefe"/>
              <path id="Trazado_208547" data-name="Trazado 208547" d="M162.575,24.25a2.592,2.592,0,1,1,2.592,2.591,2.592,2.592,0,0,1-2.592-2.591" transform="translate(-17.419 -2.321)" fill="#fefefe"/>
              <path id="Trazado_208548" data-name="Trazado 208548" d="M151.91,24.25a2.592,2.592,0,1,1,2.592,2.591,2.592,2.592,0,0,1-2.592-2.591" transform="translate(-16.276 -2.321)" fill="#fefefe"/>
              <path id="Trazado_208549" data-name="Trazado 208549" d="M150.684,78.191H133.821c-1.512,6.378-6.441,7.521-9.293,7.628a.6.6,0,0,1-.375-1.071c3.134-2.447,1.946-6.557,1.946-6.557H114.691A2.4,2.4,0,0,1,112.3,75.8V53.4a2.4,2.4,0,0,1,2.391-2.391h35.993a2.4,2.4,0,0,1,2.391,2.391V75.8a2.4,2.4,0,0,1-2.391,2.391" transform="translate(-12.032 -5.465)" fill="#5793cf"/>
              <path id="Trazado_208550" data-name="Trazado 208550" d="M126.75,65.579a2.592,2.592,0,1,0-2.592,2.591,2.592,2.592,0,0,0,2.592-2.591" transform="translate(-13.025 -6.749)" fill="#fefefe"/>
              <path id="Trazado_208551" data-name="Trazado 208551" d="M137.415,65.579a2.592,2.592,0,1,0-2.592,2.591,2.592,2.592,0,0,0,2.592-2.591" transform="translate(-14.168 -6.749)" fill="#fefefe"/>
              <path id="Trazado_208552" data-name="Trazado 208552" d="M148.08,65.579a2.592,2.592,0,1,0-2.592,2.591,2.592,2.592,0,0,0,2.592-2.591" transform="translate(-15.31 -6.749)" fill="#fefefe"/>
              <path id="Trazado_208553" data-name="Trazado 208553" d="M362.141,28.245a21.426,21.426,0,1,0-21.427,21.427,21.427,21.427,0,0,0,21.427-21.427" transform="translate(-34.209 -0.73)" fill="#d5eaff"/>
              <line id="Línea_382" data-name="Línea 382" y1="23.852" transform="translate(306.504 24.034)" fill="none" stroke="#173c7a" stroke-linecap="round" stroke-linejoin="round" stroke-width="0.792"/>
              <path id="Trazado_208554" data-name="Trazado 208554" d="M347.026,50.683s-4.579-7.919,0-19.731,12.362,1.557-5.037,2.2c-17.4-.64-9.614-14.009-5.036-2.2s0,19.731,0,19.731" transform="translate(-35.486 -2.796)" fill="none" stroke="#173c7a" stroke-linecap="round" stroke-linejoin="round" stroke-width="0.792"/>
              <path id="Trazado_208555" data-name="Trazado 208555" d="M348.474,53.269a5.955,5.955,0,0,0-11.795.008,21.457,21.457,0,0,0,11.795-.008" transform="translate(-36.073 -5.158)" fill="#3d5075"/>
              <path id="Trazado_208556" data-name="Trazado 208556" d="M342.871,75.447h0A3.448,3.448,0,0,1,339.423,72V70.812h6.9V72a3.448,3.448,0,0,1-3.448,3.448" transform="translate(-36.367 -7.587)" fill="#173c7a"/>
              <path id="Trazado_208557" data-name="Trazado 208557" d="M347.053,68.971h-9.169l-2.219-3.786V53.632h13.607V65.186Z" transform="translate(-35.964 -5.746)" fill="#48a2ed"/>
              <line id="Línea_383" data-name="Línea 383" x2="13.607" transform="translate(299.701 50.162)" fill="none" stroke="#d5eaff" stroke-miterlimit="10" stroke-width="0.528"/>
              <line id="Línea_384" data-name="Línea 384" x2="13.607" transform="translate(299.701 52.481)" fill="none" stroke="#d5eaff" stroke-miterlimit="10" stroke-width="0.528"/>
              <line id="Línea_385" data-name="Línea 385" x2="13.607" transform="translate(299.701 54.801)" fill="none" stroke="#d5eaff" stroke-miterlimit="10" stroke-width="0.528"/>
              <line id="Línea_386" data-name="Línea 386" x2="13.607" transform="translate(299.701 57.121)" fill="none" stroke="#d5eaff" stroke-miterlimit="10" stroke-width="0.528"/>
              <line id="Línea_387" data-name="Línea 387" x2="13.607" transform="translate(299.701 59.44)" fill="none" stroke="#d5eaff" stroke-miterlimit="10" stroke-width="0.528"/>
              <path id="Trazado_208558" data-name="Trazado 208558" d="M335.707,250.858H137.685a7.533,7.533,0,0,1-7.533-7.533V119.468a7.533,7.533,0,0,1,7.533-7.533H335.707a7.533,7.533,0,0,1,7.533,7.533V243.325a7.533,7.533,0,0,1-7.533,7.533" transform="translate(-13.945 -11.993)" fill="#3d5075"/>
              <rect id="Rectángulo_45952" data-name="Rectángulo 45952" width="198.617" height="125.899" transform="translate(123.443 106.454)" fill="#92b6e4"/>
              <path id="Trazado_208559" data-name="Trazado 208559" d="M86.921,311.993s.879,6.7,6.413,6.7h277.46c5.535,0,6.413-6.7,6.413-6.7Z" transform="translate(-9.313 -33.428)" fill="#92b6e4"/>
              <path id="Trazado_208560" data-name="Trazado 208560" d="M375.021,308.4H89.008a2.549,2.549,0,0,1-1.7-4.446l37.97-34.095a9.088,9.088,0,0,1,6.072-2.327H332.682a9.09,9.09,0,0,1,6.073,2.327l37.97,34.095a2.55,2.55,0,0,1-1.7,4.446" transform="translate(-9.263 -28.664)" fill="#d5eaff"/>
              <path id="Trazado_208561" data-name="Trazado 208561" d="M117.668,289.8l20.012-17.971H333.037l20.352,18.276Z" transform="translate(-12.607 -29.125)" fill="#92b6e4"/>
              <path id="Trazado_208562" data-name="Trazado 208562" d="M283.954,307.282H205.609l5.988-10.805h66.368Z" transform="translate(-22.03 -31.765)" fill="#92b6e4"/>
            </g>
          </g>
          <g id="Grupo_146426" data-name="Grupo 146426" transform="translate(163.347 100.739)">
            <g id="Grupo_146425" data-name="Grupo 146425" clip-path="url(#clip-path-3)">
              <g id="Grupo_146424" data-name="Grupo 146424" transform="translate(7.56 -43.083)" opacity="0.71" style="mix-blend-mode: multiply;isolation: isolate">
                <g id="Grupo_146423" data-name="Grupo 146423">
                  <g id="Grupo_146422" data-name="Grupo 146422" clip-path="url(#clip-path-4)">
                    <path id="Trazado_208563" data-name="Trazado 208563" d="M311.39,64.575H191.416V222.518H294.693l16.7-16.7Z" transform="translate(-191.416 -64.575)" fill="#92b6e4"/>
                  </g>
                </g>
              </g>
            </g>
          </g>
          <g id="Grupo_146428" data-name="Grupo 146428">
            <g id="Grupo_146427" data-name="Grupo 146427" clip-path="url(#clip-path)">
              <path id="Trazado_208564" data-name="Trazado 208564" d="M302.309,56.327H182.335V214.269H285.611l16.7-16.7Z" transform="translate(-19.536 -6.035)" fill="#eef7ff"/>
              <path id="Trazado_208565" data-name="Trazado 208565" d="M287.15,209.679H188.178V62.17h109.54V198.728" transform="translate(-20.162 -6.661)" fill="#48a2ed"/>
              <path id="Trazado_208566" data-name="Trazado 208566" d="M298,231.219l16.7-16.7H298Z" transform="translate(-31.929 -22.985)" fill="#173c7a"/>
            </g>
          </g>
          <g id="Grupo_146433" data-name="Grupo 146433" transform="translate(306.683 191.394)">
            <g id="Grupo_146432" data-name="Grupo 146432" clip-path="url(#clip-path-6)">
              <g id="Grupo_146431" data-name="Grupo 146431" transform="translate(6.438 8.015)" opacity="0.71" style="mix-blend-mode: multiply;isolation: isolate">
                <g id="Grupo_146430" data-name="Grupo 146430">
                  <g id="Grupo_146429" data-name="Grupo 146429" clip-path="url(#clip-path-7)">
                    <path id="Trazado_208567" data-name="Trazado 208567" d="M405.7,226.337l-.013,20.815a2.967,2.967,0,0,1-2.969,2.965l-49.055-.031a2.967,2.967,0,0,1-2.965-2.969l.013-20.815a2.967,2.967,0,0,1,2.969-2.965l49.055.031a2.967,2.967,0,0,1,2.965,2.969" transform="translate(-350.695 -223.338)" fill="#92b6e4"/>
                  </g>
                </g>
              </g>
            </g>
          </g>
          <g id="Grupo_146435" data-name="Grupo 146435">
            <g id="Grupo_146434" data-name="Grupo 146434" clip-path="url(#clip-path)">
              <path id="Trazado_208568" data-name="Trazado 208568" d="M425.06,220.352l-.013,20.815a2.967,2.967,0,0,1-2.969,2.965L342.7,244.1a2.967,2.967,0,0,1-2.965-2.969l.013-20.815a2.967,2.967,0,0,1,2.969-2.965l79.375.031a2.967,2.967,0,0,1,2.965,2.969" transform="translate(-36.401 -23.288)" fill="#9fe3ad"/>
              <path id="Trazado_208569" data-name="Trazado 208569" d="M369.878,225.7l1.707,3.458,3.816.554-2.762,2.692.652,3.8-3.413-1.795-3.413,1.795.652-3.8-2.762-2.692,3.817-.554Z" transform="translate(-39.038 -24.182)" fill="#fefefe"/>
              <path id="Trazado_208570" data-name="Trazado 208570" d="M352.95,225.7l1.707,3.458,3.816.554-2.762,2.692.652,3.8-3.413-1.795-3.413,1.795.652-3.8-2.762-2.692,3.816-.554Z" transform="translate(-37.224 -24.182)" fill="#fefefe"/>
              <path id="Trazado_208571" data-name="Trazado 208571" d="M386.806,225.7l1.707,3.458,3.816.554-2.762,2.692.652,3.8-3.413-1.795-3.413,1.795.652-3.8-2.762-2.692,3.816-.554Z" transform="translate(-40.852 -24.182)" fill="#fefefe"/>
              <path id="Trazado_208572" data-name="Trazado 208572" d="M403.752,225.7l1.706,3.458,3.817.554-2.762,2.692.652,3.8-3.413-1.795-3.413,1.795.652-3.8-2.762-2.692,3.816-.554Z" transform="translate(-42.667 -24.182)" fill="#fefefe"/>
              <path id="Trazado_208573" data-name="Trazado 208573" d="M420.68,225.7l1.707,3.458,3.816.554-2.762,2.692.652,3.8-3.413-1.795-3.413,1.795.652-3.8-2.762-2.692,3.816-.554Z" transform="translate(-44.481 -24.182)" fill="#fefefe"/>
            </g>
          </g>
          <g id="Grupo_146440" data-name="Grupo 146440" transform="translate(116.313 168.254)">
            <g id="Grupo_146439" data-name="Grupo 146439" clip-path="url(#clip-path-9)">
              <g id="Grupo_146438" data-name="Grupo 146438" transform="translate(-5.219 5.373)" opacity="0.71" style="mix-blend-mode: multiply;isolation: isolate">
                <g id="Grupo_146437" data-name="Grupo 146437">
                  <g id="Grupo_146436" data-name="Grupo 146436" clip-path="url(#clip-path-10)">
                    <path id="Trazado_208574" data-name="Trazado 208574" d="M165.063,214.781A20.318,20.318,0,1,0,144.745,235.1a20.318,20.318,0,0,0,20.318-20.318" transform="translate(-124.426 -194.463)" fill="#92b6e4"/>
                  </g>
                </g>
              </g>
            </g>
          </g>
          <g id="Grupo_146442" data-name="Grupo 146442">
            <g id="Grupo_146441" data-name="Grupo 146441" clip-path="url(#clip-path)">
              <path id="Trazado_208575" data-name="Trazado 208575" d="M159.468,209.187A20.318,20.318,0,1,0,139.15,229.5a20.318,20.318,0,0,0,20.318-20.318" transform="translate(-12.732 -20.236)" fill="#48a2ed"/>
              <path id="Trazado_208576" data-name="Trazado 208576" d="M149.561,209.946l-11.847-6.84a1.065,1.065,0,0,0-1.6.922v13.68a1.065,1.065,0,0,0,1.6.922l11.847-6.84a1.065,1.065,0,0,0,0-1.845" transform="translate(-14.584 -21.746)" fill="#fefefe"/>
              <path id="Trazado_208577" data-name="Trazado 208577" d="M108.8,254.271a14.216,14.216,0,1,0-14.215,14.215A14.216,14.216,0,0,0,108.8,254.271" transform="translate(-8.611 -25.72)" fill="#9fe3ad"/>
              <path id="Trazado_208578" data-name="Trazado 208578" d="M86.875,254.834l6.241,5.985,9.645-11.005" transform="translate(-9.308 -26.766)" fill="none" stroke="#fefefe" stroke-linecap="round" stroke-linejoin="round" stroke-width="2.111"/>
              <path id="Trazado_208579" data-name="Trazado 208579" d="M238.954,36.834a13.468,13.468,0,0,1,19.067-.178" transform="translate(-25.602 -3.513)" fill="none" stroke="#173c7a" stroke-linecap="round" stroke-linejoin="round" stroke-width="2.111"/>
              <path id="Trazado_208580" data-name="Trazado 208580" d="M262.526,30.546a20.788,20.788,0,0,0-29.43.274" transform="translate(-24.975 -2.633)" fill="none" stroke="#173c7a" stroke-linecap="round" stroke-linejoin="round" stroke-width="2.111"/>
              <path id="Trazado_208581" data-name="Trazado 208581" d="M266.817,24.136a27.767,27.767,0,0,0-39.312.367" transform="translate(-24.376 -1.732)" fill="none" stroke="#173c7a" stroke-linecap="round" stroke-linejoin="round" stroke-width="2.111"/>
              <path id="Trazado_208582" data-name="Trazado 208582" d="M244.809,42.845a6.159,6.159,0,0,1,8.707-.08" transform="translate(-26.23 -4.393)" fill="none" stroke="#173c7a" stroke-linecap="round" stroke-linejoin="round" stroke-width="2.111"/>
              <path id="Trazado_208583" data-name="Trazado 208583" d="M258.021,36.656a13.468,13.468,0,0,0-19.067.178" transform="translate(-25.602 -3.513)" fill="none" stroke="#173c7a" stroke-linecap="round" stroke-linejoin="round" stroke-width="2.111"/>
              <path id="Trazado_208584" data-name="Trazado 208584" d="M253.516,42.763a6.158,6.158,0,0,0-8.707.081" transform="translate(-26.23 -4.393)" fill="none" stroke="#173c7a" stroke-linecap="round" stroke-linejoin="round" stroke-width="2.111"/>
            </g>
          </g>
          <g id="Grupo_146444" data-name="Grupo 146444" transform="translate(170.923 56.723)">
            <g id="Grupo_146443" data-name="Grupo 146443" clip-path="url(#clip-path-12)">
              <path id="Trazado_208585" data-name="Trazado 208585" d="M219.081,198.76a14.185,14.185,0,0,1-14.17-14.17V89.415a14.189,14.189,0,0,1,14.17-14.176h55.808a14.189,14.189,0,0,1,14.17,14.176v95.176a14.185,14.185,0,0,1-14.17,14.17Zm-10.186-14.17a10.2,10.2,0,0,0,10.186,10.186h55.808a10.2,10.2,0,0,0,10.186-10.186V152a74.863,74.863,0,0,1-76.179-.057Z" transform="translate(-192.878 -64.785)" fill="#1980c4"/>
              <path id="Trazado_208586" data-name="Trazado 208586" d="M274.77,76.115a13.177,13.177,0,0,1,13.173,13.179V184.47a13.172,13.172,0,0,1-13.173,13.174H218.961a13.172,13.172,0,0,1-13.174-13.174V89.294a13.177,13.177,0,0,1,13.174-13.179ZM218.961,195.652H274.77a11.2,11.2,0,0,0,11.181-11.182V150.11a73.85,73.85,0,0,1-78.172-.06V184.47a11.191,11.191,0,0,0,11.182,11.182M274.77,74.123H218.961a15.186,15.186,0,0,0-15.166,15.171V184.47a15.183,15.183,0,0,0,15.166,15.166H274.77a15.182,15.182,0,0,0,15.165-15.166V89.294A15.185,15.185,0,0,0,274.77,74.123M218.961,193.661a9.2,9.2,0,0,1-9.19-9.19v-30.92a75.877,75.877,0,0,0,74.188.054V184.47a9.2,9.2,0,0,1-9.189,9.19Z" transform="translate(-192.758 -64.665)" fill="#fff"/>
              <path id="Trazado_208587" data-name="Trazado 208587" d="M286.429,159.221v34.362a11.2,11.2,0,0,1-11.183,11.181H219.439a11.19,11.19,0,0,1-11.181-11.181V159.161a73.848,73.848,0,0,0,78.171.06" transform="translate(-193.237 -73.776)" fill="#fff"/>
              <rect id="Rectángulo_45963" data-name="Rectángulo 45963" width="1.785" height="9.409" transform="translate(28.551 107.263)" fill="#1980c4"/>
              <path id="Trazado_208588" data-name="Trazado 208588" d="M227.436,192.423l.4-1.453a7.068,7.068,0,0,0,1.163.463,4.059,4.059,0,0,0,1.189.2,2.444,2.444,0,0,0,1.26-.262.841.841,0,0,0,.429-.761.817.817,0,0,0-.339-.63,6.931,6.931,0,0,0-1.045-.671l-.416-.249q-.925-.553-1.472-.954a4.247,4.247,0,0,1-.941-.947,2.037,2.037,0,0,1-.395-1.225,2.261,2.261,0,0,1,.387-1.294,2.582,2.582,0,0,1,1.114-.9,4.24,4.24,0,0,1,1.737-.325,6.223,6.223,0,0,1,2.657.706l-.6,1.438a8.429,8.429,0,0,0-1.03-.429,3.187,3.187,0,0,0-1-.152,1.921,1.921,0,0,0-1.017.242.785.785,0,0,0-.395.712.849.849,0,0,0,.312.671,7.259,7.259,0,0,0,1.017.686l.444.249.4.234a15.252,15.252,0,0,1,1.3.824,3.185,3.185,0,0,1,.811.858,2.135,2.135,0,0,1,.324,1.183,2.271,2.271,0,0,1-.407,1.342,2.687,2.687,0,0,1-1.2.913,4.931,4.931,0,0,1-1.9.332,5.253,5.253,0,0,1-1.446-.256,5.673,5.673,0,0,1-1.335-.546" transform="translate(-195.274 -76.375)" fill="#1980c4"/>
              <path id="Trazado_208589" data-name="Trazado 208589" d="M240.044,183.416a4.65,4.65,0,0,1,2.477.643,4.191,4.191,0,0,1,1.6,1.752,5.525,5.525,0,0,1,.546,2.476,5.425,5.425,0,0,1-.581,2.553,4.324,4.324,0,0,1-1.624,1.744,4.79,4.79,0,0,1-2.416.657,4.619,4.619,0,0,1-2.47-.644,4.21,4.21,0,0,1-1.591-1.743,5.9,5.9,0,0,1,.028-5.017,4.307,4.307,0,0,1,1.626-1.756,4.755,4.755,0,0,1,2.407-.664M237.3,188.37a4.392,4.392,0,0,0,.332,1.751,2.7,2.7,0,0,0,.948,1.189,2.493,2.493,0,0,0,1.446.422,2.664,2.664,0,0,0,1.4-.38,2.6,2.6,0,0,0,1-1.163,4.456,4.456,0,0,0,.366-1.9,4.254,4.254,0,0,0-.333-1.729,2.728,2.728,0,0,0-.954-1.19,2.468,2.468,0,0,0-1.439-.429,2.421,2.421,0,0,0-1.376.421,2.968,2.968,0,0,0-1.011,1.2,4.062,4.062,0,0,0-.38,1.805" transform="translate(-196.149 -76.375)" fill="#1980c4"/>
              <path id="Trazado_208590" data-name="Trazado 208590" d="M255.04,185.651a3.026,3.026,0,0,1,1.266,1.245,4.079,4.079,0,0,1,.455,2,4.352,4.352,0,0,1-.844,2.663,6.2,6.2,0,0,1-2.089,1.806,7.107,7.107,0,0,1-2.463.816l-.248-1.48a5.955,5.955,0,0,0,3.487-2.048,3.147,3.147,0,0,1-1.384.319,3.108,3.108,0,0,1-1.549-.387,2.9,2.9,0,0,1-1.087-1.038,2.722,2.722,0,0,1-.394-1.44,2.853,2.853,0,0,1,.387-1.493,2.715,2.715,0,0,1,1.064-1.018,3.188,3.188,0,0,1,1.537-.367,3.96,3.96,0,0,1,1.862.423m-2.83,3.472a1.393,1.393,0,0,0,1.052.437,2.977,2.977,0,0,0,1.827-.568,2.592,2.592,0,0,0-.513-1.722,1.7,1.7,0,0,0-1.342-.561,1.448,1.448,0,0,0-1.023.387,1.242,1.242,0,0,0-.415.941,1.512,1.512,0,0,0,.415,1.087" transform="translate(-197.729 -76.569)" fill="#1980c4"/>
              <path id="Trazado_208591" data-name="Trazado 208591" d="M258.326,189.3a4.347,4.347,0,0,1,.5-2.089,3.684,3.684,0,0,1,1.376-1.452,4.012,4.012,0,0,1,3.957-.008,3.6,3.6,0,0,1,1.371,1.446,4.37,4.37,0,0,1,.49,2.075,4.523,4.523,0,0,1-.5,2.138,3.773,3.773,0,0,1-6.7.006,4.453,4.453,0,0,1-.5-2.117m1.646-.041a3.115,3.115,0,0,0,.285,1.349,2.249,2.249,0,0,0,.787.941,2,2,0,0,0,1.141.338,2.038,2.038,0,0,0,1.143-.332,2.247,2.247,0,0,0,.788-.913A3.171,3.171,0,0,0,264.11,188a2.276,2.276,0,0,0-.8-.921,2.123,2.123,0,0,0-2.269-.007,2.194,2.194,0,0,0-.787.893,2.82,2.82,0,0,0-.285,1.287" transform="translate(-198.601 -76.569)" fill="#1980c4"/>
              <path id="Trazado_208592" data-name="Trazado 208592" d="M267.717,189.3a4.347,4.347,0,0,1,.5-2.089,3.686,3.686,0,0,1,1.377-1.452,4.012,4.012,0,0,1,3.957-.008,3.6,3.6,0,0,1,1.37,1.446,4.37,4.37,0,0,1,.491,2.075,4.523,4.523,0,0,1-.5,2.138,3.775,3.775,0,0,1-6.7.006,4.453,4.453,0,0,1-.5-2.117m1.647-.041a3.115,3.115,0,0,0,.284,1.349,2.256,2.256,0,0,0,.787.941,2,2,0,0,0,1.142.338,2.035,2.035,0,0,0,1.142-.332,2.242,2.242,0,0,0,.789-.913,2.975,2.975,0,0,0,.282-1.314A2.94,2.94,0,0,0,273.5,188a2.281,2.281,0,0,0-.8-.921,2.124,2.124,0,0,0-2.27-.007,2.2,2.2,0,0,0-.787.893,2.82,2.82,0,0,0-.284,1.287" transform="translate(-199.607 -76.569)" fill="#1980c4"/>
              <path id="Trazado_208593" data-name="Trazado 208593" d="M279.131,193.262v-5.838l-1.578.608-.678-1.341,2.85-1.26h1.2v7.831Z" transform="translate(-200.589 -76.591)" fill="#1980c4"/>
              <path id="Trazado_208594" data-name="Trazado 208594" d="M251.28,116.189a6.342,6.342,0,1,1,6.348-6.338,6.349,6.349,0,0,1-6.348,6.338m.007-10.337a3.995,3.995,0,1,0,3.991,4,4,4,0,0,0-3.991-4" transform="translate(-197.167 -67.813)" fill="#fff"/>
              <path id="Trazado_208595" data-name="Trazado 208595" d="M238.292,119.436a15.318,15.318,0,0,1-1.278-18.262l-1.879-1.418a17.66,17.66,0,0,0,1.492,21.344Z" transform="translate(-195.806 -67.411)" fill="#fff"/>
              <path id="Trazado_208596" data-name="Trazado 208596" d="M237.153,97.356l1.664,1.665a15.424,15.424,0,0,1,1.659-1.662l-1.664-1.665a17.987,17.987,0,0,0-1.659,1.662" transform="translate(-196.332 -66.976)" fill="#fff"/>
              <path id="Trazado_208597" data-name="Trazado 208597" d="M250.935,90.759a17.609,17.609,0,0,0-9.724,2.913l1.414,1.88a15.351,15.351,0,0,1,18.881,1.776l2.052-1.27a17.555,17.555,0,0,0-12.623-5.3" transform="translate(-196.767 -66.447)" fill="#fff"/>
              <path id="Trazado_208598" data-name="Trazado 208598" d="M257.718,115.744a9.661,9.661,0,1,1-1.621-14.556l2.144-1.326a12.015,12.015,0,1,0,1.392,17.263Z" transform="translate(-196.491 -67.132)" fill="#fff"/>
              <path id="Trazado_208599" data-name="Trazado 208599" d="M259.235,124.776a15.33,15.33,0,0,1-18.558-1.117l-1.665,1.663a17.671,17.671,0,0,0,21.68,1.3Z" transform="translate(-196.532 -69.972)" fill="#fff"/>
              <path id="Trazado_208600" data-name="Trazado 208600" d="M267.188,98.687l-6.868,4.249a10.742,10.742,0,0,1,2.314,6.4,9.576,9.576,0,0,1-1.212,4.668l1.914,1.383a12,12,0,0,0,.237-11.7l2.865-1.773a15.372,15.372,0,0,1-3.075,18.733l1.458,1.848a17.668,17.668,0,0,0,5.87-13.151,18.373,18.373,0,0,0-3.5-10.656" transform="translate(-198.815 -67.297)" fill="#fff"/>
              <path id="Trazado_208601" data-name="Trazado 208601" d="M237.339,140.313a4.958,4.958,0,1,0,4.971,4.962,4.971,4.971,0,0,0-4.971-4.962m-.006,7.88a2.922,2.922,0,1,1,2.936-2.92,2.932,2.932,0,0,1-2.936,2.92" transform="translate(-195.819 -71.757)" fill="#fff"/>
              <path id="Trazado_208602" data-name="Trazado 208602" d="M219.018,149.623l-2.079,0,.006-8.471,2.078,0Zm-1.037-9.554a1.257,1.257,0,1,1,1.263-1.255,1.244,1.244,0,0,1-1.263,1.255" transform="translate(-194.143 -71.461)" fill="#fff"/>
              <path id="Trazado_208603" data-name="Trazado 208603" d="M250.346,140.286a4.974,4.974,0,0,0-4.979,4.955V150l2.193,0,0-4.917a2.779,2.779,0,0,1,5.558-.052l-.005,4.972h2.2l0-4.762a4.972,4.972,0,0,0-4.97-4.962" transform="translate(-197.213 -71.754)" fill="#fff"/>
              <path id="Trazado_208604" data-name="Trazado 208604" d="M263.366,148.144h0s-.324.025-.451.025c-.895,0-1.32-.225-1.319-1.49l0-4.848h1.854v-1.617h-1.848v-1.9h-2.194v1.9h-1.262v1.608l1.262,0,0,4.555a5.083,5.083,0,0,0,.467,2.386,2.534,2.534,0,0,0,2.418,1.264,6.162,6.162,0,0,0,1.072-.1Z" transform="translate(-198.582 -71.542)" fill="#fff"/>
              <path id="Trazado_208605" data-name="Trazado 208605" d="M226.45,150.242a4.982,4.982,0,1,1,3.639-8.4l-1.33,1.644a3.02,3.02,0,0,0-2.3-1.121,2.9,2.9,0,1,0,0,5.8,2.978,2.978,0,0,0,2.324-1.143l1.337,1.64a5.039,5.039,0,0,1-3.663,1.586" transform="translate(-194.651 -71.753)" fill="#fff"/>
              <path id="Trazado_208606" data-name="Trazado 208606" d="M282.754,150.242a4.982,4.982,0,1,1,3.639-8.4l-1.33,1.644a3.02,3.02,0,0,0-2.3-1.121,2.9,2.9,0,1,0,0,5.8,2.976,2.976,0,0,0,2.324-1.143l1.337,1.64a5.039,5.039,0,0,1-3.663,1.586" transform="translate(-200.683 -71.753)" fill="#fff"/>
              <path id="Trazado_208607" data-name="Trazado 208607" d="M270.272,140.231a5.01,5.01,0,0,0,.295,10.009,4.576,4.576,0,0,0,4.07-2.2l-1.5-1.124a2.965,2.965,0,0,1-2.533,1.354,2.652,2.652,0,0,1-2.844-2.434l7.087,0s.033-.458.033-.621c0-2.14-1.068-4.989-4.608-4.989m-2.43,3.991a2.4,2.4,0,0,1,2.446-2.094,2.252,2.252,0,0,1,2.377,2.1Z" transform="translate(-199.381 -71.748)" fill="#fff"/>
            </g>
          </g>
        </g>
      </g>
      <path id="Trazado_114434" data-name="Trazado 114434" d="M561.308,172.633c-1.945-2.691-4.085-5.53-7.22-6.621-3.6-1.253-7.766.241-10.418,2.983s-3.99,6.519-4.608,10.284c-2.438,14.84,6.445,30.783,20.347,36.52,5.346,2.206,11.634,2.943,16.825.393,8.373-4.113,11.013-15.882,4.557-22.863-2.291-2.479-5.9-3.5-8.409-5.806C568.016,183.508,564.774,177.427,561.308,172.633Z" transform="translate(7876.123 2317.609)" fill="url(#linear-gradient)"/>
      <ellipse id="Elipse_4925" data-name="Elipse 4925" cx="17.591" cy="17.591" rx="17.591" ry="17.591" transform="translate(8757.482 2249.599)" fill="url(#linear-gradient-2)"/>
      <ellipse id="Elipse_4926" data-name="Elipse 4926" cx="11.356" cy="11.356" rx="11.356" ry="11.356" transform="translate(8792.664 2284.782)" fill="url(#linear-gradient-2)"/>
    </g>
  </g>
</svg>
