<svg xmlns="http://www.w3.org/2000/svg" xmlns:xlink="http://www.w3.org/1999/xlink" width="198" height="198" viewBox="0 0 198 198">
  <defs>
    <filter id="Elipse_4972" x="0" y="0" width="198" height="198" filterUnits="userSpaceOnUse">
      <feOffset dy="3" input="SourceAlpha"/>
      <feGaussianBlur stdDeviation="3" result="blur"/>
      <feFlood flood-opacity="0.161"/>
      <feComposite operator="in" in2="blur"/>
      <feComposite in="SourceGraphic"/>
    </filter>
  </defs>
  <g id="Grupo_179254" data-name="Grupo 179254" transform="translate(-1116 -1745)">
    <g transform="matrix(1, 0, 0, 1, 1116, 1745)" filter="url(#Elipse_4972)">
      <circle id="Elipse_4972-2" data-name="Elipse 4972" cx="90" cy="90" r="90" transform="translate(9 6)" fill="#48a5f0"/>
    </g>
    <g id="investigar" transform="translate(1170 1797)">
      <path id="Trazado_268224" data-name="Trazado 268224" d="M106.828,101.2V28.541a1.514,1.514,0,0,0-1.514-1.514h-4.541V25.514A1.514,1.514,0,0,0,99.259,24H73.524a13.694,13.694,0,0,0-10.6,5.061A13.694,13.694,0,0,0,52.331,24H23.569a1.514,1.514,0,0,0-1.514,1.514v1.514H17.514A1.514,1.514,0,0,0,16,28.541V101.2a1.514,1.514,0,0,0,1.514,1.514H88.035l6.942,6.942a7.262,7.262,0,0,0,5.168,2.141,6.682,6.682,0,0,0,6.682-6.682,7.3,7.3,0,0,0-.537-2.759A1.51,1.51,0,0,0,106.828,101.2ZM103.8,30.055V99.063l-3.028-3.028V30.055ZM88.662,96.035l-4.876-4.876a22.891,22.891,0,0,0,2.4-2.4l4.876,4.876Zm-63.58-5.428h28.48a22.842,22.842,0,0,0,4.1,3.028H25.083ZM49.3,73.955A19.679,19.679,0,1,1,68.983,93.635,19.679,19.679,0,0,1,49.3,73.955Zm-8.651-17.03a9.041,9.041,0,0,1-1.577-.638,1.514,1.514,0,0,0-1.767.273l-1.629,1.63-2.4-2.4,1.63-1.629a1.514,1.514,0,0,0,.273-1.767,9.046,9.046,0,0,1-.638-1.577,1.514,1.514,0,0,0-1.451-1.082H31.138V46.707h1.955a1.514,1.514,0,0,0,1.451-1.082,9.046,9.046,0,0,1,.638-1.577,1.514,1.514,0,0,0-.273-1.767l-1.63-1.629,2.4-2.4,1.629,1.629a1.514,1.514,0,0,0,1.767.273,9.04,9.04,0,0,1,1.577-.638,1.514,1.514,0,0,0,1.082-1.451V36.11h3.028v1.955a1.514,1.514,0,0,0,1.082,1.451,9.04,9.04,0,0,1,1.577.638,1.514,1.514,0,0,0,1.767-.273l1.629-1.63,2.4,2.4-1.63,1.629a1.514,1.514,0,0,0-.273,1.767,9.047,9.047,0,0,1,.638,1.577A1.514,1.514,0,0,0,53.4,46.707h1.955v3.028H53.4a1.514,1.514,0,0,0-1.451,1.082,9.047,9.047,0,0,1-.638,1.577,1.514,1.514,0,0,0,.273,1.767l1.63,1.629-2.4,2.4-1.629-1.629a1.514,1.514,0,0,0-1.767-.273,9.04,9.04,0,0,1-1.577.638,1.514,1.514,0,0,0-1.082,1.451v1.955H41.735V58.376a1.514,1.514,0,0,0-1.082-1.451ZM81.341,93l.639.639H80.3Q80.831,93.329,81.341,93ZM93.647,91.05l-.443.443-.887-.887h5.428v2.4L95.788,91.05a1.514,1.514,0,0,0-2.141,0ZM73.524,27.028H97.745V87.579H89.289l-1.266-1.266a22.66,22.66,0,0,0-.886-25.982h3.039a1.514,1.514,0,0,0,0-3.028H84.4a22.842,22.842,0,0,0-4.1-3.028h9.875a1.514,1.514,0,0,0,0-3.028H68.983a22.721,22.721,0,0,0-4.541.457V32.074l.606-.807A10.647,10.647,0,0,1,73.524,27.028Zm-21.193,0a10.647,10.647,0,0,1,8.477,4.239l.606.807V52.548A22.635,22.635,0,0,0,56.6,54.93a1.516,1.516,0,0,0-.174-.21l-1.955-1.955v0h2.4a1.514,1.514,0,0,0,1.514-1.514V45.193a1.514,1.514,0,0,0-1.514-1.514h-2.4v0l1.955-1.955a1.514,1.514,0,0,0,0-2.141L51.889,35.04a1.514,1.514,0,0,0-2.141,0L47.792,37h0V34.6a1.514,1.514,0,0,0-1.514-1.514H40.221A1.514,1.514,0,0,0,38.707,34.6v2.4h0L36.75,35.04a1.514,1.514,0,0,0-2.141,0l-4.541,4.541a1.514,1.514,0,0,0,0,2.141l1.955,1.955v0h-2.4a1.514,1.514,0,0,0-1.514,1.514v6.055a1.514,1.514,0,0,0,1.514,1.514h2.4v0l-1.954,1.955a1.514,1.514,0,0,0,0,2.141L34.609,61.4a1.514,1.514,0,0,0,2.141,0L38.7,59.447h0v2.4a1.514,1.514,0,0,0,1.514,1.514h6.055a1.514,1.514,0,0,0,1.514-1.514v-2.4h0L49.747,61.4a1.524,1.524,0,0,0,.21.174,22.635,22.635,0,0,0-2.382,4.81H44.762a1.514,1.514,0,1,0,0,3.028h1.97a22.634,22.634,0,0,0-.4,3.028H41.735a1.514,1.514,0,0,0,0,3.028h4.593a22.635,22.635,0,0,0,.4,3.028h-5a1.514,1.514,0,0,0,0,3.028h5.84a22.683,22.683,0,0,0,3.255,6.055H25.083V27.028ZM19.028,99.69V30.055h3.028V95.148a1.514,1.514,0,0,0,1.514,1.514H85.008l1.514,1.514-.443.443a1.509,1.509,0,0,0-.443,1.07Zm83.7,8.012a3.63,3.63,0,0,1-2.584,1.07,4.254,4.254,0,0,1-3.028-1.254L89.289,99.69l5.428-5.428,7.829,7.829a4.254,4.254,0,0,1,1.254,3.028,3.631,3.631,0,0,1-1.07,2.584Z" transform="translate(-16 -24)" fill="#12263f"/>
      <path id="Trazado_268225" data-name="Trazado 268225" d="M81.514,263.138h6.055a1.514,1.514,0,0,0,1.514-1.514v-12.11A1.514,1.514,0,0,0,87.569,248H81.514A1.514,1.514,0,0,0,80,249.514v12.11A1.514,1.514,0,0,0,81.514,263.138Zm1.514-12.11h3.028v9.083H83.028Z" transform="translate(-67.89 -205.614)" fill="#12263f"/>
      <path id="Trazado_268226" data-name="Trazado 268226" d="M305.514,75.028h3.028a1.514,1.514,0,0,0,0-3.028h-3.028a1.514,1.514,0,0,0,0,3.028Z" transform="translate(-249.503 -62.917)" fill="#12263f"/>
      <path id="Trazado_268227" data-name="Trazado 268227" d="M353.514,75.028H362.6a1.514,1.514,0,1,0,0-3.028h-9.083a1.514,1.514,0,0,0,0,3.028Z" transform="translate(-288.42 -62.917)" fill="#12263f"/>
      <path id="Trazado_268228" data-name="Trazado 268228" d="M289.514,107.028h6.055a1.514,1.514,0,1,0,0-3.028h-6.055a1.514,1.514,0,0,0,0,3.028Z" transform="translate(-236.531 -88.862)" fill="#12263f"/>
      <path id="Trazado_268229" data-name="Trazado 268229" d="M289.514,139.028h6.055a1.514,1.514,0,1,0,0-3.028h-6.055a1.514,1.514,0,0,0,0,3.028Z" transform="translate(-236.531 -114.807)" fill="#12263f"/>
      <path id="Trazado_268230" data-name="Trazado 268230" d="M353.514,113.083H362.6a1.514,1.514,0,0,0,1.514-1.514v-6.055A1.514,1.514,0,0,0,362.6,104h-9.083A1.514,1.514,0,0,0,352,105.514v6.055A1.514,1.514,0,0,0,353.514,113.083Zm1.514-6.055h6.055v3.028h-6.055Z" transform="translate(-288.42 -88.862)" fill="#12263f"/>
      <path id="Trazado_268231" data-name="Trazado 268231" d="M224.652,200A16.652,16.652,0,1,0,241.3,216.652,16.652,16.652,0,0,0,224.652,200Zm0,30.276a13.624,13.624,0,1,1,13.624-13.624A13.624,13.624,0,0,1,224.652,230.276Z" transform="translate(-171.669 -166.696)" fill="#12263f"/>
      <path id="Trazado_268232" data-name="Trazado 268232" d="M140.11,126.055a6.055,6.055,0,1,0-6.055,6.055A6.055,6.055,0,0,0,140.11,126.055Zm-9.083,0a3.028,3.028,0,1,1,3.028,3.028,3.028,3.028,0,0,1-3.028-3.028Z" transform="translate(-106.807 -101.834)" fill="#12263f"/>
    </g>
  </g>
</svg>
