<svg xmlns="http://www.w3.org/2000/svg" xmlns:xlink="http://www.w3.org/1999/xlink" width="432" height="418" viewBox="0 0 432 418">
  <defs>
    <filter id="Elipse_4970" x="101" y="42" width="198" height="198" filterUnits="userSpaceOnUse">
      <feOffset dy="3" input="SourceAlpha"/>
      <feGaussianBlur stdDeviation="3" result="blur"/>
      <feFlood flood-opacity="0.161"/>
      <feComposite operator="in" in2="blur"/>
      <feComposite in="SourceGraphic"/>
    </filter>
    <clipPath id="clip-path">
      <rect id="Rectángulo_45976" data-name="Rectángulo 45976" width="104.895" height="103.797" fill="none"/>
    </clipPath>
  </defs>
  <g id="Grupo_179289" data-name="Grupo 179289" transform="translate(-600 -545)">
    <rect id="Rectángulo_294546" data-name="Rectángulo 294546" width="400" height="418" rx="20" transform="translate(600 545)" fill="#cfbdb0" opacity="0.35"/>
    <g transform="matrix(1, 0, 0, 1, 600, 545)" filter="url(#Elipse_4970)">
      <circle id="Elipse_4970-2" data-name="Elipse 4970" cx="90" cy="90" r="90" transform="translate(110 48)" fill="#fff"/>
    </g>
    <text id="What_do_you_mean_by" data-name="What do you mean by" transform="translate(800 831)" fill="#12263f" font-size="20" font-family="Roboto-Bold, Roboto" font-weight="700"><tspan x="-68.472" y="0">Segundo grupo</tspan></text>
    <g id="Grupo_146457" data-name="Grupo 146457" transform="translate(748 631)">
      <g id="Grupo_146456" data-name="Grupo 146456" clip-path="url(#clip-path)">
        <path id="Trazado_208631" data-name="Trazado 208631" d="M46.834,59.026a5.171,5.171,0,0,0-.09.92V84.117H58.28V59.946a4.827,4.827,0,0,0-.089-.92A15.3,15.3,0,0,0,58.6,30.79V44.824H46.419V30.79a15.3,15.3,0,0,0,.415,28.236" fill="#fff"/>
        <path id="Trazado_208632" data-name="Trazado 208632" d="M59.585,85.422H45.44V59.947c0-.035,0-.07,0-.1A16.6,16.6,0,0,1,45.9,29.595l1.824-.793V43.52H57.3V28.8l1.825.793a16.6,16.6,0,0,1,.459,30.248c0,.034,0,.069,0,.1ZM48.049,82.813h8.927V59.947a3.439,3.439,0,0,0-.066-.672L56.7,58.216l1-.4a13.994,13.994,0,0,0,2.2-24.87V46.129H45.115V32.945a13.993,13.993,0,0,0,2.2,24.87l.988.4-.189,1.048a3.756,3.756,0,0,0-.069.689Z"/>
        <path id="Trazado_208633" data-name="Trazado 208633" d="M54.292,84.117V62.822a1.881,1.881,0,0,0-3.687,0V84.117Z" fill="#fff"/>
        <path id="Trazado_208634" data-name="Trazado 208634" d="M55.6,85.422H49.3v-22.6a3.168,3.168,0,0,1,6.3,0ZM51.91,82.813h1.078V62.823a.684.684,0,0,0-.539-.2.641.641,0,0,0-.541.218Z"/>
        <path id="Trazado_208635" data-name="Trazado 208635" d="M52.6,57.83l-.307,0,.063-2.609a9.9,9.9,0,0,0,10.124-9.661l2.608.063A12.5,12.5,0,0,1,52.6,57.83"/>
        <path id="Trazado_208636" data-name="Trazado 208636" d="M94.966,52.436c0-1.291-.069-2.566-.181-3.827L103.3,46.38,99.482,31.8,90.8,34.064a42.588,42.588,0,0,0-7.04-10.388l5.57-7.22L77.394,7.242l-5.643,7.312A42.131,42.131,0,0,0,59.987,10.6V1.3H44.909V10.6a42.125,42.125,0,0,0-11.217,3.679L28.155,6.883,16.082,15.925l5.478,7.308a42.455,42.455,0,0,0-5.515,7.227l-8.47-3.12L2.364,41.49l8.307,3.06a42.51,42.51,0,0,0-.743,7.886c0,.931.042,1.853.1,2.772l-8.435,2.2L5.413,72l8.247-2.162A42.541,42.541,0,0,0,20.693,80.7l-5.129,6.643L27.5,96.555l5.051-6.542a42.259,42.259,0,0,0,12.358,4.256v8.223H59.987V94.269a42.2,42.2,0,0,0,11.8-3.972l4.954,6.616,12.07-9.04-5.026-6.71a42.605,42.605,0,0,0,5.574-7.639l7.963,2.929,5.21-14.147L94.4,59.312a42.943,42.943,0,0,0,.561-6.876M52.449,80.85A28.952,28.952,0,1,1,81.4,51.9,28.954,28.954,0,0,1,52.449,80.85" fill="#9fe3ad"/>
        <path id="Trazado_208637" data-name="Trazado 208637" d="M61.291,103.8H43.6V95.348A43.555,43.555,0,0,1,32.921,91.67l-5.185,6.715-14-10.81,5.273-6.83a43.8,43.8,0,0,1-6.07-9.363L4.481,73.6,0,56.482l8.667-2.266c-.03-.651-.044-1.224-.044-1.779A43.91,43.91,0,0,1,9.2,45.4L.689,42.265,6.8,25.665l8.7,3.2a43.954,43.954,0,0,1,4.367-5.723l-5.61-7.482L28.417,5.058,34.1,12.639A43.5,43.5,0,0,1,43.6,9.519V0H61.291V9.519a43.465,43.465,0,0,1,10.081,3.392l5.786-7.5,14,10.808-5.7,7.394A43.837,43.837,0,0,1,91.5,32.534l8.917-2.33,4.481,17.108L96.171,49.6c.067.99.1,1.927.1,2.841a44.148,44.148,0,0,1-.419,6.019l8.355,3.078L98.094,78.127l-8.165-3a43.95,43.95,0,0,1-4.46,6.112l5.167,6.9L76.478,98.74l-5.086-6.791a43.511,43.511,0,0,1-10.1,3.4Zm-15.077-2.609H58.682v-8.01l1.075-.192a40.9,40.9,0,0,0,11.435-3.85l.979-.5L77,95.087l9.982-7.476-4.893-6.532.732-.8a41.2,41.2,0,0,0,5.4-7.4l.548-.957,7.774,2.86,4.31-11.7-7.911-2.914.171-1.062a41.839,41.839,0,0,0,.544-6.667c0-1.167-.057-2.381-.175-3.711l-.1-1.1,8.323-2.178L98.551,33.388,90.089,35.6l-.466-.971A41.222,41.222,0,0,0,82.8,24.56l-.744-.81L87.5,16.692,77.63,9.073l-5.508,7.136-.964-.493a40.872,40.872,0,0,0-11.4-3.835l-1.075-.192V2.609H46.214v9.08l-1.076.192a40.934,40.934,0,0,0-10.87,3.566l-.971.478-5.4-7.215-9.985,7.477,5.356,7.144-.756.8a41.193,41.193,0,0,0-5.347,7.005l-.557.922L8.348,29.016l-4.309,11.7,8.119,2.99-.2,1.084a41.4,41.4,0,0,0-.72,7.645c0,.784.029,1.614.1,2.69L11.4,56.2,3.185,58.346l3.16,12.067L14.4,68.3l.452,1.006a41.194,41.194,0,0,0,6.818,10.519l.72.809L17.394,87.1l9.871,7.622,4.925-6.38.971.515a40.978,40.978,0,0,0,11.977,4.125l1.076.192Zm6.235-19.033A30.257,30.257,0,1,1,82.7,51.9,30.292,30.292,0,0,1,52.449,82.155m0-57.9A27.648,27.648,0,1,0,80.094,51.9,27.68,27.68,0,0,0,52.449,24.25"/>
      </g>
    </g>
    <text id="Preparación_del_espacio_de_trabajo." data-name="Preparación del espacio de trabajo." transform="translate(801 872)" fill="#12263f" font-size="16" font-family="Roboto-Regular, Roboto"><tspan x="-96.117" y="17">Preparación del espacio de </tspan><tspan x="-26.934" y="41">trabajo.</tspan></text>
  </g>
</svg>
