<svg xmlns="http://www.w3.org/2000/svg" width="190" height="100.3" viewBox="0 0 190 100.3">
  <g id="Grupo_179287" data-name="Grupo 179287" transform="translate(-180 -397)">
    <g id="Grupo_179208" data-name="Grupo 179208" transform="translate(0 -713.7)">
      <g id="Grupo_179114" data-name="Grupo 179114" transform="translate(-25 -72)">
        <g id="Grupo_179113" data-name="Grupo 179113" transform="translate(25 -299)">
          <path id="Trazado_113723" data-name="Trazado 113723" d="M-72.06,10.548c-4.477.05-6.13,3.173-2.337,4.452,6.3,2.121,12.513,4.55,18.547,7.263A177.319,177.319,0,0,1-32.831,34.648c5.278,3.394,15.486,2.36,18.155-1.823,2.056-3.221,2.858-6.957-.234-10.426-1.934-2.169-5.253-3.9-9.238-5C-45.161,11.608-61.544,10.43-72.06,10.548Z" transform="translate(382.855 1471.46)" fill="#a2e6b0" opacity="0.2"/>
          <path id="blob" d="M14.578,76.777C1.92,55.917,14.714,27.111,42.343,16.268,69.976,5.341,112.305,12.46,146.059,27.277s58.933,37.249,50.495,54.548c-8.44,17.383-50.5,29.551-90.783,29.137C65.62,110.548,27.239,97.636,14.578,76.777Z" transform="translate(170.321 1471.027)" fill="#a2e6b0" opacity="0.2"/>
        </g>
      </g>
      <g id="_031---Laser-Cutting" data-name="031---Laser-Cutting" transform="translate(227 1110.701)">
        <g id="Icons" transform="translate(1.659 1.672)">
          <path id="Shape" d="M27.746,25.625V42.341a1.672,1.672,0,0,1-1.672,1.672H2.672a1.672,1.672,0,0,1-1.07-.384,1.672,1.672,0,0,1-.6-.9C2.237,23.953,14.808,24.705,26.66,24.07a1.922,1.922,0,0,1,.585.368,1.672,1.672,0,0,1,.5,1.187Z" transform="translate(-0.987 16.166)" fill="#84b5cb"/>
          <path id="Shape-2" data-name="Shape" d="M18.373,35V71.776A1.672,1.672,0,0,1,16.7,73.448H6.672A1.672,1.672,0,0,1,5,71.776V35Z" transform="translate(1.7 23.507)" fill="#cfbdb0"/>
          <path id="Rectangle-path" d="M41,11H51.03V24.373H41Z" transform="translate(25.879 7.388)" fill="#48a5f0"/>
          <path id="Rectangle-path-2" data-name="Rectangle-path" d="M41,11h5.015V24.373H41Z" transform="translate(25.879 7.388)" fill="#48a5f0"/>
          <path id="Shape-3" data-name="Shape" d="M62.746,46.373H36V33h6.687l6.687,5.015L56.06,33h6.687Z" transform="translate(22.52 22.164)" fill="#cfbdb0"/>
          <path id="Rectangle-path-3" data-name="Rectangle-path" d="M49,33h5.015V46.373H49Z" transform="translate(31.252 22.164)" fill="#cfbdb0"/>
          <path id="Shape-4" data-name="Shape" d="M30.358,3.343V70.209H22V3.343A3.343,3.343,0,0,1,25.343,0h1.672A3.343,3.343,0,0,1,30.358,3.343Z" transform="translate(13.117)" fill="#cfbdb0"/>
          <path id="Shape-5" data-name="Shape" d="M80.522,42.672V67.746a1.672,1.672,0,0,1-1.672,1.672H66.163a1.672,1.672,0,0,1-1.17-.485l-4.045-4.045a1.672,1.672,0,0,0-1.17-.485H37.745a1.672,1.672,0,0,0-1.17.485L32.53,68.933a1.672,1.672,0,0,1-1.17.485H18.672A1.672,1.672,0,0,1,17,67.746V42.672A1.672,1.672,0,0,1,18.672,41H78.851A1.672,1.672,0,0,1,80.522,42.672Z" transform="translate(9.759 27.537)" fill="#a2e6b0"/>
          <path id="Shape-6" data-name="Shape" d="M56.015,41H51a1.672,1.672,0,0,1,1.672,1.672V67.746A1.672,1.672,0,0,1,51,69.418h5.015a1.672,1.672,0,0,0,1.672-1.672V42.672A1.672,1.672,0,0,0,56.015,41Z" transform="translate(32.595 27.537)" fill="#a2e6b0"/>
          <rect id="Rectangle-path-4" data-name="Rectangle-path" width="60.179" height="8.358" rx="2" transform="translate(25.088 10.03)" fill="#3d5075"/>
          <rect id="Rectangle-path-5" data-name="Rectangle-path" width="55.164" height="8.358" rx="2" transform="translate(25.088 10.03)" fill="#3d5075"/>
          <g id="Grupo_179209" data-name="Grupo 179209" transform="translate(0 31.761)">
            <path id="Shape-7" data-name="Shape" d="M51.03,19,46.015,29.03,41,19Z" transform="translate(25.879 -19)" fill="#48a5f0"/>
            <path id="Shape-8" data-name="Shape" d="M27.751,25.672V42.388A1.672,1.672,0,0,1,26.08,44.06H2.677a1.672,1.672,0,0,1-1.07-.384,1.672,1.672,0,0,1-.6-.9,1.421,1.421,0,0,1,0-.384V25.672A1.672,1.672,0,0,1,2.677,24h23.4a1.4,1.4,0,0,1,.585.117,1.922,1.922,0,0,1,.585.368,1.672,1.672,0,0,1,.5,1.187Z" transform="translate(-0.992 -15.642)" fill="#48a5f0"/>
          </g>
        </g>
        <g id="Layer_10" transform="translate(0 -0.001)">
          <path id="Shape-9" data-name="Shape" d="M73.507,11.03H65.149A16.616,16.616,0,0,0,64,5.28,6.436,6.436,0,0,0,57.794,1c-3.343.134-5.951,2.324-8.241,4.246A21.564,21.564,0,0,1,36.731,10.88V6.016A5.015,5.015,0,0,0,31.716,1H30.045A5.015,5.015,0,0,0,25.03,6.016V11.03H20.015A5.015,5.015,0,0,0,15,16.045v1.672a5.015,5.015,0,0,0,5.015,5.015H25.03V69.538H20.015a3.343,3.343,0,0,0-3.343,3.343V97.956a3.343,3.343,0,0,0,3.343,3.343H32.7a3.343,3.343,0,0,0,2.357-.986l4.029-4.029H61.121l4.029,4.029a3.343,3.343,0,0,0,2.357.986H80.194a3.343,3.343,0,0,0,3.343-3.343V72.881a3.343,3.343,0,0,0-3.343-3.343H78.522v-11.7a1.672,1.672,0,0,0-1.672-1.672H70.164c-.752,0-.418-.1-6.687,4.6-5.884-4.413-5.9-4.6-6.687-4.6H50.1a1.672,1.672,0,0,0-1.672,1.672v11.7h-11.7V22.732h20.06v10.03a1.672,1.672,0,0,0,0,3.343h.635l4.38,8.759v11.3a1.672,1.672,0,1,0,3.343,0v-11.3l4.38-8.759h.635a1.672,1.672,0,0,0,0-3.343V22.732h3.343a5.015,5.015,0,0,0,5.015-5.015V16.045A5.015,5.015,0,0,0,73.507,11.03ZM57.928,4.344c2.892-.167,3.678,3.795,3.828,6.687H47.229c4.647-2.624,7.121-6.553,10.7-6.687ZM28.373,6.016a1.672,1.672,0,0,1,1.672-1.672h1.672a1.672,1.672,0,0,1,1.672,1.672V11.03H28.373Zm51.821,91.94H67.506l-4.029-4.029a3.343,3.343,0,0,0-2.357-.986H39.088a3.343,3.343,0,0,0-2.357.986L32.7,97.956H20.015V72.881H80.194ZM51.776,59.508h4.463l6.235,4.681a1.672,1.672,0,0,0,2.006,0l6.235-4.681h4.463v10.03h-23.4ZM33.388,69.538H28.373V22.732h5.015ZM63.478,40.719l-2.307-4.614h4.614Zm3.343-7.957H60.134V22.732h6.687Zm8.358-15.045a1.672,1.672,0,0,1-1.672,1.672H20.015a1.672,1.672,0,0,1-1.672-1.672V16.045a1.672,1.672,0,0,1,1.672-1.672H73.507a1.672,1.672,0,0,1,1.672,1.672Z" transform="translate(10.075 -0.999)"/>
          <path id="Shape-10" data-name="Shape" d="M31.489,24.489a1.672,1.672,0,0,0,0,2.374l10.03,10.03a1.678,1.678,0,0,0,2.374-2.374l-10.03-10.03a1.672,1.672,0,0,0-2.374,0Z" transform="translate(20.817 14.445)"/>
          <path id="Shape-11" data-name="Shape" d="M50.676,37.376a1.672,1.672,0,0,0,1.187-.485l10.03-10.03a1.678,1.678,0,0,0-2.374-2.374l-10.03,10.03a1.672,1.672,0,0,0,1.187,2.858Z" transform="translate(32.906 14.446)"/>
          <path id="Shape-12" data-name="Shape" d="M42.574,32.533a1.672,1.672,0,0,0,.585-2.29l-5.015-8.358a1.672,1.672,0,1,0-2.875,1.672l5.015,8.358a1.672,1.672,0,0,0,2.29.619Z" transform="translate(23.473 12.368)"/>
          <path id="Shape-13" data-name="Shape" d="M51.144,31.816l5.015-8.358a1.672,1.672,0,0,0-2.875-1.672l-5.015,8.358a1.672,1.672,0,1,0,2.875,1.672Z" transform="translate(32.204 12.5)"/>
          <path id="Shape-14" data-name="Shape" d="M53.687,46H48.672a1.672,1.672,0,1,0,0,3.343h5.015a1.672,1.672,0,0,0,0-3.343Z" transform="translate(31.567 29.225)"/>
          <path id="Shape-15" data-name="Shape" d="M53.687,50H48.672a1.672,1.672,0,1,0,0,3.343h5.015a1.672,1.672,0,1,0,0-3.343Z" transform="translate(31.567 31.912)"/>
          <path id="Shape-16" data-name="Shape" d="M3.343,48.4H6.687V81.836a3.343,3.343,0,0,0,3.343,3.343H20.06A3.343,3.343,0,0,0,23.4,81.836V48.4h3.343a3.343,3.343,0,0,0,3.343-3.343V28.343A3.343,3.343,0,0,0,26.746,25H3.343A3.343,3.343,0,0,0,0,28.343V45.06A3.343,3.343,0,0,0,3.343,48.4ZM20.06,81.836H10.03V48.4H20.06ZM3.343,28.343h23.4V45.06H3.343Z" transform="translate(0 15.121)"/>
          <path id="Shape-17" data-name="Shape" d="M10.672,32.343h3.343a1.672,1.672,0,0,0,0-3.343H10.672a1.672,1.672,0,1,0,0,3.343Z" transform="translate(6.045 17.807)"/>
          <path id="Shape-18" data-name="Shape" d="M10.672,36.343h3.343a1.672,1.672,0,0,0,0-3.343H10.672a1.672,1.672,0,1,0,0,3.343Z" transform="translate(6.045 20.494)"/>
          <path id="Shape-19" data-name="Shape" d="M5.726,32.081a1.319,1.319,0,1,1,.033-.05Z" transform="translate(3.368 17.786)"/>
          <path id="Shape-20" data-name="Shape" d="M5.736,36.058A1.672,1.672,0,1,0,5,34.671a1.672,1.672,0,0,0,.736,1.387Z" transform="translate(3.358 20.495)"/>
          <path id="Shape-21" data-name="Shape" d="M23.343,46H21.672a1.672,1.672,0,0,0,0,3.343h1.672a1.672,1.672,0,0,0,0-3.343Z" transform="translate(13.433 29.225)"/>
          <path id="Shape-22" data-name="Shape" d="M40.045,46H26.672a1.672,1.672,0,0,0,0,3.343H40.045a1.672,1.672,0,0,0,0-3.343Z" transform="translate(16.791 29.225)"/>
        </g>
      </g>
    </g>
  </g>
</svg>
