<svg xmlns="http://www.w3.org/2000/svg" xmlns:xlink="http://www.w3.org/1999/xlink" width="185" height="186" viewBox="0 0 185 186">
  <defs>
    <clipPath id="clip-path">
      <rect id="Rectángulo_46086" data-name="Rectángulo 46086" width="120.499" height="88.013" transform="translate(0 0)" fill="none"/>
    </clipPath>
  </defs>
  <g id="Grupo_179280" data-name="Grupo 179280" transform="translate(-1023 -1044)">
    <ellipse id="Elipse_154" data-name="Elipse 154" cx="82.5" cy="83" rx="82.5" ry="83" transform="translate(1033 1054)" fill="#fff"/>
    <g id="Elipse_157" data-name="Elipse 157" transform="translate(1033 1054)" fill="none" stroke="#a2e6b0" stroke-linejoin="round" stroke-width="10">
      <ellipse cx="82.5" cy="83" rx="82.5" ry="83" stroke="none"/>
      <ellipse cx="82.5" cy="83" rx="87.5" ry="88" fill="none"/>
    </g>
    <g id="Grupo_146553" data-name="Grupo 146553" transform="translate(1050.25 1087)">
      <path id="Trazado_208929" data-name="Trazado 208929" d="M3.15,86.709H86.709V3.15ZM71.079,71.178H40L71.079,40.1Z" fill="#9fe3ad"/>
      <path id="Trazado_208930" data-name="Trazado 208930" d="M69.775,43.244V69.872H43.147ZM36.848,72.482H72.384V36.945ZM85.4,6.3V85.4H6.3ZM88.013,0,0,88.013H88.013Z"/>
      <path id="Trazado_208931" data-name="Trazado 208931" d="M13.387,86.709v0Z" fill="#5ec9f2"/>
      <rect id="Rectángulo_46060" data-name="Rectángulo 46060" width="2.609" height="4.34" transform="translate(12.083 82.368)"/>
      <path id="Trazado_208932" data-name="Trazado 208932" d="M18.65,86.709v0Z" fill="#5ec9f2"/>
      <rect id="Rectángulo_46061" data-name="Rectángulo 46061" width="2.609" height="4.34" transform="translate(17.346 82.368)"/>
      <path id="Trazado_208933" data-name="Trazado 208933" d="M23.915,86.709v0Z" fill="#5ec9f2"/>
      <rect id="Rectángulo_46062" data-name="Rectángulo 46062" width="2.609" height="4.34" transform="translate(22.611 82.368)"/>
      <path id="Trazado_208934" data-name="Trazado 208934" d="M29.177,86.709v0Z" fill="#5ec9f2"/>
      <rect id="Rectángulo_46063" data-name="Rectángulo 46063" width="2.609" height="4.34" transform="translate(27.873 82.368)"/>
      <path id="Trazado_208935" data-name="Trazado 208935" d="M34.443,86.709v0Z" fill="#5ec9f2"/>
      <rect id="Rectángulo_46064" data-name="Rectángulo 46064" width="2.609" height="4.34" transform="translate(33.139 82.368)"/>
      <path id="Trazado_208936" data-name="Trazado 208936" d="M39.705,86.709v0Z" fill="#5ec9f2"/>
      <rect id="Rectángulo_46065" data-name="Rectángulo 46065" width="2.609" height="4.34" transform="translate(38.401 82.368)"/>
      <path id="Trazado_208937" data-name="Trazado 208937" d="M44.968,86.709v0Z" fill="#5ec9f2"/>
      <rect id="Rectángulo_46066" data-name="Rectángulo 46066" width="2.609" height="4.34" transform="translate(43.663 82.368)"/>
      <path id="Trazado_208938" data-name="Trazado 208938" d="M50.234,86.709v0Z" fill="#5ec9f2"/>
      <rect id="Rectángulo_46067" data-name="Rectángulo 46067" width="2.609" height="4.34" transform="translate(48.93 82.368)"/>
      <path id="Trazado_208939" data-name="Trazado 208939" d="M55.5,86.709v0Z" fill="#5ec9f2"/>
      <rect id="Rectángulo_46068" data-name="Rectángulo 46068" width="2.609" height="4.34" transform="translate(54.192 82.368)"/>
      <path id="Trazado_208940" data-name="Trazado 208940" d="M60.763,86.709v0Z" fill="#5ec9f2"/>
      <rect id="Rectángulo_46069" data-name="Rectángulo 46069" width="2.609" height="4.34" transform="translate(59.458 82.368)"/>
      <path id="Trazado_208941" data-name="Trazado 208941" d="M66.025,86.709v0Z" fill="#5ec9f2"/>
      <rect id="Rectángulo_46070" data-name="Rectángulo 46070" width="2.609" height="4.34" transform="translate(64.721 82.368)"/>
      <path id="Trazado_208942" data-name="Trazado 208942" d="M71.29,86.709v0Z" fill="#5ec9f2"/>
      <rect id="Rectángulo_46071" data-name="Rectángulo 46071" width="2.609" height="4.34" transform="translate(69.986 82.368)"/>
      <path id="Trazado_208943" data-name="Trazado 208943" d="M76.554,86.709v0Z" fill="#5ec9f2"/>
      <rect id="Rectángulo_46072" data-name="Rectángulo 46072" width="2.609" height="4.34" transform="translate(75.249 82.368)"/>
      <path id="Trazado_208944" data-name="Trazado 208944" d="M81.819,86.709v0Z" fill="#5ec9f2"/>
      <rect id="Rectángulo_46073" data-name="Rectángulo 46073" width="2.609" height="4.34" transform="translate(80.515 82.368)"/>
      <g id="Grupo_146552" data-name="Grupo 146552">
        <g id="Grupo_146551" data-name="Grupo 146551" clip-path="url(#clip-path)">
          <path id="Rectángulo_46074" data-name="Rectángulo 46074" d="M2.892,0h33.39a2.891,2.891,0,0,1,2.891,2.891V52.784a2.894,2.894,0,0,1-2.894,2.894H2.894A2.894,2.894,0,0,1,0,52.784V2.892A2.892,2.892,0,0,1,2.892,0Z" transform="translate(80.021 17.38)" fill="#fff"/>
          <path id="Trazado_208945" data-name="Trazado 208945" d="M116.3,74.364H82.912a4.2,4.2,0,0,1-4.2-4.2V20.275a4.2,4.2,0,0,1,4.2-4.2H116.3a4.2,4.2,0,0,1,4.2,4.2V70.167a4.2,4.2,0,0,1-4.2,4.2M82.912,18.686a1.59,1.59,0,0,0-1.587,1.589V70.167a1.589,1.589,0,0,0,1.587,1.587H116.3a1.589,1.589,0,0,0,1.587-1.587V20.275a1.59,1.59,0,0,0-1.587-1.589Z"/>
          <rect id="Rectángulo_46075" data-name="Rectángulo 46075" width="30.303" height="6.733" transform="translate(84.454 24.081)" fill="#9fe3ad"/>
          <path id="Trazado_208946" data-name="Trazado 208946" d="M116.062,32.119H83.149V22.776h32.913Zm-30.3-2.609h27.694V25.386H85.758Z"/>
          <rect id="Rectángulo_46076" data-name="Rectángulo 46076" width="5.735" height="5.735" transform="translate(87.246 36.621)" fill="#5ec9f2"/>
          <path id="Trazado_208947" data-name="Trazado 208947" d="M94.286,43.66H85.942V35.316h8.344Zm-5.735-2.609h3.125V37.926H88.551Z"/>
          <rect id="Rectángulo_46077" data-name="Rectángulo 46077" width="5.735" height="5.735" transform="translate(96.739 36.621)" fill="#5ec9f2"/>
          <path id="Trazado_208948" data-name="Trazado 208948" d="M103.779,43.66H95.434V35.316h8.345Zm-5.735-2.609h3.126V37.926H98.044Z"/>
          <rect id="Rectángulo_46078" data-name="Rectángulo 46078" width="5.735" height="5.735" transform="translate(106.233 36.621)" fill="#5ec9f2"/>
          <path id="Trazado_208949" data-name="Trazado 208949" d="M113.272,43.66h-8.345V35.316h8.345Zm-5.735-2.609h3.126V37.926h-3.126Z"/>
          <rect id="Rectángulo_46079" data-name="Rectángulo 46079" width="5.735" height="5.732" transform="translate(87.246 46.261)" fill="#5ec9f2"/>
          <path id="Trazado_208950" data-name="Trazado 208950" d="M94.286,53.3H85.942V44.956h8.344Zm-5.735-2.61h3.125V47.565H88.551Z"/>
          <rect id="Rectángulo_46080" data-name="Rectángulo 46080" width="5.735" height="5.732" transform="translate(96.739 46.261)" fill="#5ec9f2"/>
          <path id="Trazado_208951" data-name="Trazado 208951" d="M103.779,53.3H95.434V44.956h8.345Zm-5.735-2.61h3.126V47.565H98.044Z"/>
          <rect id="Rectángulo_46081" data-name="Rectángulo 46081" width="5.735" height="5.732" transform="translate(106.233 46.261)" fill="#5ec9f2"/>
          <path id="Trazado_208952" data-name="Trazado 208952" d="M113.272,53.3h-8.345V44.956h8.345Zm-5.735-2.61h3.126V47.565h-3.126Z"/>
          <rect id="Rectángulo_46082" data-name="Rectángulo 46082" width="5.735" height="5.735" transform="translate(87.246 55.902)" fill="#5ec9f2"/>
          <path id="Trazado_208953" data-name="Trazado 208953" d="M94.286,62.942H85.942V54.6h8.344Zm-5.735-2.61h3.125V57.206H88.551Z"/>
          <rect id="Rectángulo_46083" data-name="Rectángulo 46083" width="5.735" height="5.735" transform="translate(96.739 55.902)" fill="#5ec9f2"/>
          <path id="Trazado_208954" data-name="Trazado 208954" d="M103.779,62.942H95.434V54.6h8.345Zm-5.735-2.61h3.126V57.206H98.044Z"/>
          <rect id="Rectángulo_46084" data-name="Rectángulo 46084" width="5.735" height="5.735" transform="translate(106.233 55.902)" fill="#5ec9f2"/>
          <path id="Trazado_208955" data-name="Trazado 208955" d="M113.272,62.942h-8.345V54.6h8.345Zm-5.735-2.61h3.126V57.206h-3.126Z"/>
          <path id="Trazado_208956" data-name="Trazado 208956" d="M112.64,70.919h-9.568V68.31h9.568a1.591,1.591,0,0,0,1.59-1.589V60.573h2.61v6.148a4.2,4.2,0,0,1-4.2,4.2"/>
          <rect id="Rectángulo_46085" data-name="Rectángulo 46085" width="57.403" height="7.6" transform="translate(7.783 57.894) rotate(-45.021)" fill="#5ec9f2"/>
          <path id="Trazado_208957" data-name="Trazado 208957" d="M13.152,64.563a1.3,1.3,0,0,1-.922-.382L6.854,58.809a1.3,1.3,0,0,1,0-1.845L47.445,16.372a1.3,1.3,0,0,1,1.845,0l5.372,5.376a1.3,1.3,0,0,1,0,1.844L14.074,64.181a1.3,1.3,0,0,1-.922.382M9.621,57.886l3.53,3.528L51.894,22.67l-3.527-3.53Z"/>
          <path id="Trazado_208958" data-name="Trazado 208958" d="M53.738,23.976h0a1.31,1.31,0,0,1-.923-.383l-5.371-5.376a1.3,1.3,0,0,1,0-1.844l2.847-2.849a1.345,1.345,0,0,1,1.845,0L57.512,18.9a1.3,1.3,0,0,1,0,1.845l-2.851,2.85a1.309,1.309,0,0,1-.923.382M50.211,17.3l3.528,3.531,1.005-1.005-3.53-3.529Z"/>
          <path id="Trazado_208959" data-name="Trazado 208959" d="M56.59,21.126a1.305,1.305,0,0,1-.922-.383l-5.376-5.374a1.3,1.3,0,0,1,0-1.845l1.55-1.548a5.1,5.1,0,1,1,7.216,7.22l-1.544,1.546a1.307,1.307,0,0,1-.923.384Zm-3.53-6.679,3.529,3.528.623-.623a2.5,2.5,0,1,0-3.527-3.53Z"/>
          <path id="Trazado_208960" data-name="Trazado 208960" d="M4.03,68.308a1.305,1.305,0,0,1-1.207-1.8l3.746-9.117A1.3,1.3,0,0,1,8.7,56.964l5.376,5.372a1.3,1.3,0,0,1-.426,2.129L4.526,68.21a1.3,1.3,0,0,1-.5.1m4.208-8.115L6.423,64.61l4.42-1.814Z"/>
          <path id="Trazado_208961" data-name="Trazado 208961" d="M4.031,68.309a1.3,1.3,0,0,1-1.207-1.8l1.85-4.5A1.3,1.3,0,0,1,6.8,61.583l2.651,2.651a1.3,1.3,0,0,1-.427,2.13l-4.5,1.847a1.3,1.3,0,0,1-.495.1"/>
          <path id="Trazado_208962" data-name="Trazado 208962" d="M10.465,61.877a1.3,1.3,0,0,1-.922-2.227L50.131,19.062a1.3,1.3,0,1,1,1.844,1.845L11.387,61.495a1.3,1.3,0,0,1-.922.382" fill="#fff"/>
        </g>
      </g>
    </g>
  </g>
</svg>
