<svg xmlns="http://www.w3.org/2000/svg" xmlns:xlink="http://www.w3.org/1999/xlink" width="111" height="98" viewBox="0 0 111 98">
  <defs>
    <clipPath id="clip-path">
      <rect id="Rect치ngulo_46091" data-name="Rect치ngulo 46091" width="76.967" height="87.551" fill="none"/>
    </clipPath>
  </defs>
  <g id="Grupo_179299" data-name="Grupo 179299" transform="translate(-16748 -5675.863)">
    <g id="Grupo_146564" data-name="Grupo 146564" transform="translate(16034 1065.863)">
      <circle id="Elipse_4958" data-name="Elipse 4958" cx="49" cy="49" r="49" transform="translate(721 4610)" fill="#fff"/>
      <g id="Grupo_146559" data-name="Grupo 146559" transform="matrix(1, -0.017, 0.017, 1, 735.258, 4613.903)">
        <g id="Grupo_146558" data-name="Grupo 146558" clip-path="url(#clip-path)">
          <path id="Trazado_208963" data-name="Trazado 208963" d="M56.5,86.989,7.5,73.009a1.068,1.068,0,0,1-.735-1.321L25.7,5.287a1.069,1.069,0,0,1,1.321-.735l49.009,13.98a1.07,1.07,0,0,1,.735,1.321l-18.941,66.4a1.07,1.07,0,0,1-1.321.735" transform="translate(-1.096 -0.736)" fill="#fff"/>
          <path id="Trazado_208964" data-name="Trazado 208964" d="M57.338,87.9a2.3,2.3,0,0,1-1.423.048L6.906,73.972A2.328,2.328,0,0,1,5.31,71.1L24.251,4.7a2.325,2.325,0,0,1,2.872-1.6l49.009,13.98a2.329,2.329,0,0,1,1.6,2.872l-18.942,66.4a2.308,2.308,0,0,1-1.106,1.393,2.4,2.4,0,0,1-.345.157M56.6,85.538ZM7.774,71.609,56.425,85.487,75.264,19.444,26.614,5.566Z" transform="translate(-0.852 -0.491)" fill="#233863"/>
          <path id="Trazado_208965" data-name="Trazado 208965" d="M56.5,86.989,7.5,73.009a1.068,1.068,0,0,1-.735-1.321L25.7,5.287a1.069,1.069,0,0,1,1.321-.735l49.009,13.98a1.07,1.07,0,0,1,.735,1.321l-18.941,66.4a1.07,1.07,0,0,1-1.321.735" transform="translate(-1.096 -0.736)" fill="#3aaed5"/>
          <path id="Trazado_208966" data-name="Trazado 208966" d="M57.338,87.9a2.3,2.3,0,0,1-1.423.048L6.906,73.972A2.328,2.328,0,0,1,5.31,71.1L24.251,4.7a2.325,2.325,0,0,1,2.872-1.6l49.009,13.98a2.329,2.329,0,0,1,1.6,2.872l-18.942,66.4a2.308,2.308,0,0,1-1.106,1.393,2.4,2.4,0,0,1-.345.157M56.6,85.538ZM7.774,71.609,56.425,85.487,75.264,19.444,26.614,5.566Z" transform="translate(-0.852 -0.491)" fill="#233863"/>
          <path id="Trazado_208967" data-name="Trazado 208967" d="M74.536,41.481a.83.83,0,0,1-.513.018l-8.451-2.411a.837.837,0,0,1,.459-1.609l8.451,2.411a.837.837,0,0,1,.054,1.592" transform="translate(-10.597 -6.108)" fill="#233863"/>
          <path id="Trazado_208968" data-name="Trazado 208968" d="M64.683,54.928a.83.83,0,0,1-.513.018l-37-10.556a.837.837,0,1,1,.46-1.609l37,10.555a.837.837,0,0,1,.054,1.593" transform="translate(-4.332 -6.973)" fill="#233863"/>
          <path id="Trazado_208969" data-name="Trazado 208969" d="M66.111,66.4a.83.83,0,0,1-.513.018l-14.708-4.2a.837.837,0,1,1,.459-1.61l14.708,4.2a.837.837,0,0,1,.054,1.593" transform="translate(-8.202 -9.881)" fill="#ffb44f"/>
          <path id="Trazado_208970" data-name="Trazado 208970" d="M33.764,57.169a.83.83,0,0,1-.513.018l-9-2.568a.837.837,0,0,1,.459-1.609l9,2.568a.837.837,0,0,1,.054,1.592" transform="translate(-3.856 -8.642)" fill="#ffb44f"/>
          <path id="Trazado_208971" data-name="Trazado 208971" d="M43.089,72.2a.83.83,0,0,1-.513.018l-22.791-6.5a.837.837,0,1,1,.459-1.609l22.792,6.5a.837.837,0,0,1,.054,1.593" transform="translate(-3.128 -10.451)" fill="#233863"/>
          <path id="Trazado_208972" data-name="Trazado 208972" d="M57.2,78.765,2.546,77.64A1.069,1.069,0,0,1,1.5,76.548l1.523-74A1.068,1.068,0,0,1,4.114,1.5L58.772,2.625a1.069,1.069,0,0,1,1.046,1.091l-1.523,74a1.068,1.068,0,0,1-1.09,1.047" transform="translate(-0.245 -0.245)" fill="#fff"/>
          <path id="Trazado_208973" data-name="Trazado 208973" d="M57.77,79.639a2.345,2.345,0,0,1-.834.137L2.277,78.65A2.327,2.327,0,0,1,0,76.278l1.522-74A2.33,2.33,0,0,1,3.894,0l54.66,1.126A2.329,2.329,0,0,1,60.83,3.5l-1.523,74a2.332,2.332,0,0,1-1.537,2.14M2.514,76.144,56.8,77.262,58.316,3.631,4.03,2.515Z" transform="translate(0 0)" fill="#233863"/>
          <path id="Trazado_208974" data-name="Trazado 208974" d="M57.2,78.765,2.546,77.64A1.069,1.069,0,0,1,1.5,76.548l1.523-74A1.068,1.068,0,0,1,4.114,1.5L58.772,2.625a1.069,1.069,0,0,1,1.046,1.091l-1.523,74a1.068,1.068,0,0,1-1.09,1.047" transform="translate(-0.245 -0.245)" fill="#fff"/>
          <path id="Trazado_208975" data-name="Trazado 208975" d="M57.77,79.639a2.345,2.345,0,0,1-.834.137L2.277,78.65A2.327,2.327,0,0,1,0,76.278l1.522-74A2.33,2.33,0,0,1,3.894,0l54.66,1.126A2.329,2.329,0,0,1,60.83,3.5l-1.523,74a2.332,2.332,0,0,1-1.537,2.14M2.514,76.144,56.8,77.262,58.316,3.631,4.03,2.515Z" transform="translate(0 0)" fill="#233863"/>
          <path id="Trazado_208976" data-name="Trazado 208976" d="M23.113,26.283a.857.857,0,0,1-.3.049l-9.4-.193a.837.837,0,0,1,.035-1.674l9.4.193a.837.837,0,0,1,.267,1.624" transform="translate(-2.054 -3.991)" fill="#233863"/>
          <path id="Trazado_208977" data-name="Trazado 208977" d="M53.118,44.447a.857.857,0,0,1-.3.049L11.659,43.65a.837.837,0,0,1,.035-1.674l41.157.847a.837.837,0,0,1,.267,1.624" transform="translate(-1.768 -6.847)" fill="#233863"/>
          <path id="Trazado_208978" data-name="Trazado 208978" d="M57.717,55.924a.857.857,0,0,1-.3.049l-16.358-.337a.837.837,0,1,1,.035-1.673L57.45,54.3a.837.837,0,0,1,.267,1.624" transform="translate(-6.564 -8.803)" fill="#ffb44f"/>
          <path id="Trazado_208979" data-name="Trazado 208979" d="M21.741,55.183a.857.857,0,0,1-.3.049l-10.013-.207a.836.836,0,1,1,.035-1.672l10.013.205a.837.837,0,0,1,.267,1.624" transform="translate(-1.73 -8.703)" fill="#ffb44f"/>
          <path id="Trazado_208980" data-name="Trazado 208980" d="M35.479,68.191a.858.858,0,0,1-.3.05L9.826,67.719a.837.837,0,0,1,.035-1.674l25.351.521a.837.837,0,0,1,.267,1.624" transform="translate(17.59 -3.594)" fill="#233863"/>
        </g>
      </g>
      <g id="Rect치ngulo_46092" data-name="Rect치ngulo 46092" transform="translate(714 4643)" fill="#fff" stroke="#a2e6b0" stroke-width="2">
        <rect width="111" height="28" rx="5" stroke="none"/>
        <rect x="1" y="1" width="109" height="26" rx="4" fill="none"/>
      </g>
      <text id="Norma_5" data-name="Norma 5" transform="translate(728 4664)" fill="#12263f" font-size="20" font-family="Roboto-Black, Roboto" font-weight="800"><tspan x="0" y="0">Norma 5</tspan></text>
    </g>
  </g>
</svg>
