<svg xmlns="http://www.w3.org/2000/svg" xmlns:xlink="http://www.w3.org/1999/xlink" width="1123" height="601.44" viewBox="0 0 1123 601.44">
  <defs>
    <clipPath id="clip-path">
      <path id="Trazado_196535" data-name="Trazado 196535" d="M415.991-526.778a151.086,151.086,0,0,0-44.539,107.531h0A151.077,151.077,0,0,0,415.993-311.72h0a151.072,151.072,0,0,0,107.529,44.541h0A151.061,151.061,0,0,0,631.051-311.72h0A151.056,151.056,0,0,0,675.59-419.25h0a151.057,151.057,0,0,0-44.543-107.528h0a151.062,151.062,0,0,0-107.528-44.537h0a151.055,151.055,0,0,0-107.528,44.537" fill="none"/>
    </clipPath>
    <linearGradient id="linear-gradient" x1="0.449" y1="0.502" x2="0.959" y2="0.502" gradientUnits="objectBoundingBox">
      <stop offset="0" stop-color="#d3dad6"/>
      <stop offset="0.1" stop-color="#d5dcd8"/>
      <stop offset="0.2" stop-color="#d9dfdb"/>
      <stop offset="0.3" stop-color="#dde2df"/>
      <stop offset="0.4" stop-color="#e1e6e3"/>
      <stop offset="0.5" stop-color="#e5e9e7"/>
      <stop offset="0.6" stop-color="#eaedec"/>
      <stop offset="0.7" stop-color="#eff2f0"/>
      <stop offset="0.8" stop-color="#f4f6f5"/>
      <stop offset="0.9" stop-color="#f9fafa"/>
      <stop offset="1" stop-color="#fff"/>
    </linearGradient>
    <clipPath id="clip-path-2">
      <path id="Trazado_196537" data-name="Trazado 196537" d="M376.894-419.25A146.637,146.637,0,0,0,523.522-272.617h0A146.631,146.631,0,0,0,670.149-419.25h0A146.633,146.633,0,0,0,523.522-565.879h0A146.626,146.626,0,0,0,376.894-419.25" fill="none"/>
    </clipPath>
    <radialGradient id="radial-gradient" cx="0.296" cy="0.498" r="0.141" gradientTransform="translate(-0.376) scale(1.752 1)" gradientUnits="objectBoundingBox">
      <stop offset="0" stop-color="#f8ffff"/>
      <stop offset="0.1" stop-color="#f7fefe"/>
      <stop offset="0.2" stop-color="#f6fdfd"/>
      <stop offset="0.3" stop-color="#f6fcfc"/>
      <stop offset="0.4" stop-color="#f5fbfb"/>
      <stop offset="0.5" stop-color="#f3f9fa"/>
      <stop offset="0.6" stop-color="#f2f8f8"/>
      <stop offset="0.7" stop-color="#f1f6f7"/>
      <stop offset="0.8" stop-color="#f0f4f5"/>
      <stop offset="0.9" stop-color="#eef2f3"/>
      <stop offset="1" stop-color="#edf0f2"/>
    </radialGradient>
    <clipPath id="clip-path-3">
      <path id="Trazado_196539" data-name="Trazado 196539" d="M895.917-516.108a67.88,67.88,0,0,0,67.88,67.88h0a67.879,67.879,0,0,0,67.88-67.88h0a67.879,67.879,0,0,0-67.88-67.88h0a67.88,67.88,0,0,0-67.88,67.88" fill="none"/>
    </clipPath>
    <radialGradient id="radial-gradient-2" cx="0.924" cy="0.134" r="0.114" gradientTransform="translate(0.215) scale(0.571 1)" gradientUnits="objectBoundingBox">
      <stop offset="0" stop-color="#fff"/>
      <stop offset="0.1" stop-color="#fefefe"/>
      <stop offset="0.2" stop-color="#fcfdfd"/>
      <stop offset="0.3" stop-color="#fafbfc"/>
      <stop offset="0.4" stop-color="#f8fafb"/>
      <stop offset="0.5" stop-color="#f5f8fa"/>
      <stop offset="0.6" stop-color="#f2f6f9"/>
      <stop offset="0.7" stop-color="#eff3f7"/>
      <stop offset="0.8" stop-color="#ecf1f6"/>
      <stop offset="0.9" stop-color="#e8eef4"/>
      <stop offset="1" stop-color="#e4ebf2"/>
    </radialGradient>
    <clipPath id="clip-path-4">
      <path id="Trazado_196543" data-name="Trazado 196543" d="M895.917-325.108a67.88,67.88,0,0,0,67.88,67.881h0a67.88,67.88,0,0,0,67.88-67.881h0a67.88,67.88,0,0,0-67.88-67.881h0a67.881,67.881,0,0,0-67.88,67.881" fill="none"/>
    </clipPath>
    <radialGradient id="radial-gradient-3" cx="0.924" cy="0.454" r="0.114" xlink:href="#radial-gradient-2"/>
    <clipPath id="clip-path-5">
      <path id="Trazado_196547" data-name="Trazado 196547" d="M794.313-159.039a67.881,67.881,0,0,0,67.881,67.881h0a67.88,67.88,0,0,0,67.88-67.881h0a67.88,67.88,0,0,0-67.88-67.88h0a67.88,67.88,0,0,0-67.881,67.88" fill="none"/>
    </clipPath>
    <radialGradient id="radial-gradient-4" cx="0.826" cy="0.733" r="0.114" xlink:href="#radial-gradient-2"/>
    <clipPath id="clip-path-6">
      <path id="Trazado_196551" data-name="Trazado 196551" d="M607.009-79.52a67.88,67.88,0,0,0,67.879,67.881h0A67.881,67.881,0,0,0,742.769-79.52h0a67.88,67.88,0,0,0-67.881-67.88h0a67.88,67.88,0,0,0-67.879,67.88" fill="none"/>
    </clipPath>
    <radialGradient id="radial-gradient-5" cx="0.647" cy="0.866" r="0.114" xlink:href="#radial-gradient-2"/>
    <clipPath id="clip-path-7">
      <path id="Trazado_196555" data-name="Trazado 196555" d="M11.639-516.108a67.88,67.88,0,0,0,67.881,67.88h0a67.88,67.88,0,0,0,67.88-67.88h0a67.88,67.88,0,0,0-67.88-67.88h0a67.88,67.88,0,0,0-67.881,67.88" fill="none"/>
    </clipPath>
    <radialGradient id="radial-gradient-6" cx="0.924" cy="0.866" r="0.114" gradientTransform="matrix(0.571, 0, 0, -1, 0.215, 1.733)" xlink:href="#radial-gradient-2"/>
    <clipPath id="clip-path-8">
      <path id="Trazado_196559" data-name="Trazado 196559" d="M11.639-325.108A67.881,67.881,0,0,0,79.52-257.227h0a67.88,67.88,0,0,0,67.88-67.881h0a67.881,67.881,0,0,0-67.88-67.881h0a67.881,67.881,0,0,0-67.881,67.881" fill="none"/>
    </clipPath>
    <radialGradient id="radial-gradient-7" cx="0.924" cy="0.546" r="0.114" gradientTransform="matrix(0.571, 0, 0, -1, 0.215, 1.092)" xlink:href="#radial-gradient-2"/>
    <clipPath id="clip-path-9">
      <path id="Trazado_196563" data-name="Trazado 196563" d="M113.243-159.039a67.88,67.88,0,0,0,67.88,67.881h0A67.88,67.88,0,0,0,249-159.039h0a67.88,67.88,0,0,0-67.88-67.88h0a67.88,67.88,0,0,0-67.88,67.88" fill="none"/>
    </clipPath>
    <radialGradient id="radial-gradient-8" cx="0.826" cy="0.267" r="0.114" gradientTransform="matrix(0.571, 0, 0, -1, 0.215, 0.534)" xlink:href="#radial-gradient-2"/>
    <clipPath id="clip-path-10">
      <path id="Trazado_196567" data-name="Trazado 196567" d="M311.053-79.52a67.881,67.881,0,0,0,67.881,67.881h0A67.881,67.881,0,0,0,446.815-79.52h0a67.88,67.88,0,0,0-67.881-67.88h0a67.881,67.881,0,0,0-67.881,67.88" fill="none"/>
    </clipPath>
    <radialGradient id="radial-gradient-9" cx="0.637" cy="0.134" r="0.114" gradientTransform="matrix(0.571, 0, 0, -1, 0.215, 0.267)" xlink:href="#radial-gradient-2"/>
  </defs>
  <g id="Grupo_179286" data-name="Grupo 179286" transform="translate(-237 -4273.3)">
    <g id="Grupo_142278" data-name="Grupo 142278" transform="translate(1321.316 4358.632)">
      <path id="Trazado_196530" data-name="Trazado 196530" d="M0,0A79.519,79.519,0,0,1-79.519,79.519,79.519,79.519,0,0,1-159.039,0a79.519,79.519,0,0,1,79.52-79.519A79.519,79.519,0,0,1,0,0" fill="#47a2ed"/>
    </g>
    <g id="Grupo_142279" data-name="Grupo 142279" transform="translate(800.781 4688.733)">
      <path id="Trazado_196531" data-name="Trazado 196531" d="M0,0A244.247,244.247,0,0,1-47.093-4.615,239.767,239.767,0,0,1-200.861-106.989,240.263,240.263,0,0,1-241.78-241.267a242.1,242.1,0,0,1,29.76-116.3,4.194,4.194,0,0,1,5.759-1.642l0,0a4.168,4.168,0,0,1,1.6,5.615,233.72,233.72,0,0,0-28.755,112.328,231.92,231.92,0,0,0,39.5,129.618A231.444,231.444,0,0,0-45.474-12.824,235.7,235.7,0,0,0,0-8.365,231.581,231.581,0,0,0,129.363-47.917,232.725,232.725,0,0,0,232.579-241.545a232.959,232.959,0,0,0-26.96-108.646,4.194,4.194,0,0,1,1.657-5.648,4.192,4.192,0,0,1,5.732,1.726,241.335,241.335,0,0,1,27.935,112.568A241.078,241.078,0,0,1,134.024-40.969,239.929,239.929,0,0,1,0,0" fill="#d2dad5"/>
    </g>
    <g id="Grupo_142280" data-name="Grupo 142280" transform="translate(632.342 4452.383)">
      <path id="Trazado_196532" data-name="Trazado 196532" d="M0,0A167.089,167.089,0,0,1,74.116-139.039a166.149,166.149,0,0,1,125.523-25.2A166.207,166.207,0,0,1,306.218-93.293,166.574,166.574,0,0,1,334.587-.23a167.122,167.122,0,0,1-74.111,139.041,166.207,166.207,0,0,1-125.535,25.2A166.188,166.188,0,0,1,28.365,93.052,166.512,166.512,0,0,1,0,0" fill="#f4f4f4"/>
    </g>
    <path id="Trazado_196533" data-name="Trazado 196533" d="M0-595.627H1043.317V0H0Z" transform="translate(244 4868.927)" fill="none"/>
    <g id="Grupo_142283" data-name="Grupo 142283" transform="translate(276.889 4868.927)" clip-path="url(#clip-path)">
      <g id="Grupo_142282" data-name="Grupo 142282" transform="translate(523.522 -267.179) rotate(-90)">
        <path id="Trazado_196534" data-name="Trazado 196534" d="M328.448-523.522V519.8H-267.179V-523.522Z" fill="url(#linear-gradient)"/>
      </g>
    </g>
    <g id="Grupo_142285" data-name="Grupo 142285" transform="translate(276.448 4868.927)" clip-path="url(#clip-path-2)">
      <g id="Grupo_142284" data-name="Grupo 142284" transform="translate(523.521 -419.249) rotate(90)">
        <path id="Trazado_196536" data-name="Trazado 196536" d="M-176.378,523.521V-519.8H419.249V523.521Z" fill="url(#radial-gradient)"/>
      </g>
    </g>
    <g id="Grupo_142287" data-name="Grupo 142287" transform="translate(278.083 4874.74)" clip-path="url(#clip-path-3)">
      <g id="Grupo_142286" data-name="Grupo 142286" transform="translate(963.797 -516.108)">
        <path id="Trazado_196538" data-name="Trazado 196538" d="M-963.8-79.519H79.523V516.108H-963.8Z" fill="url(#radial-gradient-2)"/>
      </g>
    </g>
    <g id="Grupo_142288" data-name="Grupo 142288" transform="translate(1321.316 4549.632)">
      <path id="Trazado_196540" data-name="Trazado 196540" d="M0,0A79.519,79.519,0,0,1-79.519,79.519,79.519,79.519,0,0,1-159.039,0a79.519,79.519,0,0,1,79.52-79.519A79.519,79.519,0,0,1,0,0" fill="#9fe3ad"/>
    </g>
    <path id="Trazado_196541" data-name="Trazado 196541" d="M0-595.627H1043.317V0H0Z" transform="translate(244 4868.927)" fill="none"/>
    <g id="Grupo_142291" data-name="Grupo 142291" transform="translate(278.083 4874.74)" clip-path="url(#clip-path-4)">
      <g id="Grupo_142290" data-name="Grupo 142290" transform="translate(963.797 -325.108)">
        <path id="Trazado_196542" data-name="Trazado 196542" d="M-963.8-270.519H79.523V325.108H-963.8Z" fill="url(#radial-gradient-3)"/>
      </g>
    </g>
    <g id="Grupo_142292" data-name="Grupo 142292" transform="translate(1219.713 4715.702)">
      <path id="Trazado_196544" data-name="Trazado 196544" d="M0,0A79.519,79.519,0,0,1-79.519,79.519,79.519,79.519,0,0,1-159.039,0a79.519,79.519,0,0,1,79.52-79.519A79.519,79.519,0,0,1,0,0" fill="#3c5075"/>
    </g>
    <path id="Trazado_196545" data-name="Trazado 196545" d="M0-595.627H1043.317V0H0Z" transform="translate(244 4868.927)" fill="none"/>
    <g id="Grupo_142295" data-name="Grupo 142295" transform="translate(277.688 4874.74)" clip-path="url(#clip-path-5)">
      <g id="Grupo_142294" data-name="Grupo 142294" transform="translate(862.194 -159.039)">
        <path id="Trazado_196546" data-name="Trazado 196546" d="M-862.194-436.588H181.126V159.039H-862.194Z" fill="url(#radial-gradient-4)"/>
      </g>
    </g>
    <g id="Grupo_142296" data-name="Grupo 142296" transform="translate(1013.408 4795.221)">
      <path id="Trazado_196548" data-name="Trazado 196548" d="M0,0A79.519,79.519,0,0,1-79.519,79.519,79.519,79.519,0,0,1-159.039,0a79.519,79.519,0,0,1,79.52-79.519A79.519,79.519,0,0,1,0,0" fill="#cdbaad"/>
    </g>
    <path id="Trazado_196549" data-name="Trazado 196549" d="M0-595.627H1043.317V0H0Z" transform="translate(244 4868.927)" fill="none"/>
    <g id="Grupo_142299" data-name="Grupo 142299" transform="translate(258.991 4874.74)" clip-path="url(#clip-path-6)">
      <g id="Grupo_142298" data-name="Grupo 142298" transform="translate(674.889 -79.519)">
        <path id="Trazado_196550" data-name="Trazado 196550" d="M-674.889-516.108H368.431V79.519H-674.889Z" fill="url(#radial-gradient-5)"/>
      </g>
    </g>
    <g id="Grupo_142300" data-name="Grupo 142300" transform="translate(277 4358.632)">
      <path id="Trazado_196552" data-name="Trazado 196552" d="M0,0A79.519,79.519,0,0,0,79.519,79.519,79.519,79.519,0,0,0,159.039,0a79.519,79.519,0,0,0-79.52-79.519A79.519,79.519,0,0,0,0,0" fill="#cdbaad"/>
    </g>
    <path id="Trazado_196553" data-name="Trazado 196553" d="M0-595.627H1043.317V0H0Z" transform="translate(244 4868.927)" fill="none"/>
    <g id="Grupo_142303" data-name="Grupo 142303" transform="translate(277 4874.74)" clip-path="url(#clip-path-7)">
      <g id="Grupo_142302" data-name="Grupo 142302" transform="translate(79.519 -516.108) rotate(180)">
        <path id="Trazado_196554" data-name="Trazado 196554" d="M79.519,79.519H-963.8V-516.108H79.519Z" fill="url(#radial-gradient-6)"/>
      </g>
    </g>
    <g id="Grupo_142304" data-name="Grupo 142304" transform="translate(277 4549.632)">
      <path id="Trazado_196556" data-name="Trazado 196556" d="M0,0A79.519,79.519,0,0,0,79.519,79.519,79.519,79.519,0,0,0,159.039,0a79.519,79.519,0,0,0-79.52-79.519A79.519,79.519,0,0,0,0,0" fill="#9fe3ad"/>
    </g>
    <path id="Trazado_196557" data-name="Trazado 196557" d="M0-595.627H1043.317V0H0Z" transform="translate(244 4868.927)" fill="none"/>
    <g id="Grupo_142307" data-name="Grupo 142307" transform="translate(277 4874.74)" clip-path="url(#clip-path-8)">
      <g id="Grupo_142306" data-name="Grupo 142306" transform="translate(79.519 -325.108) rotate(180)">
        <path id="Trazado_196558" data-name="Trazado 196558" d="M79.519,270.519H-963.8V-325.108H79.519Z" fill="url(#radial-gradient-7)"/>
      </g>
    </g>
    <g id="Grupo_142308" data-name="Grupo 142308" transform="translate(378.604 4715.702)">
      <path id="Trazado_196560" data-name="Trazado 196560" d="M0,0A79.519,79.519,0,0,0,79.519,79.519,79.519,79.519,0,0,0,159.039,0a79.519,79.519,0,0,0-79.52-79.519A79.519,79.519,0,0,0,0,0" fill="#3c5075"/>
    </g>
    <path id="Trazado_196561" data-name="Trazado 196561" d="M0-595.627H1043.317V0H0Z" transform="translate(244 4868.927)" fill="none"/>
    <g id="Grupo_142311" data-name="Grupo 142311" transform="translate(276.757 4874.74)" clip-path="url(#clip-path-9)">
      <g id="Grupo_142310" data-name="Grupo 142310" transform="translate(181.123 -159.039) rotate(180)">
        <path id="Trazado_196562" data-name="Trazado 196562" d="M181.123,436.588H-862.2V-159.039H181.123Z" fill="url(#radial-gradient-8)"/>
      </g>
    </g>
    <g id="Grupo_142312" data-name="Grupo 142312" transform="translate(584.415 4795.221)">
      <path id="Trazado_196564" data-name="Trazado 196564" d="M0,0A79.519,79.519,0,0,0,79.519,79.519,79.519,79.519,0,0,0,159.039,0a79.519,79.519,0,0,0-79.52-79.519A79.519,79.519,0,0,0,0,0" fill="#47a2ed"/>
    </g>
    <path id="Trazado_196565" data-name="Trazado 196565" d="M0-595.627H1043.317V0H0Z" transform="translate(244 4868.927)" fill="none"/>
    <g id="Grupo_142315" data-name="Grupo 142315" transform="translate(285 4874.74)" clip-path="url(#clip-path-10)">
      <g id="Grupo_142314" data-name="Grupo 142314" transform="translate(378.934 -79.519) rotate(180)">
        <path id="Trazado_196566" data-name="Trazado 196566" d="M378.934,516.108H-664.386V-79.519H378.934Z" fill="url(#radial-gradient-9)"/>
      </g>
    </g>
    <g id="Rectángulo_44551" data-name="Rectángulo 44551" transform="translate(237 4378.113)" fill="#fff" stroke="#afafaf" stroke-width="4">
      <rect width="240" height="44" rx="21" stroke="none"/>
      <rect x="2" y="2" width="236" height="40" rx="19" fill="none"/>
    </g>
    <g id="Rectángulo_44554" data-name="Rectángulo 44554" transform="translate(237 4567.113)" fill="#fff" stroke="#afafaf" stroke-width="4">
      <rect width="240" height="44" rx="21" stroke="none"/>
      <rect x="2" y="2" width="236" height="40" rx="19" fill="none"/>
    </g>
    <g id="Rectángulo_44555" data-name="Rectángulo 44555" transform="translate(338 4736.113)" fill="#fff" stroke="#afafaf" stroke-width="4">
      <rect width="240" height="44" rx="21" stroke="none"/>
      <rect x="2" y="2" width="236" height="40" rx="19" fill="none"/>
    </g>
    <g id="Rectángulo_44557" data-name="Rectángulo 44557" transform="translate(546 4814)" fill="#fff" stroke="#afafaf" stroke-width="4">
      <rect width="240" height="44" rx="21" stroke="none"/>
      <rect x="2" y="2" width="236" height="40" rx="19" fill="none"/>
    </g>
    <g id="Rectángulo_44558" data-name="Rectángulo 44558" transform="translate(816 4814)" fill="#fff" stroke="#afafaf" stroke-width="4">
      <rect width="240" height="44" rx="21" stroke="none"/>
      <rect x="2" y="2" width="236" height="40" rx="19" fill="none"/>
    </g>
    <g id="Rectángulo_44556" data-name="Rectángulo 44556" transform="translate(1024 4735)" fill="#fff" stroke="#afafaf" stroke-width="4">
      <rect width="240" height="44" rx="21" stroke="none"/>
      <rect x="2" y="2" width="236" height="40" rx="19" fill="none"/>
    </g>
    <g id="Rectángulo_44552" data-name="Rectángulo 44552" transform="translate(1118 4376)" fill="#fff" stroke="#afafaf" stroke-width="4">
      <rect width="240" height="44" rx="21" stroke="none"/>
      <rect x="2" y="2" width="236" height="40" rx="19" fill="none"/>
    </g>
    <g id="Rectángulo_44553" data-name="Rectángulo 44553" transform="translate(1120 4562.113)" fill="#fff" stroke="#afafaf" stroke-width="4">
      <rect width="240" height="57" rx="28.5" stroke="none"/>
      <rect x="2" y="2" width="236" height="53" rx="26.5" fill="none"/>
    </g>
    <text id="Riesgo_mecánico" data-name="Riesgo mecánico" transform="translate(295 4407.113)" fill="#12263f" font-size="16" font-family="Roboto-Bold, Roboto" font-weight="700"><tspan x="0" y="0">Riesgo mecánico</tspan></text>
    <text id="Riesgo_eléctrico" data-name="Riesgo eléctrico" transform="translate(295 4596.113)" fill="#12263f" font-size="16" font-family="Roboto-Bold, Roboto" font-weight="700"><tspan x="0" y="0">Riesgo eléctrico</tspan></text>
    <text id="Riesgo_térmico_" data-name="Riesgo térmico " transform="translate(400 4765.113)" fill="#12263f" font-size="16" font-family="Roboto-Bold, Roboto" font-weight="700"><tspan x="0" y="0">Riesgo térmico </tspan></text>
    <text id="Riesgo_por_ruido_" data-name="Riesgo por ruido " transform="translate(605 4842)" fill="#12263f" font-size="16" font-family="Roboto-Bold, Roboto" font-weight="700"><tspan x="0" y="0">Riesgo por ruido </tspan></text>
    <text id="Riesgo_por_vibraciones_" data-name="Riesgo por vibraciones " transform="translate(852 4842)" fill="#12263f" font-size="16" font-family="Roboto-Bold, Roboto" font-weight="700"><tspan x="0" y="0">Riesgo por vibraciones </tspan></text>
    <text id="Riesgo_por_radiación_" data-name="Riesgo por radiación " transform="translate(1068 4763)" fill="#12263f" font-size="16" font-family="Roboto-Bold, Roboto" font-weight="700"><tspan x="0" y="0">Riesgo por radiación </tspan></text>
    <text id="Riesgo_ergonómico_" data-name="Riesgo ergonómico " transform="translate(1167 4404)" fill="#12263f" font-size="16" font-family="Roboto-Bold, Roboto" font-weight="700"><tspan x="0" y="0">Riesgo ergonómico </tspan></text>
    <text id="Riesgo_por_exposición_a_sustancias_peligrosas" data-name="Riesgo por exposición 
a sustancias peligrosas" transform="translate(1240 4584.113)" fill="#12263f" font-size="16" font-family="Roboto-Bold, Roboto" font-weight="700"><tspan x="-81.629" y="0">Riesgo por exposición </tspan><tspan x="-84.598" y="24">a sustancias peligrosas</tspan></text>
    <text id="Riesgos_en_el_mecanizado_CNC" data-name="Riesgos en el
mecanizado
CNC" transform="translate(800 4441.113)" fill="#12263f" font-size="32" font-family="Roboto-Black, Roboto" font-weight="800"><tspan x="-96.938" y="0">Riesgos en el</tspan><tspan x="-87.43" y="35">mecanizado</tspan><tspan x="-32.234" y="70">CNC</tspan></text>
    <g id="Grupo_179157" data-name="Grupo 179157" transform="translate(-247.217 22.934)">
      <path id="Trazado_208805" data-name="Trazado 208805" d="M38.85,41.576A6.717,6.717,0,0,0,36.5,36.624L50.44,16.389A31.273,31.273,0,0,1,63.334,43.614Z" transform="translate(1355.032 4630.689)" fill="#9de1ab"/>
      <path id="Trazado_208806" data-name="Trazado 208806" d="M50.916,17.719A30.567,30.567,0,0,1,62.964,43.156L39.828,41.23a7.431,7.431,0,0,0-2.08-4.391ZM50.568,15.7,35.84,37.093a6.012,6.012,0,0,1,2.584,5.455L64.3,44.7a31.989,31.989,0,0,0-13.734-29" transform="translate(1354.725 4630.373)" fill="#304f77"/>
      <path id="Trazado_208807" data-name="Trazado 208807" d="M12.192,40A31.272,31.272,0,0,1,28.734,14.821l11,21.971a6.753,6.753,0,0,0-3.01,4.576Z" transform="translate(1343.786 4629.964)" fill="#9de1ab"/>
      <path id="Trazado_208808" data-name="Trazado 208808" d="M28.667,16.107,39.059,36.868a7.479,7.479,0,0,0-2.669,4.059l-23.178-1.3A30.55,30.55,0,0,1,28.667,16.107m.623-1.947A31.986,31.986,0,0,0,11.672,40.974L37.6,42.426a6.019,6.019,0,0,1,3.316-5.044Z" transform="translate(1343.545 4629.658)" fill="#304f77"/>
      <path id="Trazado_208809" data-name="Trazado 208809" d="M37.352,63.05a31.417,31.417,0,0,1-13.786-3.576L35.485,37.987a6.716,6.716,0,0,0,5.238,0c.08-.034.159-.07.238-.107L53.685,58.9a31.267,31.267,0,0,1-15.58,4.157c-.252,0-.5,0-.753-.009" transform="translate(1349.047 4640.633)" fill="#9de1ab"/>
      <path id="Trazado_208810" data-name="Trazado 208810" d="M40.975,39.08,53,58.939a30.553,30.553,0,0,1-14.584,3.7q-.369,0-.737-.009a30.7,30.7,0,0,1-12.82-3.162l11.261-20.3a7.487,7.487,0,0,0,2.3.366,7.367,7.367,0,0,0,2.557-.456m.554-1.844a5.869,5.869,0,0,1-.777.4,6,6,0,0,1-5.258-.282L22.9,60.058a31.973,31.973,0,0,0,14.743,4.006q.386.009.772.009A32,32,0,0,0,54.978,59.45Z" transform="translate(1348.739 4640.333)" fill="#304f77"/>
      <path id="Trazado_208811" data-name="Trazado 208811" d="M34.562,38.555a3.617,3.617,0,0,1-1.379-.272,3.661,3.661,0,1,1,1.379.272" transform="translate(1352.438 4637.548)" fill="#9de1ab"/>
      <path id="Trazado_208812" data-name="Trazado 208812" d="M34.791,32.157h0A2.955,2.955,0,1,1,32.053,34a2.945,2.945,0,0,1,2.738-1.843m0-1.429a4.385,4.385,0,1,0,1.648.323,4.383,4.383,0,0,0-1.648-.323" transform="translate(1352.211 4637.322)" fill="#304f77"/>
    </g>
    <g id="Grupo_179153" data-name="Grupo 179153" transform="translate(-3.612 16.014)">
      <path id="Trazado_208815" data-name="Trazado 208815" d="M25.612,44.319l14.9-1.821L23.234,17.061l16.725-.592L55,49.2l-13.556.48L51.921,74.4Z" transform="translate(319.73 4465.381)" fill="#9de1ab"/>
      <path id="Trazado_208816" data-name="Trazado 208816" d="M39.95,17.471,54.327,48.757l-11.391.4-2.132.075.832,1.965,8.274,19.513L27.53,45.131l12.325-1.507,2.391-.292-1.353-1.991L25.042,18Zm.926-1.5-18.541.657,17.343,25.54L24.6,44.009,54.84,78.584,42.989,50.629l13.592-.481Z" transform="translate(319.277 4465.13)" fill="#304f77"/>
    </g>
    <g id="Grupo_179158" data-name="Grupo 179158" transform="translate(-159.146 24.193)">
      <path id="Trazado_208819" data-name="Trazado 208819" d="M33.5,59.263a3.67,3.67,0,1,1,3.669-3.67,3.674,3.674,0,0,1-3.669,3.67" transform="translate(1367.352 4467.327)" fill="#9de1ab"/>
      <path id="Trazado_208820" data-name="Trazado 208820" d="M33.576,52.564a3.1,3.1,0,1,1-3.105,3.1,3.108,3.108,0,0,1,3.105-3.1m0-1.131a4.236,4.236,0,1,0,4.236,4.236,4.236,4.236,0,0,0-4.236-4.236" transform="translate(1367.275 4467.25)" fill="#304f77"/>
      <path id="Trazado_208821" data-name="Trazado 208821" d="M33.7,54.834a2.594,2.594,0,0,1-2.557-2.428L28.577,15.744a6.184,6.184,0,0,1,1.509-4.6A3.986,3.986,0,0,1,33,9.808H34.4a3.981,3.981,0,0,1,2.911,1.337,6.181,6.181,0,0,1,1.51,4.6L36.255,52.406A2.594,2.594,0,0,1,33.7,54.834" transform="translate(1367.151 4460.678)" fill="#9de1ab"/>
      <path id="Trazado_208822" data-name="Trazado 208822" d="M34.48,10.451a3.408,3.408,0,0,1,2.5,1.157,5.61,5.61,0,0,1,1.358,4.174L35.769,52.445a1.994,1.994,0,0,1-3.984,0L29.218,15.782a5.615,5.615,0,0,1,1.358-4.174,3.408,3.408,0,0,1,2.5-1.157Zm0-1.131H33.073c-2.955,0-5.229,3.032-4.984,6.541l2.567,36.663a3.125,3.125,0,0,0,6.24,0l2.567-36.663c.245-3.508-2.027-6.541-4.984-6.541" transform="translate(1367.074 4460.601)" fill="#304f77"/>
    </g>
    <g id="Grupo_179154" data-name="Grupo 179154" transform="translate(182.045 24.083)">
      <path id="Trazado_208825" data-name="Trazado 208825" d="M56.076,69.683a18.4,18.4,0,0,1-14-6.456l-.494-.578-.494.578a18.43,18.43,0,0,1-19.056,5.752A14.888,14.888,0,1,0,9.8,44.875,18.323,18.323,0,0,1,23.415,33.221l.768-.156-.294-.725a18.411,18.411,0,0,1,4.35-20.215,14.878,14.878,0,1,0,23.023-1.981A18.456,18.456,0,0,1,58.106,32.15l-.3.769.819.113A18.486,18.486,0,0,1,74.271,48.44,14.886,14.886,0,1,0,58.752,69.491a18.592,18.592,0,0,1-2.676.192M41.58,37.7a5.62,5.62,0,1,0,5.62,5.62,5.626,5.626,0,0,0-5.62-5.62" transform="translate(233.815 4631.583)" fill="#9de1ab"/>
      <path id="Trazado_208826" data-name="Trazado 208826" d="M55.191,15.153a17.836,17.836,0,0,1,2.725,17.673l-.6,1.536,1.636.226A17.812,17.812,0,0,1,72.938,45.5,15.53,15.53,0,1,0,54.95,69.88a17.755,17.755,0,0,1-11.967-6.163l-.989-1.155L41,63.717A17.745,17.745,0,0,1,27.5,69.946c-.391,0-.783-.013-1.171-.039A15.535,15.535,0,1,0,12.466,42.682a17.686,17.686,0,0,1,11.491-7.909l1.536-.31-.588-1.454a17.729,17.729,0,0,1,.972-15.332,15.534,15.534,0,1,0,29.314-2.524M41.994,50.5a6.271,6.271,0,1,0-6.271-6.271A6.277,6.277,0,0,0,41.994,50.5M43.43,7.386a14.235,14.235,0,1,1-7.212.6A19.078,19.078,0,0,0,23.7,33.5,19.079,19.079,0,0,0,8.554,50.032a14.231,14.231,0,1,1,9.434,18.677,19.069,19.069,0,0,0,24.006-4.146A19.075,19.075,0,0,0,64.4,69.533a14.239,14.239,0,1,1,11-14.92,19.26,19.26,0,0,0,.153-2.429A19.066,19.066,0,0,0,59.125,33.3,19.078,19.078,0,0,0,43.43,7.386M41.994,49.2a4.97,4.97,0,1,1,4.97-4.97,4.971,4.971,0,0,1-4.97,4.97" transform="translate(233.401 4630.67)" fill="#304f77"/>
      <path id="Trazado_208827" data-name="Trazado 208827" d="M43.1,23.817a16.345,16.345,0,0,0-17.987,4.844,16.545,16.545,0,0,0-3.764,9.292,16.2,16.2,0,0,0,2.268,9.521A16.262,16.262,0,0,0,53.6,41.811a18,18,0,0,0,.232-2.7A16.459,16.459,0,0,0,43.1,23.817m7.515,13.492c-.02-.13-.011-.068,0,0m-7.937-10.34c.234.092.067.028,0,0m-10.22,0c-.067.028-.234.092,0,0m-5.29,4.061.007-.009c.079-.1.029-.04-.007.009m-2.652,9.858c.009.077.02.186,0,0m7.931,10.359c-.072-.031-.2-.088,0,0m3.32.91c-.068-.009-.13-.02,0,0m3.593,0h0M49.708,44.22c-.092.234-.028.067,0,0m.977-4.025c-.013.19-.032.381-.053.57,0,.02-.011.093-.017.148-.013.079-.035.217-.033.213a14.636,14.636,0,0,1-.512,2.1c-.106.329-.228.651-.353.973l-.007.016c-.036.081-.072.162-.109.242-.076.166-.154.33-.237.493a14.69,14.69,0,0,1-1.122,1.864c-.088.124-.178.246-.27.367-.033.039-.152.188-.189.232q-.345.415-.721.807-.353.363-.728.705c-.134.121-.27.24-.409.355-.069.059-.14.114-.209.172l-.049.043-.009.007a14.876,14.876,0,0,1-1.764,1.147c-.3.165-.6.321-.913.465l-.25.113-.024.011c-.186.076-.373.149-.562.217a14.73,14.73,0,0,1-2.077.579c-.161.032-.322.061-.485.089l-.242.037-.048.007c-.381.039-.761.073-1.145.088a15.718,15.718,0,0,1-2.307-.088l-.064-.009-.156-.024c-.185-.029-.37-.063-.554-.1q-.549-.11-1.088-.262-.5-.142-.989-.317c-.173-.063-.343-.13-.515-.2l-.023-.009c-.1-.044-.2-.089-.3-.134a14.6,14.6,0,0,1-1.845-1.026c-.278-.181-.55-.373-.815-.572l-.024-.02c-.069-.057-.14-.113-.209-.172-.156-.129-.31-.262-.461-.4a14.831,14.831,0,0,1-1.451-1.512l-.188-.232c-.092-.121-.182-.244-.27-.367q-.313-.443-.6-.909t-.527-.954c-.072-.141-.141-.285-.209-.43-.039-.083-.076-.166-.113-.25l-.019-.04-.012-.031a15.73,15.73,0,0,1-.655-2.043q-.124-.513-.21-1.033c-.015-.087-.027-.173-.04-.26l0-.031c-.02-.189-.04-.378-.055-.568a14.915,14.915,0,0,1,0-2.313c.015-.19.035-.379.055-.568l.008-.057c.008-.055.021-.141.025-.162.063-.394.142-.784.237-1.171a14.861,14.861,0,0,1,.655-2.013c.033-.075.065-.148.1-.221.076-.166.156-.33.238-.493q.246-.487.527-.954.264-.437.556-.855c.1-.137.2-.273.3-.407.081-.1.161-.2.244-.3a14.968,14.968,0,0,1,1.458-1.505c.117-.105.237-.209.358-.31.039-.032.253-.2.288-.236.264-.2.535-.39.812-.571a14.625,14.625,0,0,1,1.907-1.056l.242-.108.016-.007c.15-.059.3-.117.45-.173.347-.126.7-.241,1.054-.341.337-.095.676-.178,1.018-.248.184-.039.369-.073.554-.1l.189-.029.172-.023a14.921,14.921,0,0,1,2.235-.08q.539.02,1.074.08l.156.02.134.021c.209.033.417.072.624.114a14.761,14.761,0,0,1,2.073.588c.15.056.3.114.45.173l.016.007.242.108c.331.153.656.317.976.494A14.529,14.529,0,0,1,45.636,28.7c.036.031.19.154.236.193.138.114.276.233.41.353q.4.361.779.751.351.365.679.755c.028.035.2.249.234.288.091.12.181.241.268.363a14.691,14.691,0,0,1,1.122,1.864c.083.162.161.326.237.493.029.063.056.125.085.188l.011.023c.144.358.277.719.394,1.086a14.539,14.539,0,0,1,.5,2.108l.024.154c0,.025.007.051.008.065.021.189.041.378.056.568.031.385.043.771.045,1.157,0,.362-.013.724-.04,1.085" transform="translate(237.622 4635.791)" fill="#304f77"/>
    </g>
    <g id="Grupo_179152" data-name="Grupo 179152" transform="translate(-11.058 19.804)">
      <path id="Trazado_208830" data-name="Trazado 208830" d="M16.681,53.949l-.411-6.71,7.476.087.227,6.709ZM16.653,47.6l.367,5.99,6.581.077-.2-5.988Z" transform="translate(330.997 4287.837)" fill="#9de1ab"/>
      <path id="Trazado_208831" data-name="Trazado 208831" d="M16.27,47.239l.411,6.71,7.292.086-.227-6.709Z" transform="translate(330.997 4287.837)" fill="#304f77"/>
      <path id="Trazado_208832" data-name="Trazado 208832" d="M48.631,51.609l.885-14.2A16.487,16.487,0,0,0,45.34,25.167,12.63,12.63,0,0,0,36.2,20.989h-.154A12.664,12.664,0,0,0,26.907,25a16.514,16.514,0,0,0-4.416,12.065l.532,14.223-6.011-.076-.95-14.3a24,24,0,0,1,1.005-8.7,22.6,22.6,0,0,1,4.023-7.6,20.214,20.214,0,0,1,6.648-5.409,18.358,18.358,0,0,1,8.329-1.993H36.3a18.35,18.35,0,0,1,8.511,2.2,20.234,20.234,0,0,1,6.512,5.574,22.62,22.62,0,0,1,3.833,7.694,23.983,23.983,0,0,1,.788,8.725l-1.3,14.27Z" transform="translate(330.957 4282.734)" fill="#9de1ab"/>
      <path id="Trazado_208833" data-name="Trazado 208833" d="M36.141,13.851h.227a17.793,17.793,0,0,1,8.253,2.137,19.682,19.682,0,0,1,6.332,5.42,22.058,22.058,0,0,1,3.737,7.506,23.453,23.453,0,0,1,.77,8.521L54.2,51.189l-4.9-.061.849-13.614a17.055,17.055,0,0,0-4.325-12.655,13.194,13.194,0,0,0-9.54-4.358h-.161a13.221,13.221,0,0,0-9.548,4.189A17.079,17.079,0,0,0,22,37.164L22.513,50.8l-4.9-.061L16.7,36.953a23.448,23.448,0,0,1,.981-8.5A22.046,22.046,0,0,1,21.6,21.045a19.672,19.672,0,0,1,6.464-5.262,17.812,17.812,0,0,1,8.077-1.932m0-1.124a18.935,18.935,0,0,0-8.582,2.053,20.8,20.8,0,0,0-6.832,5.558A23.2,23.2,0,0,0,16.6,28.123a24.585,24.585,0,0,0-1.028,8.905l.984,14.817,7.121.087-.554-14.81c-.313-8.358,5.5-15.5,13-15.5h.146c7.573.094,13.281,7.418,12.758,15.82l-.922,14.793,7.121.089,1.351-14.787a24.575,24.575,0,0,0-.807-8.928,23.171,23.171,0,0,0-3.928-7.885A20.806,20.806,0,0,0,45.151,15a18.936,18.936,0,0,0-8.77-2.27h-.24" transform="translate(330.884 4282.661)" fill="#304f77"/>
      <path id="Trazado_208834" data-name="Trazado 208834" d="M43.334,54.262l.4-6.7,7.477.087-.586,6.7Zm.741-6.337-.359,5.982,6.581.077L50.819,48Z" transform="translate(335.055 4287.885)" fill="#9de1ab"/>
      <path id="Trazado_208835" data-name="Trazado 208835" d="M43.736,47.561l-.4,6.7,7.293.085.585-6.7Z" transform="translate(335.055 4287.885)" fill="#304f77"/>
      <rect id="Rectángulo_46041" data-name="Rectángulo 46041" width="77.557" height="77.557" transform="translate(328.557 4280.752)" fill="none"/>
    </g>
    <g id="Grupo_179155" data-name="Grupo 179155" transform="translate(-9.984 -171.794)">
      <path id="Trazado_208838" data-name="Trazado 208838" d="M34.338,53.668l-18.454,5.94L29.977,46.315,12.035,38.634l18.773-1.269L22.541,19.856,37.914,30.351l4.931-17.918,5.087,18.3,15.194-10.8L54.947,37.52l18.776,1.138L56.148,46.569,69.859,59.644,51.188,53.738l2.323,19.6L42.841,56.612l-10.7,16.77Zm8.5-23.691A13.074,13.074,0,1,0,55.914,43.05,13.088,13.088,0,0,0,42.841,29.978" transform="translate(631.078 4901.44)" fill="#9de1ab"/>
      <path id="Trazado_208839" data-name="Trazado 208839" d="M43.713,15.807l4.138,14.885a13.791,13.791,0,0,0-8.227-.02l.084-.3ZM25.125,22.641l12.462,8.506.3.2a13.855,13.855,0,0,0-6.046,5.506L25.125,22.641m37.13.143-6.6,14.2a13.842,13.842,0,0,0-5.72-5.442l.071-.05,12.25-8.71m-31.4,16.1a13.658,13.658,0,0,0-.916,4.935,13.845,13.845,0,0,0,.176,2.2L15.826,39.9,30.706,38.9l.149-.01m25.761.148.173.01,14.948.906L57.668,46.283l-.453.2a13.865,13.865,0,0,0,.259-2.666,13.719,13.719,0,0,0-.858-4.787M56.8,48.09l.484.462,10.8,10.3-14.79-4.679-.376-.119A13.828,13.828,0,0,0,56.8,48.09m-26.14.124a13.839,13.839,0,0,0,3.75,5.753l-.436.141L19.46,58.779,30.548,48.316l.109-.1m5.169,6.892a13.69,13.69,0,0,0,6.945,2.452l-.236.369-8.5,13.337,1.743-15.682.053-.476m15.611.1.054.45L53.33,71.182,44.876,57.927l-.236-.369a13.68,13.68,0,0,0,6.8-2.351m-7.73-44.6L38.368,30,21.69,18.615l8.922,18.9L9.975,38.907l19.621,8.4L14.043,61.981,34.4,55.428l-2.4,21.613L43.707,58.673,55.421,77.041l-2.55-21.547,20.5,6.487L58.238,47.549l19.2-8.642L56.871,37.66l8.854-19.045L49.2,30.364Zm0,45.6a12.38,12.38,0,1,1,12.38-12.38A12.379,12.379,0,0,1,43.707,56.2" transform="translate(630.212 4900.671)" fill="#304f77"/>
      <path id="Trazado_208840" data-name="Trazado 208840" d="M36.5,46.146a9.381,9.381,0,1,1,9.381-9.381A9.391,9.391,0,0,1,36.5,46.146" transform="translate(637.42 4907.728)" fill="#9de1ab"/>
      <path id="Trazado_208841" data-name="Trazado 208841" d="M36.7,28.284a8.686,8.686,0,1,1-8.686,8.686A8.7,8.7,0,0,1,36.7,28.284m0-1.388A10.074,10.074,0,1,0,46.777,36.97,10.074,10.074,0,0,0,36.7,26.9" transform="translate(637.215 4907.522)" fill="#304f77"/>
    </g>
    <g id="Grupo_179156" data-name="Grupo 179156" transform="translate(-9.625 -150.606)">
      <path id="Trazado_208844" data-name="Trazado 208844" d="M39.785,41.272c3.212-3.794,3.981-7.691,2.289-11.578a14.1,14.1,0,0,0-3.556-4.83l2.373-2.472a17.407,17.407,0,0,1,4.493,6.048c1.51,3.469,2.249,8.857-2.8,14.822Z" transform="translate(911.436 4885.283)" fill="#304f77"/>
      <path id="Trazado_208845" data-name="Trazado 208845" d="M45.922,47.533a19.949,19.949,0,0,0,4.552-10.173,16.5,16.5,0,0,0-1.241-8.181,22.465,22.465,0,0,0-5.34-7.659l2.41-2.7a26,26,0,0,1,6.311,9A19.965,19.965,0,0,1,54.1,37.735a23.41,23.41,0,0,1-5.306,12Z" transform="translate(913.623 4883.832)" fill="#304f77"/>
      <path id="Trazado_208846" data-name="Trazado 208846" d="M52.169,52.711A26.091,26.091,0,0,0,58.1,39.485a21.575,21.575,0,0,0-1.569-10.692A29.636,29.636,0,0,0,49.5,18.665l2.413-2.693a32.781,32.781,0,0,1,7.954,11.349,25.1,25.1,0,0,1,1.872,12.463,29.542,29.542,0,0,1-6.7,15.125Z" transform="translate(915.904 4882.671)" fill="#304f77"/>
      <path id="Trazado_208847" data-name="Trazado 208847" d="M29.969,41.272c-3.212-3.794-3.981-7.691-2.289-11.578a14.1,14.1,0,0,1,3.556-4.83l-2.373-2.472a17.407,17.407,0,0,0-4.493,6.048c-1.509,3.469-2.249,8.857,2.8,14.822Z" transform="translate(905.224 4885.283)" fill="#304f77"/>
      <path id="Trazado_208848" data-name="Trazado 208848" d="M24.507,47.533a19.949,19.949,0,0,1-4.552-10.173,16.5,16.5,0,0,1,1.241-8.181,22.465,22.465,0,0,1,5.34-7.659l-2.41-2.7a26,26,0,0,0-6.311,9,19.965,19.965,0,0,0-1.487,9.911,23.41,23.41,0,0,0,5.306,12Z" transform="translate(902.362 4883.832)" fill="#304f77"/>
      <path id="Trazado_208849" data-name="Trazado 208849" d="M18.855,52.711a26.091,26.091,0,0,1-5.934-13.225A21.575,21.575,0,0,1,14.49,28.794a29.636,29.636,0,0,1,7.034-10.129l-2.413-2.693a32.781,32.781,0,0,0-7.954,11.349A25.1,25.1,0,0,0,9.285,39.784a29.542,29.542,0,0,0,6.7,15.125Z" transform="translate(899.485 4882.671)" fill="#304f77"/>
      <path id="Trazado_208850" data-name="Trazado 208850" d="M25.577,65.2,36.871,35.552,46.752,65.2Z" transform="translate(906.172 4890.636)" fill="#9de1ab"/>
      <path id="Trazado_208851" data-name="Trazado 208851" d="M37.077,37.922,46.048,64.84H26.824Zm.059-3.172a.417.417,0,0,0-.407.225L24.979,65.825c-.075.2.128.39.407.39H47.418c.274,0,.475-.187.411-.38L37.547,34.985a.413.413,0,0,0-.411-.235" transform="translate(905.922 4890.31)" fill="#304f77"/>
      <path id="Trazado_208852" data-name="Trazado 208852" d="M34.472,34.037a2.475,2.475,0,1,1,2.475-2.475,2.477,2.477,0,0,1-2.475,2.475" transform="translate(908.784 4888.006)" fill="#9de1ab"/>
      <path id="Trazado_208853" data-name="Trazado 208853" d="M34.67,29.974a1.787,1.787,0,1,1-1.787,1.787,1.789,1.789,0,0,1,1.787-1.787m0-1.374a3.162,3.162,0,1,0,3.161,3.161A3.161,3.161,0,0,0,34.67,28.6" transform="translate(908.585 4887.808)" fill="#304f77"/>
    </g>
    <g id="Grupo_179159" data-name="Grupo 179159" transform="translate(-224.266 -7.009)">
      <path id="Trazado_208856" data-name="Trazado 208856" d="M62.7,40.36c0-.706-.038-1.4-.1-2.091l4.654-1.218-2.088-7.97-4.744,1.241a23.278,23.278,0,0,0-3.846-5.676L59.621,20.7,53.1,15.665l-3.084,4A23,23,0,0,0,43.587,17.5V12.42H35.348V17.5a23.045,23.045,0,0,0-6.129,2.011L26.193,15.47,19.6,20.41,22.59,24.4a23.126,23.126,0,0,0-3.014,3.95l-4.628-1.706L12.1,34.38l4.54,1.672a23.225,23.225,0,0,0-.406,4.309c0,.509.023,1.012.054,1.515l-4.609,1.205,2.088,7.972,4.506-1.181a23.236,23.236,0,0,0,3.844,5.93l-2.8,3.631,6.523,5.035,2.76-3.574a23.106,23.106,0,0,0,6.753,2.325v4.494h8.238V63.219a23.025,23.025,0,0,0,6.447-2.17l2.708,3.614,6.595-4.939L56.59,56.058a23.279,23.279,0,0,0,3.046-4.175l4.351,1.6,2.848-7.73-4.441-1.635A23.39,23.39,0,0,0,62.7,40.36M39.468,55.887a15.821,15.821,0,1,1,15.819-15.82,15.821,15.821,0,0,1-15.819,15.82" transform="translate(1426.458 4303.818)" fill="#9fe3ad"/>
      <path id="Trazado_208857" data-name="Trazado 208857" d="M44.48,68.573H34.815V63.956a23.769,23.769,0,0,1-5.837-2.01l-2.834,3.669-7.651-5.906,2.882-3.733a23.917,23.917,0,0,1-3.317-5.116l-4.62,1.212-2.449-9.353,4.736-1.239c-.016-.356-.024-.668-.024-.972a23.991,23.991,0,0,1,.314-3.845l-4.649-1.713,3.34-9.071,4.753,1.751A23.981,23.981,0,0,1,21.844,24.5l-3.066-4.09,7.739-5.8,3.1,4.143a23.8,23.8,0,0,1,5.2-1.7v-5.2H44.48v5.2a23.758,23.758,0,0,1,5.508,1.853l3.162-4.1L60.8,20.719l-3.116,4.04a23.959,23.959,0,0,1,3.3,4.874l4.873-1.273,2.448,9.348-4.767,1.248c.037.541.054,1.053.054,1.552a24.219,24.219,0,0,1-.228,3.289l4.565,1.682-3.34,9.068L60.128,52.9a23.96,23.96,0,0,1-2.437,3.341l2.824,3.769-7.737,5.794L50,62.1a23.776,23.776,0,0,1-5.519,1.857Zm-8.24-1.426h6.814V62.77l.587-.1a22.322,22.322,0,0,0,6.248-2.1l.535-.272,2.64,3.525,5.455-4.085-2.674-3.57.4-.436A22.573,22.573,0,0,0,59.2,51.677l.3-.523,4.248,1.562L66.1,46.323l-4.323-1.592.093-.58a22.78,22.78,0,0,0,.3-3.643c0-.638-.032-1.3-.1-2.027l-.054-.6,4.549-1.19L64.839,30.1l-4.623,1.208-.255-.531a22.55,22.55,0,0,0-3.729-5.5l-.406-.442L58.8,20.976l-5.394-4.163-3.009,3.9-.527-.27a22.318,22.318,0,0,0-6.229-2.1l-.587-.1V13.281H36.241v4.962l-.587.1A22.347,22.347,0,0,0,29.714,20.3l-.531.262L26.23,16.614,20.775,20.7,23.7,24.6l-.414.436a22.568,22.568,0,0,0-2.921,3.827l-.305.5L15.55,27.71,13.2,34.1l4.436,1.634-.112.593a22.627,22.627,0,0,0-.393,4.177c0,.429.016.882.053,1.47l.037.586-4.487,1.174,1.726,6.593,4.4-1.154.247.55a22.5,22.5,0,0,0,3.725,5.749l.393.441-2.728,3.535,5.393,4.164,2.692-3.486.531.281a22.36,22.36,0,0,0,6.544,2.254l.587.1Zm3.408-10.4A16.534,16.534,0,1,1,56.181,40.214,16.553,16.553,0,0,1,39.648,56.748m0-31.642A15.108,15.108,0,1,0,54.755,40.214,15.125,15.125,0,0,0,39.648,25.106" transform="translate(1426.278 4303.67)" fill="#12263f"/>
    </g>
  </g>
</svg>
