<svg xmlns="http://www.w3.org/2000/svg" xmlns:xlink="http://www.w3.org/1999/xlink" width="440.179" height="300" viewBox="0 0 440.179 300">
  <defs>
    <linearGradient id="linear-gradient" x1="0.145" y1="0.972" x2="0.611" y2="0.354" gradientUnits="objectBoundingBox">
      <stop offset="0.032" stop-color="#a2e6b0"/>
      <stop offset="1" stop-color="#48a5f0"/>
    </linearGradient>
    <linearGradient id="linear-gradient-2" x1="0.198" y1="0.9" x2="0.826" y2="0.123" gradientUnits="objectBoundingBox">
      <stop offset="0" stop-color="#a2e6b0"/>
      <stop offset="0.544" stop-color="#68bcda"/>
      <stop offset="1" stop-color="#48a5f0"/>
    </linearGradient>
    <clipPath id="clip-path">
      <rect id="Rectángulo_45944" data-name="Rectángulo 45944" width="440.179" height="300" fill="none"/>
    </clipPath>
    <clipPath id="clip-path-3">
      <rect id="Rectángulo_45939" data-name="Rectángulo 45939" width="2.839" height="2.807" fill="none"/>
    </clipPath>
    <clipPath id="clip-path-4">
      <rect id="Rectángulo_45940" data-name="Rectángulo 45940" width="2.835" height="2.793" fill="none"/>
    </clipPath>
    <clipPath id="clip-path-5">
      <rect id="Rectángulo_45941" data-name="Rectángulo 45941" width="11.118" height="17.039" fill="none"/>
    </clipPath>
    <clipPath id="clip-path-6">
      <rect id="Rectángulo_45942" data-name="Rectángulo 45942" width="61.418" height="37.174" fill="none"/>
    </clipPath>
  </defs>
  <g id="Grupo_179259" data-name="Grupo 179259" transform="translate(-8400.485 -1603)">
    <g id="Grupo_179109" data-name="Grupo 179109" transform="translate(0 -30.414)">
      <path id="Trazado_114057" data-name="Trazado 114057" d="M561.308,172.633c-1.945-2.691-4.085-5.53-7.22-6.621-3.6-1.253-7.766.241-10.418,2.983s-3.99,6.519-4.608,10.284c-2.438,14.84,6.445,30.783,20.347,36.52,5.346,2.206,11.634,2.943,16.825.393,8.373-4.113,11.013-15.882,4.557-22.863-2.291-2.479-5.9-3.5-8.409-5.806C568.016,183.508,564.774,177.427,561.308,172.633Z" transform="translate(7876.123 1711.609)" fill="url(#linear-gradient)"/>
      <ellipse id="Elipse_4923" data-name="Elipse 4923" cx="17.591" cy="17.591" rx="17.591" ry="17.591" transform="translate(8757.482 1643.599)" fill="url(#linear-gradient-2)"/>
      <ellipse id="Elipse_4924" data-name="Elipse 4924" cx="11.356" cy="11.356" rx="11.356" ry="11.356" transform="translate(8792.664 1678.782)" fill="url(#linear-gradient-2)"/>
      <g id="Grupo_146419" data-name="Grupo 146419" transform="translate(8400.485 1633.414)">
        <g id="Grupo_146418" data-name="Grupo 146418" clip-path="url(#clip-path)">
          <g id="Grupo_146417" data-name="Grupo 146417">
            <g id="Grupo_146416" data-name="Grupo 146416" clip-path="url(#clip-path)">
              <path id="Trazado_208386" data-name="Trazado 208386" d="M384.079,266.176H60a9.554,9.554,0,0,1-9.554-9.554V44.312a5.084,5.084,0,0,1,5.084-5.084H389.213a4.421,4.421,0,0,1,4.421,4.421V256.622a9.554,9.554,0,0,1-9.554,9.554" transform="translate(-5.405 -4.203)" fill="#375a64"/>
              <path id="Trazado_208387" data-name="Trazado 208387" d="M397.19,294.468H43.368a9,9,0,0,1-9-9V274.611h371.82v10.858a9,9,0,0,1-9,9" transform="translate(-3.682 -29.423)" fill="#375a64"/>
              <rect id="Rectángulo_45937" data-name="Rectángulo 45937" width="323.805" height="191.654" transform="translate(54.251 44.042)" fill="#f5f5f5"/>
              <path id="Trazado_208388" data-name="Trazado 208388" d="M204.738,274.611l4.614,7.339h64.924l4.284-7.339Z" transform="translate(-21.936 -29.423)" fill="#1a2e35"/>
              <rect id="Rectángulo_45938" data-name="Rectángulo 45938" width="343.19" height="1.095" transform="translate(45.094 245.121)" fill="#1a2e35"/>
              <path id="Trazado_208389" data-name="Trazado 208389" d="M159.166,35.758H123.513V23.2a16.313,16.313,0,0,1,16.044-16.36l19.609.312Z" transform="translate(-13.234 -0.733)" fill="#e1e1e1"/>
              <path id="Trazado_208390" data-name="Trazado 208390" d="M140.625,6.781s20.29-1.842,20.29,24.619V237.25H320.159V23.9A17.483,17.483,0,0,0,302.635,6.413Z" transform="translate(-15.067 -0.687)" fill="#fff"/>
              <path id="Trazado_208391" data-name="Trazado 208391" d="M140.625,6.764l117.813-.38L286.963,6.3l15.176-.04A17.852,17.852,0,0,1,309.8,7.77a18.074,18.074,0,0,1,6.359,4.766,17.677,17.677,0,0,1,3.64,7.213,16.576,16.576,0,0,1,.37,2.024c.1.681.087,1.374.136,2.063q0,2.056,0,4.129,0,8.29,0,16.838,0,17.091.007,35.146c0,48.1.009,100.986.013,156.494v.962h-.171l-159.244-.014h-.156v-.156c.025-71.273.046-131.79.062-174.493.008-10.675.015-20.236.021-28.573,0-2.085.025-4.093-.116-6.014a36.8,36.8,0,0,0-.762-5.484,28.719,28.719,0,0,0-1.559-4.807,21.861,21.861,0,0,0-2.287-3.946,17.368,17.368,0,0,0-5.747-4.929,18.91,18.91,0,0,0-5.221-1.848,19.856,19.856,0,0,0-3.373-.383c-.763-.019-1.152.01-1.152.01a9.959,9.959,0,0,1,1.152-.036,19.226,19.226,0,0,1,3.383.358,18.854,18.854,0,0,1,5.247,1.831,17.421,17.421,0,0,1,5.792,4.937,21.98,21.98,0,0,1,2.309,3.962,28.748,28.748,0,0,1,1.578,4.825,36.913,36.913,0,0,1,.776,5.5c.145,1.928.124,3.94.128,6.023.005,8.338.013,17.9.021,28.573.015,42.7.037,103.22.063,174.493l-.157-.157,159.244-.013-.171.171v-.791c.005-55.508.01-108.391.014-156.494q0-18.038.007-35.146,0-8.546,0-16.838c-.042-2.761.2-5.529-.5-8.149a17.385,17.385,0,0,0-3.577-7.1,17.794,17.794,0,0,0-6.254-4.694,17.551,17.551,0,0,0-7.546-1.489l-15.2.029-28.581.047-117.73.154" transform="translate(-15.067 -0.671)" fill="#1a2e35"/>
              <path id="Trazado_208392" data-name="Trazado 208392" d="M234.5,76.769c0,.095-9.684.171-21.627.171s-21.629-.076-21.629-.171,9.682-.171,21.629-.171,21.627.076,21.627.171" transform="translate(-20.491 -8.207)" fill="#1a2e35"/>
              <path id="Trazado_208393" data-name="Trazado 208393" d="M244.2,82.562c0,.095-11.854.171-26.475.171s-26.477-.076-26.477-.171,11.852-.171,26.477-.171,26.475.076,26.475.171" transform="translate(-20.491 -8.828)" fill="#1a2e35"/>
              <path id="Trazado_208394" data-name="Trazado 208394" d="M247.883,105.368c0,.095-12.24.171-27.336.171s-27.339-.076-27.339-.171,12.238-.171,27.339-.171,27.336.076,27.336.171" transform="translate(-20.701 -11.271)" fill="#1a2e35"/>
              <path id="Trazado_208395" data-name="Trazado 208395" d="M283.476,127.594c0,.095-20.463.171-45.7.171s-45.705-.076-45.705-.171,20.459-.171,45.705-.171,45.7.076,45.7.171" transform="translate(-20.579 -13.652)" fill="#1a2e35"/>
              <path id="Trazado_208396" data-name="Trazado 208396" d="M283.476,134.226c0,.095-20.463.171-45.7.171s-45.705-.076-45.705-.171,20.459-.171,45.705-.171,45.7.076,45.7.171" transform="translate(-20.579 -14.363)" fill="#1a2e35"/>
              <path id="Trazado_208397" data-name="Trazado 208397" d="M283.476,140.858c0,.095-20.463.171-45.7.171s-45.705-.076-45.705-.171,20.459-.171,45.705-.171,45.7.076,45.7.171" transform="translate(-20.579 -15.074)" fill="#1a2e35"/>
              <path id="Trazado_208398" data-name="Trazado 208398" d="M283.476,147.49c0,.095-20.463.171-45.7.171s-45.705-.076-45.705-.171,20.459-.171,45.705-.171,45.7.076,45.7.171" transform="translate(-20.579 -15.784)" fill="#1a2e35"/>
              <path id="Trazado_208399" data-name="Trazado 208399" d="M283.476,154.122c0,.095-20.463.171-45.7.171s-45.705-.076-45.705-.171,20.459-.171,45.705-.171,45.7.076,45.7.171" transform="translate(-20.579 -16.495)" fill="#1a2e35"/>
              <path id="Trazado_208400" data-name="Trazado 208400" d="M226.732,160.754c0,.095-7.76.171-17.33.171s-17.332-.076-17.332-.171,7.758-.171,17.332-.171,17.33.076,17.33.171" transform="translate(-20.579 -17.205)" fill="#1a2e35"/>
              <path id="Trazado_208401" data-name="Trazado 208401" d="M304.577,188.75c0,.095-9.075.171-20.268.171s-20.27-.076-20.27-.171,9.073-.171,20.27-.171,20.268.076,20.268.171" transform="translate(-28.29 -20.205)" fill="#1a2e35"/>
              <path id="Trazado_208402" data-name="Trazado 208402" d="M304.577,195.157c0,.095-9.075.171-20.268.171s-20.27-.076-20.27-.171,9.073-.171,20.27-.171,20.268.076,20.268.171" transform="translate(-28.29 -20.891)" fill="#1a2e35"/>
              <path id="Trazado_208403" data-name="Trazado 208403" d="M302.186,220.883a1.7,1.7,0,0,1-.032-.285c-.014-.2-.034-.479-.059-.833q-.017-.277-.039-.613c-.024-.225-.073-.469-.113-.733a12.918,12.918,0,0,0-.371-1.811,16.781,16.781,0,0,0-1.952-4.651,17.435,17.435,0,0,0-20.941-7.432,16.021,16.021,0,0,0-4.405,2.371,15.954,15.954,0,0,0-3.679,3.7,16.85,16.85,0,0,0-2.487,4.8,17.255,17.255,0,0,0,0,10.984,16.871,16.871,0,0,0,2.488,4.8,15.964,15.964,0,0,0,3.68,3.7,15.981,15.981,0,0,0,4.406,2.372,17.476,17.476,0,0,0,20.941-7.433,16.753,16.753,0,0,0,1.952-4.651,12.777,12.777,0,0,0,.371-1.81c.04-.265.089-.508.113-.733s.028-.429.039-.613c.025-.354.045-.63.059-.834a1.693,1.693,0,0,1,.032-.284,1.64,1.64,0,0,1,0,.285c-.005.2-.014.482-.025.838-.007.186-.014.391-.023.617s-.062.471-.1.739a12.506,12.506,0,0,1-.341,1.828,16.618,16.618,0,0,1-1.917,4.716,17.684,17.684,0,0,1-11.9,8.379,17.742,17.742,0,0,1-9.311-.748,16.257,16.257,0,0,1-4.493-2.405,16.261,16.261,0,0,1-3.756-3.762,17.187,17.187,0,0,1-2.54-4.888,17.561,17.561,0,0,1,0-11.2,17.168,17.168,0,0,1,2.541-4.887,16.225,16.225,0,0,1,3.755-3.761,16.237,16.237,0,0,1,4.492-2.405,17.735,17.735,0,0,1,9.309-.748,17.684,17.684,0,0,1,11.9,8.379,16.67,16.67,0,0,1,1.917,4.716,12.537,12.537,0,0,1,.341,1.829c.036.267.079.512.1.738s.016.432.023.618c.011.355.02.633.025.837a1.64,1.64,0,0,1,0,.285" transform="translate(-28.593 -21.769)" fill="#9fe3ad"/>
              <path id="Trazado_208404" data-name="Trazado 208404" d="M296.682,221.651a11.3,11.3,0,1,1-11.3-11.3,11.3,11.3,0,0,1,11.3,11.3" transform="translate(-29.367 -22.538)" fill="#9fe3ad"/>
              <path id="Trazado_208405" data-name="Trazado 208405" d="M307.389,212.113s-.158.1-.475.266l-1.411.746-5.425,2.829-8.569,4.428a8.486,8.486,0,0,1-2.792.892,3.771,3.771,0,0,1-2.96-.9,2.752,2.752,0,0,1-.876-1.411,1.788,1.788,0,0,1,.375-1.659,2.343,2.343,0,0,1,1.579-.763,1.47,1.47,0,0,1,1.547.866l.008.022v.022a7.782,7.782,0,0,1-1.9,5.166,7.316,7.316,0,0,1-5.226,2.628,7.942,7.942,0,0,1-5.829-2.106,5.278,5.278,0,0,1-1.679-2.825,2.709,2.709,0,0,1,.221-1.7,2.469,2.469,0,0,1,1.275-1.193,1.821,1.821,0,0,1,1.749.238,3,3,0,0,1,.993,1.47,5.32,5.32,0,0,1,.27,1.739,5.013,5.013,0,0,1-.022.881,5.2,5.2,0,0,1-.112.878,10.176,10.176,0,0,1-3.656,6.039,8.962,8.962,0,0,1-6.954,2,10.058,10.058,0,0,1-6.359-3.87,9.559,9.559,0,0,1-1.827-3.938,7.31,7.31,0,0,1,.324-4.274,3.579,3.579,0,0,1,1.4-1.652,2.975,2.975,0,0,1,2.121-.4,2.536,2.536,0,0,1,1.683,1.321,7.444,7.444,0,0,1,.689,1.974,13.968,13.968,0,0,1-.485,7.979,11.4,11.4,0,0,1-4.817,5.927,11.193,11.193,0,0,1-7.107,1.549,9.266,9.266,0,0,1-3.364-1.089,9.126,9.126,0,0,1-2.61-2.22,9.479,9.479,0,0,1-2.169-6.025,7.987,7.987,0,0,1,.628-3,3.652,3.652,0,0,1,2.037-2.091,2.643,2.643,0,0,1,1.452-.04,3.112,3.112,0,0,1,1.206.729,5.83,5.83,0,0,1,1.382,2.267,7.443,7.443,0,0,1,.44,2.463c.009.4.021.8,0,1.191-.008.39-.03.773-.073,1.149a19.766,19.766,0,0,1-2.211,7.364,19.094,19.094,0,0,1-2.808,3.979c-.373.415-.683.706-.894.9s-.321.288-.321.288.1-.111.3-.313.5-.5.867-.921a19.754,19.754,0,0,0,4.879-11.314c.04-.371.061-.751.066-1.137.021-.387.007-.779,0-1.178a7.253,7.253,0,0,0-.44-2.4,5.635,5.635,0,0,0-1.336-2.174,2.886,2.886,0,0,0-1.113-.668,2.4,2.4,0,0,0-1.31.043,3.408,3.408,0,0,0-1.882,1.965,7.733,7.733,0,0,0-.6,2.9,9.221,9.221,0,0,0,2.124,5.844,8.867,8.867,0,0,0,2.535,2.144,8.973,8.973,0,0,0,3.258,1.046,10.889,10.889,0,0,0,6.907-1.521,11.091,11.091,0,0,0,4.674-5.771,13.657,13.657,0,0,0,.464-7.79,7.143,7.143,0,0,0-.656-1.884,2.19,2.19,0,0,0-1.46-1.157,2.649,2.649,0,0,0-1.878.364,3.242,3.242,0,0,0-1.269,1.5,6.985,6.985,0,0,0-.3,4.068,9.213,9.213,0,0,0,1.763,3.8,9.716,9.716,0,0,0,6.138,3.741,8.632,8.632,0,0,0,6.693-1.923,9.848,9.848,0,0,0,3.542-5.837,4.821,4.821,0,0,0,.11-.845,4.709,4.709,0,0,0,.022-.846,5.006,5.006,0,0,0-.25-1.643,2.692,2.692,0,0,0-.875-1.313,1.493,1.493,0,0,0-1.445-.2,2.151,2.151,0,0,0-1.105,1.036,2.4,2.4,0,0,0-.194,1.509,4.976,4.976,0,0,0,1.582,2.653,7.644,7.644,0,0,0,5.6,2.036,7.028,7.028,0,0,0,5.029-2.515,7.523,7.523,0,0,0,1.847-4.977l.008.045a1.2,1.2,0,0,0-1.283-.7,2.089,2.089,0,0,0-1.408.672,1.538,1.538,0,0,0-.325,1.438,2.515,2.515,0,0,0,.8,1.287,3.542,3.542,0,0,0,2.779.856,8.269,8.269,0,0,0,2.723-.859l8.592-4.369,5.457-2.766,1.429-.713c.322-.159.493-.231.493-.231" transform="translate(-26.251 -22.726)" fill="#1a2e35"/>
              <path id="Trazado_208406" data-name="Trazado 208406" d="M241.632,30.886c0,.095-13.875.171-30.986.171s-30.989-.076-30.989-.171,13.871-.171,30.989-.171,30.986.076,30.986.171" transform="translate(-19.249 -3.291)" fill="#e1e1e1"/>
              <path id="Trazado_208407" data-name="Trazado 208407" d="M260.122,30.886a13.661,13.661,0,0,1-4.3,0,13.661,13.661,0,0,1,4.3,0" transform="translate(-27.409 -3.291)" fill="#e1e1e1"/>
              <path id="Trazado_208408" data-name="Trazado 208408" d="M322.945,30.886c0,.095-12.654.171-28.261.171s-28.263-.076-28.263-.171,12.652-.171,28.263-.171,28.261.076,28.261.171" transform="translate(-28.545 -3.291)" fill="#e1e1e1"/>
              <path id="Trazado_208409" data-name="Trazado 208409" d="M241.632,50.2c0,.1-13.875.171-30.986.171s-30.989-.076-30.989-.171,13.871-.17,30.989-.17,30.986.076,30.986.17" transform="translate(-19.249 -5.36)" fill="#e1e1e1"/>
              <path id="Trazado_208410" data-name="Trazado 208410" d="M260.122,50.2a13.59,13.59,0,0,1-4.3,0,13.732,13.732,0,0,1,4.3,0" transform="translate(-27.409 -5.36)" fill="#e1e1e1"/>
              <path id="Trazado_208411" data-name="Trazado 208411" d="M322.945,50.2c0,.1-12.654.171-28.261.171s-28.263-.076-28.263-.171,12.652-.17,28.263-.17,28.261.076,28.261.17" transform="translate(-28.545 -5.36)" fill="#e1e1e1"/>
              <path id="Trazado_208412" data-name="Trazado 208412" d="M282.194,120.914l-24.468,56.854a1.437,1.437,0,0,0,1.9,1.883l18.86-8.325a1.436,1.436,0,0,1,1.944.861l6.363,19.1a1.437,1.437,0,0,0,2.709.05l23-61.326Z" transform="translate(-27.6 -12.955)" fill="#ff735d"/>
              <path id="Trazado_208413" data-name="Trazado 208413" d="M320.855,130.37l11.72,60.776a1.438,1.438,0,0,0,2.631.489l10.918-17.486a1.438,1.438,0,0,1,2.092-.381l16,12.221a1.438,1.438,0,0,0,2.27-1.481l-15.451-63.646Z" transform="translate(-34.377 -12.949)" fill="#ff735d"/>
              <path id="Trazado_208414" data-name="Trazado 208414" d="M282.194,120.914l-24.468,56.854a1.437,1.437,0,0,0,1.9,1.883l18.86-8.325a1.436,1.436,0,0,1,1.944.861l6.363,19.1a1.437,1.437,0,0,0,2.709.05l23-61.326Z" transform="translate(-27.6 -12.955)" fill="#9fe3ad"/>
              <path id="Trazado_208415" data-name="Trazado 208415" d="M320.855,130.37l11.72,60.776a1.438,1.438,0,0,0,2.631.489l10.918-17.486a1.438,1.438,0,0,1,2.092-.381l16,12.221a1.438,1.438,0,0,0,2.27-1.481l-15.451-63.646Z" transform="translate(-34.377 -12.949)" fill="#9fe3ad"/>
              <path id="Trazado_208416" data-name="Trazado 208416" d="M314.515,8.584l8.032-5.9,6.313,7.716,9.248-3.721,4.2,9.043,9.882-1.3,1.814,9.8,9.9,1.2-.68,9.946,9.288,3.619-3.132,9.463,8.1,5.815-5.388,8.388,6.4,7.646-7.3,6.784,4.294,9-8.762,4.754,1.921,9.782-9.669,2.426-.571,9.952-9.969-.054-3.028,9.5-9.642-2.531-5.3,8.446-8.709-4.85-7.229,6.863-7.229-6.863-8.709,4.85-5.3-8.446-9.642,2.531-3.029-9.5-9.968.054-.571-9.952-9.669-2.426,1.921-9.782-8.762-4.754,4.294-9-7.3-6.784,6.4-7.646-5.387-8.388,8.1-5.815-3.132-9.463,9.288-3.619-.68-9.946,9.9-1.2,1.814-9.8,9.883,1.3,4.2-9.043L300.17,10.4l6.312-7.716Z" transform="translate(-26.845 -0.287)" fill="#3d5075"/>
              <path id="Trazado_208417" data-name="Trazado 208417" d="M361.921,68.76a45.148,45.148,0,1,1-45.147-45.147A45.147,45.147,0,0,1,361.921,68.76" transform="translate(-29.103 -2.53)" fill="#fff"/>
              <path id="Trazado_208418" data-name="Trazado 208418" d="M329.256,60.56l12.116,1.774a2.428,2.428,0,0,1,1.341,4.142l-8.779,8.537a2.426,2.426,0,0,0-.7,2.147l2.057,12.072a2.427,2.427,0,0,1-3.525,2.554l-10.832-5.711a2.429,2.429,0,0,0-2.259,0l-10.846,5.687A2.427,2.427,0,0,1,304.31,89.2l2.084-12.067a2.428,2.428,0,0,0-.7-2.149l-8.759-8.558a2.426,2.426,0,0,1,1.35-4.137l12.12-1.748a2.425,2.425,0,0,0,1.829-1.325l5.431-10.976a2.428,2.428,0,0,1,4.354.005l5.407,10.988a2.429,2.429,0,0,0,1.826,1.329" transform="translate(-31.736 -5.024)" fill="#48a2ed"/>
              <path id="Trazado_208419" data-name="Trazado 208419" d="M462.789,122.178s-7.82,32.027-42.821,24.69c0,0,10.145-32.433,42.821-24.69" transform="translate(-44.997 -12.962)" fill="#1a2e35"/>
              <path id="Trazado_208420" data-name="Trazado 208420" d="M443.873,175.961s-16.068,23.957-42.614,7.389c0,0,18.1-23.59,42.614-7.389" transform="translate(-42.992 -18.244)" fill="#1a2e35"/>
              <path id="Trazado_208421" data-name="Trazado 208421" d="M414.807,216.143s-23.444,19.938-45.895-4.77c0,0,25.424-18.972,45.895,4.77" transform="translate(-39.526 -21.878)" fill="#1a2e35"/>
              <path id="Trazado_208422" data-name="Trazado 208422" d="M392.1,130.792s26,12.493,13.382,41.128c0,0-25.928-14.556-13.382-41.128" transform="translate(-41.643 -14.013)" fill="#1a2e35"/>
              <path id="Trazado_208423" data-name="Trazado 208423" d="M384.956,169.456S397.922,186.963,378.6,202c0,0-12.142-18.882,6.356-32.548" transform="translate(-40.145 -18.156)" fill="#1a2e35"/>
              <path id="Trazado_208424" data-name="Trazado 208424" d="M450.535,80.373s2.982,25.96-25.056,30.118c0,0-1.366-26.9,25.056-30.118" transform="translate(-45.586 -8.611)" fill="#1a2e35"/>
              <path id="Trazado_208425" data-name="Trazado 208425" d="M408.2,50.957s22.679,9.472,12.829,36.051c0,0-22.726-11.342-12.829-36.051" transform="translate(-43.469 -5.46)" fill="#1a2e35"/>
              <path id="Trazado_208426" data-name="Trazado 208426" d="M393.145,93.436s30.029,3.426,27.385,36.105c0,0-30.666-5.494-27.385-36.105" transform="translate(-42.096 -10.011)" fill="#1a2e35"/>
              <path id="Trazado_208427" data-name="Trazado 208427" d="M345.316,206.795s.128-.044.38-.113l1.124-.3c.988-.261,2.456-.606,4.3-1.211a82.97,82.97,0,0,0,15.116-6.363,91.866,91.866,0,0,0,19.586-14.358,102.365,102.365,0,0,0,9.677-10.626q1.117-1.5,2.252-3.027l1.138-1.533c.367-.522.7-1.07,1.059-1.606q1.055-1.618,2.124-3.26l1.956-3.422.976-1.721.871-1.762c.574-1.173,1.163-2.33,1.714-3.494q.755-1.779,1.5-3.53c.245-.586.5-1.162.732-1.748l.633-1.769q.631-1.761,1.251-3.49l1.031-3.488.507-1.716c.171-.569.281-1.15.423-1.72q.4-1.713.8-3.388a101.379,101.379,0,0,0,2.234-24.2,104.882,104.882,0,0,0-1.825-16.312c-.408-1.9-.771-3.359-.99-4.357-.11-.49-.194-.867-.254-1.136s-.076-.389-.076-.389.043.128.109.38.163.641.287,1.128c.241.994.626,2.454,1.054,4.348a98.779,98.779,0,0,1-.231,40.605l-.794,3.4c-.142.571-.251,1.155-.422,1.725l-.506,1.723q-.51,1.733-1.03,3.5-.619,1.736-1.251,3.5-.316.884-.634,1.775c-.229.588-.488,1.167-.733,1.754l-1.5,3.544c-.554,1.168-1.144,2.329-1.72,3.506l-.874,1.769q-.488.86-.979,1.726l-1.963,3.434-2.132,3.271c-.357.538-.7,1.087-1.064,1.611L398.026,171l-2.263,3.036a102.071,102.071,0,0,1-9.722,10.646,91.277,91.277,0,0,1-19.688,14.343,80.851,80.851,0,0,1-15.192,6.277c-1.854.587-3.329.912-4.323,1.151l-1.133.265c-.255.058-.388.079-.388.079" transform="translate(-36.998 -9.295)" fill="#1a2e35"/>
              <path id="Trazado_208428" data-name="Trazado 208428" d="M382.615,185.265a3.068,3.068,0,0,1-.024.734c-.037.47-.107,1.148-.21,1.984-.2,1.672-.549,3.977-1.042,6.5s-1.041,4.789-1.481,6.415c-.221.813-.41,1.468-.553,1.917a2.988,2.988,0,0,1-.254.689,3.069,3.069,0,0,1,.126-.723q.184-.8.446-1.942c.38-1.638.888-3.9,1.381-6.422s.873-4.807,1.137-6.469c.125-.772.23-1.429.317-1.967a3.064,3.064,0,0,1,.156-.717" transform="translate(-40.612 -19.85)" fill="#375a64"/>
              <path id="Trazado_208429" data-name="Trazado 208429" d="M387.958,214.119a3.1,3.1,0,0,1-.738-.067l-1.992-.292c-1.681-.25-4-.58-6.579-.882s-4.912-.516-6.6-.662l-2.005-.177a3.113,3.113,0,0,1-.734-.105,3.119,3.119,0,0,1,.741-.028c.476,0,1.164.027,2.014.069,1.7.084,4.047.262,6.629.563s4.9.672,6.578.984c.837.154,1.513.292,1.977.4a3.069,3.069,0,0,1,.714.2" transform="translate(-39.568 -22.704)" fill="#375a64"/>
              <path id="Trazado_208430" data-name="Trazado 208430" d="M422.953,178.793a4.489,4.489,0,0,1-.866.209l-2.376.469c-2.005.4-4.769.973-7.8,1.706s-5.752,1.487-7.716,2.054l-2.327.671a4.444,4.444,0,0,1-.865.211,4.469,4.469,0,0,1,.825-.337c.538-.2,1.322-.463,2.3-.776,1.949-.626,4.668-1.417,7.705-2.154s5.817-1.277,7.837-1.613c1.01-.169,1.829-.291,2.4-.363a4.442,4.442,0,0,1,.888-.078" transform="translate(-42.965 -19.156)" fill="#375a64"/>
              <path id="Trazado_208431" data-name="Trazado 208431" d="M399.884,151.3a5.094,5.094,0,0,1,.534.8c.329.521.769,1.3,1.276,2.277a44.42,44.42,0,0,1,4.736,16.471c.09,1.1.131,1.99.129,2.607a5,5,0,0,1-.03.957,5.276,5.276,0,0,1-.1-.952c-.038-.613-.116-1.5-.237-2.588a50.137,50.137,0,0,0-4.712-16.387c-.477-.988-.882-1.779-1.175-2.32a5.114,5.114,0,0,1-.419-.861" transform="translate(-42.844 -16.211)" fill="#375a64"/>
              <path id="Trazado_208432" data-name="Trazado 208432" d="M436.9,134.57a4.035,4.035,0,0,1-.691.487l-1.924,1.255c-1.615,1.071-3.805,2.614-6.1,4.473s-4.26,3.686-5.643,5.045l-1.627,1.621a3.991,3.991,0,0,1-.62.575,3.981,3.981,0,0,1,.522-.665c.351-.415.88-1,1.553-1.7a61.643,61.643,0,0,1,11.788-9.552c.827-.512,1.507-.909,1.987-1.166a4.006,4.006,0,0,1,.759-.373" transform="translate(-45.031 -14.418)" fill="#375a64"/>
              <path id="Trazado_208433" data-name="Trazado 208433" d="M402.168,108.021c.008-.009.093.056.246.188l.662.59c.571.516,1.379,1.282,2.359,2.247,1.963,1.929,4.591,4.681,7.317,7.878s5.025,6.231,6.618,8.475c.8,1.121,1.426,2.04,1.844,2.687l.478.746a1.042,1.042,0,0,1,.147.273c-.01.006-.079-.074-.2-.235l-.529-.71-1.93-2.619c-1.64-2.2-3.965-5.2-6.682-8.4s-5.312-5.96-7.229-7.929l-2.279-2.322-.617-.636c-.138-.148-.207-.229-.2-.238" transform="translate(-43.089 -11.574)" fill="#375a64"/>
              <path id="Trazado_208434" data-name="Trazado 208434" d="M440.84,89.824a6.072,6.072,0,0,1-.646.811l-1.821,2.152c-1.527,1.824-3.579,4.392-5.69,7.343s-3.876,5.726-5.108,7.761l-1.447,2.419a6.07,6.07,0,0,1-.558.872,5.956,5.956,0,0,1,.442-.937c.3-.595.763-1.441,1.355-2.477,1.181-2.071,2.921-4.873,5.038-7.837s4.208-5.512,5.785-7.3c.788-.895,1.44-1.605,1.905-2.084a6.058,6.058,0,0,1,.744-.721" transform="translate(-45.597 -9.624)" fill="#375a64"/>
              <path id="Trazado_208435" data-name="Trazado 208435" d="M412.265,62.221a6.429,6.429,0,0,1,.472.952c.284.621.679,1.526,1.155,2.65.953,2.249,2.212,5.379,3.506,8.873s2.375,6.693,3.116,9.02c.371,1.163.66,2.108.848,2.764a6.332,6.332,0,0,1,.261,1.029,6.392,6.392,0,0,1-.388-.988c-.244-.7-.564-1.62-.951-2.729-.8-2.305-1.915-5.485-3.207-8.977s-2.514-6.63-3.409-8.9l-1.054-2.691a6.294,6.294,0,0,1-.35-1" transform="translate(-44.171 -6.667)" fill="#375a64"/>
              <path id="Trazado_208436" data-name="Trazado 208436" d="M28.071,114.2s7.389,30.265,40.465,23.331c0,0-9.586-30.648-40.465-23.331" transform="translate(-3.008 -12.115)" fill="#1a2e35"/>
              <path id="Trazado_208437" data-name="Trazado 208437" d="M45.969,165.025s15.184,22.639,40.27,6.983c0,0-17.1-22.293-40.27-6.983" transform="translate(-4.925 -17.106)" fill="#1a2e35"/>
              <path id="Trazado_208438" data-name="Trazado 208438" d="M73.065,203s22.154,18.84,43.37-4.507c0,0-24.025-17.929-43.37,4.507" transform="translate(-7.828 -20.54)" fill="#1a2e35"/>
              <path id="Trazado_208439" data-name="Trazado 208439" d="M97.432,122.34s-24.571,11.806-12.646,38.865c0,0,24.5-13.756,12.646-38.865" transform="translate(-8.734 -13.108)" fill="#1a2e35"/>
              <path id="Trazado_208440" data-name="Trazado 208440" d="M104.831,158.878s-12.253,16.544,6.006,30.757c0,0,11.474-17.843-6.006-30.757" transform="translate(-10.801 -17.023)" fill="#1a2e35"/>
              <path id="Trazado_208441" data-name="Trazado 208441" d="M41.654,74.695s-2.818,24.531,23.678,28.461c0,0,1.29-25.42-23.678-28.461" transform="translate(-4.454 -8.003)" fill="#1a2e35"/>
              <path id="Trazado_208442" data-name="Trazado 208442" d="M82.489,46.9S61.057,55.848,70.366,80.964c0,0,21.475-10.717,12.123-34.067" transform="translate(-7.288 -5.025)" fill="#1a2e35"/>
              <path id="Trazado_208443" data-name="Trazado 208443" d="M95.588,87.04S67.21,90.277,69.71,121.159c0,0,28.979-5.191,25.878-34.119" transform="translate(-7.452 -9.326)" fill="#1a2e35"/>
              <path id="Trazado_208444" data-name="Trazado 208444" d="M142.028,196.264s-.131-.02-.384-.074l-1.121-.253c-.984-.229-2.443-.535-4.283-1.08a95.7,95.7,0,0,1-25.036-11.1,90.5,90.5,0,0,1-10.409-7.586,91.746,91.746,0,0,1-10.172-9.954l-2.388-2.876c-.773-.99-1.512-2.021-2.278-3.041l-1.145-1.542q-.528-.806-1.057-1.62c-.7-1.089-1.437-2.163-2.113-3.284-1.288-2.282-2.629-4.5-3.7-6.821-1.187-2.262-2.116-4.6-3.084-6.875a97.248,97.248,0,0,1-6.764-37.511,96.536,96.536,0,0,1,1.814-16.132c.395-1.877.8-3.313,1.027-4.3l.283-1.112c.065-.25.108-.376.108-.376s-.02.132-.074.385-.142.638-.25,1.121c-.21.987-.589,2.428-.963,4.305a99.715,99.715,0,0,0-1.7,16.112,97.753,97.753,0,0,0,6.834,37.381c.967,2.264,1.895,4.595,3.078,6.849,1.069,2.311,2.405,4.521,3.688,6.795.674,1.117,1.411,2.187,2.105,3.272l1.053,1.613,1.14,1.537c.762,1.017,1.5,2.044,2.267,3.03l2.376,2.867A92.122,92.122,0,0,0,101,175.929a91.071,91.071,0,0,0,10.357,7.587,93.345,93.345,0,0,0,9.789,5.424,95.874,95.874,0,0,0,15.132,5.789c1.832.564,3.284.891,4.262,1.141l1.113.286c.25.065.377.108.377.108" transform="translate(-7.293 -8.649)" fill="#1a2e35"/>
              <path id="Trazado_208445" data-name="Trazado 208445" d="M108.283,173.817a2.737,2.737,0,0,1,.151.678q.126.77.3,1.858c.252,1.569.614,3.733,1.079,6.112s.944,4.521,1.3,6.07q.245,1.074.419,1.836a2.7,2.7,0,0,1,.115.684,2.77,2.77,0,0,1-.244-.65c-.136-.424-.316-1.043-.525-1.812-.418-1.536-.936-3.676-1.4-6.062s-.791-4.563-.982-6.144c-.1-.79-.162-1.431-.2-1.876a2.751,2.751,0,0,1-.019-.694" transform="translate(-11.6 -18.623)" fill="#375a64"/>
              <path id="Trazado_208446" data-name="Trazado 208446" d="M101.526,201.084a2.754,2.754,0,0,1,.675-.191c.438-.1,1.076-.232,1.867-.379,1.581-.3,3.778-.646,6.216-.932s4.657-.453,6.264-.529c.8-.039,1.454-.06,1.9-.062a2.742,2.742,0,0,1,.7.03,2.792,2.792,0,0,1-.693.1l-1.9.17c-1.6.139-3.808.344-6.241.629s-4.628.6-6.216.831l-1.883.272a2.762,2.762,0,0,1-.7.06" transform="translate(-10.878 -21.32)" fill="#375a64"/>
              <path id="Trazado_208447" data-name="Trazado 208447" d="M68.082,167.7a3.962,3.962,0,0,1,.839.071c.537.065,1.312.18,2.266.339,1.909.315,4.536.826,7.406,1.521s5.44,1.445,7.281,2.038c.921.3,1.662.548,2.171.736a4.012,4.012,0,0,1,.779.321,3.972,3.972,0,0,1-.82-.2l-2.2-.63c-1.856-.533-4.429-1.243-7.292-1.938s-5.474-1.239-7.369-1.615L68.9,167.9a4.011,4.011,0,0,1-.818-.2" transform="translate(-7.294 -17.967)" fill="#375a64"/>
              <path id="Trazado_208448" data-name="Trazado 208448" d="M91.614,141.721a4.575,4.575,0,0,1-.392.815c-.277.511-.658,1.259-1.108,2.193a47.581,47.581,0,0,0-4.452,15.483c-.115,1.029-.189,1.867-.226,2.446a4.66,4.66,0,0,1-.1.9,4.608,4.608,0,0,1-.032-.9c0-.583.034-1.426.119-2.464A41.844,41.844,0,0,1,89.9,144.621c.48-.924.9-1.659,1.208-2.15a4.547,4.547,0,0,1,.508-.75" transform="translate(-9.14 -15.184)" fill="#375a64"/>
              <path id="Trazado_208449" data-name="Trazado 208449" d="M55.511,125.911a3.637,3.637,0,0,1,.72.349c.454.243,1.1.617,1.879,1.1a57.924,57.924,0,0,1,11.14,9.027c.635.665,1.135,1.216,1.465,1.61a3.567,3.567,0,0,1,.491.631,3.625,3.625,0,0,1-.588-.541l-1.539-1.529c-1.308-1.283-3.164-3-5.334-4.765s-4.239-3.215-5.765-4.229l-1.816-1.189a3.563,3.563,0,0,1-.652-.463" transform="translate(-5.948 -13.49)" fill="#375a64"/>
              <path id="Trazado_208450" data-name="Trazado 208450" d="M87.982,100.822a7.143,7.143,0,0,1-.768.829l-2.153,2.2c-1.809,1.862-4.259,4.481-6.828,7.494s-4.766,5.851-6.317,7.932l-1.827,2.474a7.1,7.1,0,0,1-.7.889,7.162,7.162,0,0,1,.588-.965c.395-.611.987-1.48,1.74-2.54,1.5-2.121,3.678-4.988,6.252-8.012s5.061-5.621,6.917-7.442c.928-.912,1.691-1.636,2.231-2.122a7.208,7.208,0,0,1,.861-.733" transform="translate(-7.435 -10.802)" fill="#375a64"/>
              <path id="Trazado_208451" data-name="Trazado 208451" d="M51.936,83.626a5.407,5.407,0,0,1,.706.679c.44.451,1.057,1.122,1.8,1.967,1.491,1.689,3.467,4.1,5.469,6.9s3.644,5.451,4.76,7.408c.558.979.994,1.779,1.278,2.342a5.3,5.3,0,0,1,.414.887,5.4,5.4,0,0,1-.53-.823l-1.37-2.283c-1.166-1.922-2.836-4.541-4.829-7.332s-3.934-5.215-5.375-6.94l-1.718-2.035a5.412,5.412,0,0,1-.607-.769" transform="translate(-5.564 -8.96)" fill="#375a64"/>
              <path id="Trazado_208452" data-name="Trazado 208452" d="M79.609,57.542a5.674,5.674,0,0,1-.327.949c-.257.658-.592,1.514-.994,2.544-.844,2.146-2,5.113-3.22,8.412s-2.277,6.3-3.033,8.482l-.9,2.578a5.518,5.518,0,0,1-.37.933,5.632,5.632,0,0,1,.244-.974c.177-.621.449-1.513.8-2.613.7-2.2,1.721-5.221,2.943-8.524s2.413-6.26,3.315-8.384c.451-1.063.825-1.918,1.095-2.5a5.74,5.74,0,0,1,.45-.9" transform="translate(-7.582 -6.165)" fill="#375a64"/>
              <path id="Trazado_208453" data-name="Trazado 208453" d="M147.538,91.958c4.78.619,5.492,5.523,7.262,9.631s5.161,7.773,7.767,11.453c1.379,1.946,3.256,3.693,3.754,6,.521,2.416-.58,4.913-1.1,7.375s-.157,5.469,2.2,6.554a2.652,2.652,0,0,1-2.165.913,2.853,2.853,0,0,1-2.285,2.438,8.877,8.877,0,0,1-3.642-.035c.322.754-.362,1.661-1.207,1.959a4.952,4.952,0,0,1-2.629-.024,6.371,6.371,0,0,0-2.628-.189c-1.944.422-3.119,2.613-5.085,2.9-2.7.389-4.646-3.065-7.31-2.462-1.254.284-2.091,1.379-3.12,2.124s-2.765.555-3.253-.514a11.114,11.114,0,0,1-5.969,4.029,2.172,2.172,0,0,0-.452-2.362,9.106,9.106,0,0,1-4.443,1.949,4.552,4.552,0,0,0,1.484-3.554,4.568,4.568,0,0,1-3.909.843c2.4-1.366,2.639-4.559,1.787-6.951s-2.479-4.538-2.8-7.062c-.347-2.746,2.883-6.222,2.252-8.921a33.613,33.613,0,0,1-.728-10.57c.11-2.54,1.23-4.795,2.346-7.163a14.614,14.614,0,0,1,6.363-6.889,21.626,21.626,0,0,1,9.106-2.805c5.177-.113,7.288-.277,11.387,2.465" transform="translate(-12.834 -9.704)" fill="#1a2e35"/>
              <path id="Trazado_208454" data-name="Trazado 208454" d="M132.357,126.976a64.478,64.478,0,0,1-4.214-10.3,22.527,22.527,0,0,1-.589-11.011c.124-.549,1.31-4.28,1.872-4.3.4-.014-.179,3.4.068,3.713a19.1,19.1,0,0,1,3.613,10.752,50.261,50.261,0,0,1-.75,11.143" transform="translate(-13.619 -10.861)" fill="#1a2e35"/>
              <path id="Trazado_208455" data-name="Trazado 208455" d="M155.332,157.488c-5.721.646-19.5-5.363-20.267-11.07l-4.637-34.341c-1.54-9.186,2.522-17.738,11.747-19.023l.86-.069a16.653,16.653,0,0,1,17.771,13.939c1.29,7.968,2.613,16.786,2.9,21.092.6,8.917-8.194,11.018-8.194,11.018-.021,0,.226,2.058.548,4.662a40.968,40.968,0,0,1-.733,13.792" transform="translate(-13.94 -9.957)" fill="#ffc09d"/>
              <path id="Trazado_208456" data-name="Trazado 208456" d="M157.141,144.267a21.6,21.6,0,0,1-11.874-2.5s3.328,6.473,12.153,4.958Z" transform="translate(-15.564 -15.19)" fill="#ff9b6c"/>
              <path id="Trazado_208457" data-name="Trazado 208457" d="M160.47,117.159a1.277,1.277,0,0,1-1.124,1.382,1.22,1.22,0,0,1-1.4-1.042,1.277,1.277,0,0,1,1.122-1.383,1.222,1.222,0,0,1,1.4,1.043" transform="translate(-16.922 -12.44)" fill="#1a2e35"/>
              <path id="Trazado_208458" data-name="Trazado 208458" d="M162.117,113.035c-.145.179-1.165-.457-2.534-.344-1.369.094-2.317.879-2.479.722-.079-.068.058-.38.47-.734a3.5,3.5,0,0,1,1.969-.784,3.362,3.362,0,0,1,2.033.48c.447.29.613.579.542.659" transform="translate(-16.83 -11.988)" fill="#1a2e35"/>
              <path id="Trazado_208459" data-name="Trazado 208459" d="M146.056,118.287a1.277,1.277,0,0,1-1.124,1.382,1.22,1.22,0,0,1-1.4-1.042,1.277,1.277,0,0,1,1.122-1.383,1.222,1.222,0,0,1,1.4,1.043" transform="translate(-15.377 -12.561)" fill="#1a2e35"/>
              <path id="Trazado_208460" data-name="Trazado 208460" d="M147.116,114.6c-.145.179-1.167-.456-2.535-.343-1.369.093-2.317.879-2.479.723-.079-.069.056-.382.47-.735a3.505,3.505,0,0,1,1.968-.784,3.365,3.365,0,0,1,2.034.48c.446.29.613.579.542.658" transform="translate(-15.223 -12.155)" fill="#1a2e35"/>
              <path id="Trazado_208461" data-name="Trazado 208461" d="M153.979,124.712a9.061,9.061,0,0,1,2.191-.579c.347-.064.672-.16.712-.4a1.786,1.786,0,0,0-.316-1.018l-1.247-2.579a45.762,45.762,0,0,1-2.88-6.777,45.942,45.942,0,0,1,3.419,6.529q.631,1.361,1.205,2.6a2.032,2.032,0,0,1,.291,1.357.878.878,0,0,1-.534.557,2.36,2.36,0,0,1-.587.13,8.937,8.937,0,0,1-2.254.184" transform="translate(-16.331 -12.145)" fill="#1a2e35"/>
              <path id="Trazado_208462" data-name="Trazado 208462" d="M146.368,108.871c-.158.364-1.516.1-3.136.2-1.622.063-2.948.454-3.141.107-.086-.166.162-.5.709-.832a5.459,5.459,0,0,1,4.782-.231c.576.273.855.585.786.758" transform="translate(-15.008 -11.536)" fill="#1a2e35"/>
              <path id="Trazado_208463" data-name="Trazado 208463" d="M161.408,109.477c-.254.338-1.4.121-2.738.234-1.344.072-2.453.444-2.745.144-.129-.146.02-.475.487-.816a4.336,4.336,0,0,1,2.176-.721,4.268,4.268,0,0,1,2.242.416c.5.274.689.579.579.743" transform="translate(-16.701 -11.604)" fill="#1a2e35"/>
              <path id="Trazado_208464" data-name="Trazado 208464" d="M131.2,121.681c-.158-.054-6.267-1.32-5.584,4.755s6.642,4.136,6.632,3.961-1.048-8.716-1.048-8.716" transform="translate(-13.453 -13.022)" fill="#ffc09d"/>
              <path id="Trazado_208465" data-name="Trazado 208465" d="M130.321,128.554c-.029-.016-.1.086-.267.188a1.066,1.066,0,0,1-.789.1,2.634,2.634,0,0,1-1.476-2.212,3.521,3.521,0,0,1,.126-1.548,1.234,1.234,0,0,1,.7-.9.543.543,0,0,1,.657.221c.1.161.076.286.109.293s.119-.117.042-.362a.674.674,0,0,0-.282-.354.8.8,0,0,0-.6-.089,1.5,1.5,0,0,0-1,1.066,3.63,3.63,0,0,0-.177,1.735,2.766,2.766,0,0,0,1.839,2.45,1.145,1.145,0,0,0,.95-.27c.171-.171.188-.311.165-.32" transform="translate(-13.643 -13.272)" fill="#ff9b6c"/>
              <path id="Trazado_208466" data-name="Trazado 208466" d="M155.378,97.228c.916-.662-2.417-3.484-4.963-4.286-3.849-1.213-9.543-1.555-12.79-.194-3.91,1.64-7.03,4.063-8.615,8a24.045,24.045,0,0,0-1.2,12.513,7.3,7.3,0,0,0,1.305,3.6c1.01,1.239,2.739,1.887,2.893,3.746a2.558,2.558,0,0,0,.854,1.776c1.254,1.046,2.478-.229,2.967-1.417,1.046-2.539.85-5.395.637-8.132a17.88,17.88,0,0,0-1.085-5.725c-.42-.975-1.012-1.873-1.378-2.871a3.671,3.671,0,0,1,.063-3.081,3.857,3.857,0,0,1,.432-.559,6.373,6.373,0,0,1,6.134-1.957c3.564.794,9.619,1.891,11,.546a9.412,9.412,0,0,0,2.382-3.087Z" transform="translate(-13.66 -9.843)" fill="#1a2e35"/>
              <path id="Trazado_208467" data-name="Trazado 208467" d="M150.063,127.406c-.081.022-.09.359.091.869a3.409,3.409,0,0,0,1.313,1.648,5.629,5.629,0,0,0,1.895.809c.506.117.83.131.858.048s-.251-.254-.705-.477a12.612,12.612,0,0,1-1.682-.91c-1.22-.8-1.579-2.054-1.769-1.988" transform="translate(-16.072 -13.65)" fill="#1a2e35"/>
              <path id="Trazado_208468" data-name="Trazado 208468" d="M132.094,122.585c.05.106.1.218.149.341,0,0-.056-.121-.149-.341" transform="translate(-14.153 -13.134)" fill="#ff735d"/>
              <path id="Trazado_208469" data-name="Trazado 208469" d="M129.387,118.34s1.02-1.343,2.081.932c-1.265-2.979-9.683-24.51,13.394-27.35,0,0-8.335-1.471-13.363,2.674,0,0-10.214,6.111-2.112,23.744" transform="translate(-13.528 -9.822)" fill="#375a64"/>
              <path id="Trazado_208470" data-name="Trazado 208470" d="M168.223,242.6l-53.635.731s-15-6.277-19.12-6.446-12.3.355-16.084,6.446c-3.911,6.294-4.457,17.4,7.6,25.471,11.736,7.858,65.406,15.121,72.763,14.453l13.563-18.2s.142-14.92,0-15.629-2.416-7.1-2.416-7.1Z" transform="translate(-8.238 -25.378)" fill="#1a2e35"/>
              <path id="Trazado_208471" data-name="Trazado 208471" d="M139.888,271.495,112.1,281.817l12.666,34.639c3.234-1.412,3.326-21.762,3.326-21.762l18.076-5.883Z" transform="translate(-12.011 -29.089)" fill="#48a2ed"/>
              <g id="Grupo_146406" data-name="Grupo 146406" transform="translate(111.071 253.745)" opacity="0.6">
                <g id="Grupo_146405" data-name="Grupo 146405">
                  <g id="Grupo_146404" data-name="Grupo 146404" clip-path="url(#clip-path-3)">
                    <path id="Trazado_208472" data-name="Trazado 208472" d="M126.993,284.8a1.506,1.506,0,0,0-1.972-.388,1.447,1.447,0,0,0-.4,1.951,1.59,1.59,0,0,0,2.091.4,1.5,1.5,0,0,0,.192-2.076" transform="translate(-124.399 -284.194)" fill="#fff"/>
                  </g>
                </g>
              </g>
              <path id="Trazado_208473" data-name="Trazado 208473" d="M112.1,282.931l2.8-1.042,11.118,33.671s-.107,1.787-1.257,2.011Z" transform="translate(-12.011 -30.202)" fill="#1a2e35"/>
              <path id="Trazado_208474" data-name="Trazado 208474" d="M130.063,297.734c-.171.056-.557-.762-1.405-1.395-.831-.656-1.721-.817-1.711-1-.024-.168,1.079-.285,2.093.5s1.192,1.871,1.023,1.892" transform="translate(-13.601 -31.631)" fill="#1a2e35"/>
              <path id="Trazado_208475" data-name="Trazado 208475" d="M129.83,302.529c-.151.1-.706-.529-1.631-.841-.916-.34-1.743-.2-1.8-.374-.085-.149.863-.629,2.006-.217s1.581,1.37,1.422,1.432" transform="translate(-13.542 -32.243)" fill="#1a2e35"/>
              <path id="Trazado_208476" data-name="Trazado 208476" d="M126.216,306.74c-.092-.14.667-.685,1.752-.589s1.743.752,1.629.875c-.1.146-.789-.186-1.681-.25-.89-.086-1.621.126-1.7-.036" transform="translate(-13.522 -32.801)" fill="#1a2e35"/>
              <path id="Trazado_208477" data-name="Trazado 208477" d="M134.7,295.6c-.18-.014-.23-.876-.645-1.808-.4-.941-.989-1.568-.876-1.709.087-.142.978.355,1.451,1.46s.233,2.092.07,2.057" transform="translate(-14.268 -31.292)" fill="#1a2e35"/>
              <path id="Trazado_208478" data-name="Trazado 208478" d="M139.059,292.689a3.467,3.467,0,0,1-.625-1.738,8.26,8.26,0,0,1-.106-2.019,8.645,8.645,0,0,1,.164-1.189,2.267,2.267,0,0,1,.216-.673.785.785,0,0,1,.871-.406.988.988,0,0,1,.658.6,2.415,2.415,0,0,1,.148.684,6.627,6.627,0,0,1,.024,1.214,6.5,6.5,0,0,1-.465,1.983c-.45,1.076-.982,1.581-1.036,1.536-.084-.056.3-.641.618-1.684a7.393,7.393,0,0,0,.306-1.866,6.834,6.834,0,0,0-.057-1.108c-.037-.4-.149-.715-.347-.749-.074-.012-.1-.007-.179.109a1.8,1.8,0,0,0-.157.494,9.659,9.659,0,0,0-.189,1.108,10.24,10.24,0,0,0-.029,1.913,12.732,12.732,0,0,1,.186,1.794" transform="translate(-14.819 -30.711)" fill="#1a2e35"/>
              <path id="Trazado_208479" data-name="Trazado 208479" d="M138.788,293.084c-.048-.051.436-.608,1.508-1.071a5.967,5.967,0,0,1,3.2-.4,1.525,1.525,0,0,1,1.28.787.863.863,0,0,1-.219.9,2.49,2.49,0,0,1-.571.41,4.128,4.128,0,0,1-1.168.429,4.246,4.246,0,0,1-2.063-.086c-1.146-.348-1.605-.98-1.554-1.015a15.6,15.6,0,0,0,1.659.585,4.253,4.253,0,0,0,1.83-.047,3.8,3.8,0,0,0,.991-.4c.348-.189.595-.436.506-.56-.06-.173-.444-.364-.789-.4a6.151,6.151,0,0,0-1.1-.086,6.622,6.622,0,0,0-1.854.3c-1.034.324-1.6.737-1.661.654" transform="translate(-14.87 -31.237)" fill="#1a2e35"/>
              <path id="Trazado_208480" data-name="Trazado 208480" d="M167.982,266.7l26.892,12.474-15.348,33.537c-3.113-1.663-1.605-21.956-1.605-21.956l-17.558-7.285Z" transform="translate(-17.182 -28.575)" fill="#48a2ed"/>
              <g id="Grupo_146409" data-name="Grupo 146409" transform="translate(163.723 250.637)" opacity="0.6">
                <g id="Grupo_146408" data-name="Grupo 146408">
                  <g id="Grupo_146407" data-name="Grupo 146407" clip-path="url(#clip-path-4)">
                    <path id="Trazado_208481" data-name="Trazado 208481" d="M183.678,281.223a1.506,1.506,0,0,1,2-.231,1.448,1.448,0,0,1,.247,1.977,1.589,1.589,0,0,1-2.115.234,1.5,1.5,0,0,1-.029-2.085" transform="translate(-183.37 -280.714)" fill="#fff"/>
                  </g>
                </g>
              </g>
              <path id="Trazado_208482" data-name="Trazado 208482" d="M197.043,280.521l-2.715-1.259L180.6,311.955s-.035,1.79,1.095,2.1Z" transform="translate(-19.35 -29.921)" fill="#1a2e35"/>
              <path id="Trazado_208483" data-name="Trazado 208483" d="M179.552,293.888c.166.07.615-.715,1.511-1.28.88-.588,1.779-.679,1.784-.859.037-.166-1.054-.37-2.126.333s-1.336,1.773-1.169,1.806" transform="translate(-19.233 -31.241)" fill="#1a2e35"/>
              <path id="Trazado_208484" data-name="Trazado 208484" d="M179.381,298.68c.141.11.745-.471,1.692-.711.939-.267,1.753-.065,1.821-.231.1-.142-.812-.695-1.983-.374s-1.684,1.241-1.529,1.316" transform="translate(-19.216 -31.85)" fill="#1a2e35"/>
              <path id="Trazado_208485" data-name="Trazado 208485" d="M182.667,303.158c.1-.133-.611-.735-1.7-.725s-1.8.612-1.692.745c.092.154.8-.123,1.7-.118.894-.015,1.606.254,1.7.1" transform="translate(-19.207 -32.404)" fill="#1a2e35"/>
              <path id="Trazado_208486" data-name="Trazado 208486" d="M175.263,291.4c.18,0,.3-.855.785-1.752.469-.907,1.109-1.485,1.007-1.635-.075-.148-1,.278-1.561,1.342s-.4,2.066-.231,2.045" transform="translate(-18.761 -30.855)" fill="#1a2e35"/>
              <path id="Trazado_208487" data-name="Trazado 208487" d="M171.107,288.146a3.457,3.457,0,0,0,.76-1.684,8.3,8.3,0,0,0,.264-2,8.713,8.713,0,0,0-.07-1.2,2.3,2.3,0,0,0-.163-.687.785.785,0,0,0-.837-.474.985.985,0,0,0-.7.546,2.394,2.394,0,0,0-.2.67,6.6,6.6,0,0,0-.12,1.208,6.509,6.509,0,0,0,.308,2.014c.364,1.107.854,1.653.912,1.612.088-.05-.251-.663-.484-1.727a7.364,7.364,0,0,1-.158-1.884,6.831,6.831,0,0,1,.144-1.1c.07-.4.205-.7.405-.72.075-.005.1,0,.171.122a1.833,1.833,0,0,1,.118.505,9.6,9.6,0,0,1,.1,1.12,10.139,10.139,0,0,1-.121,1.908,12.727,12.727,0,0,0-.326,1.774" transform="translate(-18.218 -30.223)" fill="#1a2e35"/>
              <path id="Trazado_208488" data-name="Trazado 208488" d="M170.888,288.533c.052-.046-.387-.64-1.42-1.186a5.966,5.966,0,0,0-3.159-.651,1.525,1.525,0,0,0-1.338.683.863.863,0,0,0,.147.916,2.5,2.5,0,0,0,.537.454,4.107,4.107,0,0,0,1.131.519,4.239,4.239,0,0,0,2.063.077c1.17-.258,1.678-.852,1.629-.891a15.074,15.074,0,0,1-1.7.454,4.272,4.272,0,0,1-1.821-.191,3.836,3.836,0,0,1-.956-.475c-.332-.216-.559-.481-.462-.6a1.058,1.058,0,0,1,.819-.336,6.208,6.208,0,0,1,1.1,0,6.612,6.612,0,0,1,1.825.442c1.005.4,1.538.86,1.6.782" transform="translate(-17.667 -30.716)" fill="#1a2e35"/>
              <path id="Trazado_208489" data-name="Trazado 208489" d="M176.369,242.054s23.161-8.65,31.686-7.53c4.767.626,12.22,4.262,12.788,10.372s-.923,14.283-9.164,18.261S170.546,281.9,162.731,284.17s-27.3,7.6-27.3,7.6l-7.4-21.095s40.384-13.983,42.515-15.546,7.531-3.695,7.531-3.695Z" transform="translate(-13.717 -25.117)" fill="#1a2e35"/>
              <path id="Trazado_208490" data-name="Trazado 208490" d="M92,246.012a.74.74,0,0,0,.161-.042l.465-.141c.409-.123,1.013-.3,1.8-.488a19.781,19.781,0,0,1,6.8-.5,22.625,22.625,0,0,1,4.635.883,16.057,16.057,0,0,1,2.445.954l2.521,1.23c3.465,1.656,7.334,3.352,11.455,4.979,8.254,3.307,16.176,4.876,21.823,6.16,2.834.627,5.125,1.143,6.7,1.518l1.819.43.474.107a.084.084,0,1,0,.006-.024l-.468-.131c-.412-.111-1.021-.28-1.808-.477-1.572-.4-3.858-.947-6.687-1.6-5.641-1.328-13.542-2.921-21.771-6.219-4.116-1.626-7.983-3.313-11.448-4.955l-2.523-1.22a16.264,16.264,0,0,0-2.482-.955,22.513,22.513,0,0,0-4.68-.861,21.064,21.064,0,0,0-3.925.032,20.583,20.583,0,0,0-2.912.549c-.788.2-1.389.4-1.794.534l-.458.165a.8.8,0,0,0-.153.066" transform="translate(-9.857 -26.206)" fill="#375a64"/>
              <path id="Trazado_208491" data-name="Trazado 208491" d="M93.361,242.689c.008.04.705-.086,1.839-.208a27.732,27.732,0,0,1,8.855.455c1.115.238,1.8.435,1.808.4a1.9,1.9,0,0,0-.463-.188c-.3-.107-.748-.239-1.3-.38a23.229,23.229,0,0,0-8.918-.458c-.568.084-1.025.169-1.337.245a1.913,1.913,0,0,0-.48.138" transform="translate(-10.003 -25.936)" fill="#375a64"/>
              <path id="Trazado_208492" data-name="Trazado 208492" d="M193.083,249.259c.027.035.669-.462,1.779-1.15a23.59,23.59,0,0,1,9.533-3.363c1.3-.162,2.107-.177,2.106-.221a2.551,2.551,0,0,0-.571-.03,15.492,15.492,0,0,0-1.554.076,21.052,21.052,0,0,0-9.61,3.391,15.115,15.115,0,0,0-1.257.917,2.512,2.512,0,0,0-.426.381" transform="translate(-20.687 -26.196)" fill="#375a64"/>
              <path id="Trazado_208493" data-name="Trazado 208493" d="M174.5,279.933s-.063.021-.18.069l-.527.221c-.466.188-1.14.509-2.046.856-1.8.716-4.471,1.7-7.889,2.821-6.841,2.236-16.676,5.084-28.443,8.047l.133.071-7.161-19.875-.069.157,8.867-3.64,49.064-20.193.017-.007.012-.012c2-2.114,3.835-3.977,5.557-5.481a37.659,37.659,0,0,1,4.659-3.51,34.541,34.541,0,0,1,3.2-1.783l.859-.4c.193-.092.288-.144.288-.144s-.1.037-.3.121l-.869.38a31.815,31.815,0,0,0-3.225,1.748,36.909,36.909,0,0,0-4.7,3.488c-1.736,1.5-3.587,3.357-5.592,5.463l.029-.02-49.1,20.117-8.866,3.642-.11.046.041.112,7.18,19.867.035.1.1-.025c11.77-2.985,21.6-5.864,28.432-8.138,3.415-1.144,6.077-2.146,7.873-2.883.9-.358,1.572-.689,2.034-.888l.519-.237c.116-.054.173-.086.173-.086" transform="translate(-13.726 -25.407)" fill="#375a64"/>
              <path id="Trazado_208494" data-name="Trazado 208494" d="M113.994,160.3s-6.669,3.841-8.02,8.355c-.821,2.74-7.042,37.8-8.026,44.713-.994,6.979,1.092,12.035,4.04,14.328s11.886,5.348,11.886,5.348l12.572,4.072,3.6-9.171-11.969-17.194,1.158-11.581Z" transform="translate(-10.468 -17.175)" fill="#48a2ed"/>
              <path id="Trazado_208495" data-name="Trazado 208495" d="M129.058,153.084l4.158-3.067s5.418,5.546,11.642,4.89a15.645,15.645,0,0,0,9.91-5.419l18.561,3.779c1.246.249,3.516,1.037,5.688,4.139,2.423,3.462,13.907,18.813,13.907,18.813h8.044a5.966,5.966,0,0,1,5.285,3.188c1.373,2.613,3.021,6.11,2.861,7.558-.272,2.449.2,9.173-3.085,11.272-1.041.665-4.769,2.662-7.66,2.527a25.761,25.761,0,0,1-12.079-4.42c-2.418-1.691-8.042-7.536-10.2-9.817l0,.036L174.7,235.256l-48.664-1.386L115.95,159.142s12.617-6.058,13.108-6.058" transform="translate(-12.423 -16.017)" fill="#48a2ed"/>
              <path id="Trazado_208496" data-name="Trazado 208496" d="M183.452,168.127c-.069,0-.2,6.035-.284,13.479s-.1,13.481-.034,13.482.2-6.033.284-13.479.1-13.48.034-13.481" transform="translate(-19.617 -18.014)" fill="#1a2e35"/>
              <path id="Trazado_208497" data-name="Trazado 208497" d="M109.351,212.21c0,.025.413.066,1.148.206a14.19,14.19,0,0,1,3.013.959,19.635,19.635,0,0,1,4.012,2.424,35.035,35.035,0,0,1,4.226,3.909c1.393,1.5,2.662,2.989,3.857,4.309a46.779,46.779,0,0,0,3.315,3.377,23.526,23.526,0,0,0,2.492,1.994c.305.221.562.364.728.471a1.413,1.413,0,0,0,.265.147,1.372,1.372,0,0,0-.238-.189c-.157-.121-.4-.277-.7-.509a27.805,27.805,0,0,1-2.429-2.045c-.982-.913-2.082-2.073-3.263-3.4s-2.447-2.818-3.846-4.326a33.845,33.845,0,0,0-4.27-3.922,19.055,19.055,0,0,0-4.082-2.4,12.993,12.993,0,0,0-3.066-.893,8,8,0,0,0-.862-.1,1.338,1.338,0,0,0-.3-.012" transform="translate(-11.716 -22.736)" fill="#1a2e35"/>
              <path id="Trazado_208498" data-name="Trazado 208498" d="M108.118,208.517c-.006.046.737.147,1.9.469a17.6,17.6,0,0,1,7.97,4.748c.836.866,1.279,1.471,1.315,1.444a2.123,2.123,0,0,0-.282-.446,11.586,11.586,0,0,0-.9-1.118,16.012,16.012,0,0,0-8.054-4.8,11.625,11.625,0,0,0-1.414-.262,2.147,2.147,0,0,0-.527-.036" transform="translate(-11.584 -22.34)" fill="#1a2e35"/>
              <g id="Grupo_146412" data-name="Grupo 146412" transform="translate(175.988 160.678)" opacity="0.3">
                <g id="Grupo_146411" data-name="Grupo 146411">
                  <g id="Grupo_146410" data-name="Grupo 146410" clip-path="url(#clip-path-5)">
                    <path id="Trazado_208499" data-name="Trazado 208499" d="M208.225,196.911c-2.576.7-5.67-3-8.009-5.324a9.861,9.861,0,0,1-2.931-4.147,6.584,6.584,0,0,1,.4-4.153,15.3,15.3,0,0,1,1.713-3.328c-.216,2-.708,5.064-.036,7.578a13.459,13.459,0,0,0,3.3,5.346c1.491,1.675,3.254,3.432,5.559,4.028" transform="translate(-197.107 -179.959)"/>
                  </g>
                </g>
              </g>
              <path id="Trazado_208500" data-name="Trazado 208500" d="M197.108,194.775c.048-.015-.25-.849-.492-2.246a17.171,17.171,0,0,1-.236-2.473,17,17,0,0,1,.944-5.978,17.156,17.156,0,0,1,.987-2.279c.661-1.254,1.2-1.955,1.16-1.985a2.936,2.936,0,0,0-.4.479,6.228,6.228,0,0,0-.418.6c-.151.241-.338.507-.5.826A15.462,15.462,0,0,0,197.107,184a16.121,16.121,0,0,0-.957,6.062,15.361,15.361,0,0,0,.293,2.5c.058.354.153.664.222.939a6.386,6.386,0,0,0,.213.7,2.968,2.968,0,0,0,.229.577" transform="translate(-21.015 -19.266)" fill="#1a2e35"/>
              <path id="Trazado_208501" data-name="Trazado 208501" d="M157.156,151.593c-.033.065.537.4,1.134.933s1,1.058,1.058,1.018a3.663,3.663,0,0,0-2.192-1.951" transform="translate(-16.838 -16.241)" fill="#1a2e35"/>
              <path id="Trazado_208502" data-name="Trazado 208502" d="M151.484,154.89c-.053.053.438.579.831,1.354s.545,1.477.618,1.465a3.579,3.579,0,0,0-1.449-2.82" transform="translate(-16.23 -16.595)" fill="#1a2e35"/>
              <path id="Trazado_208503" data-name="Trazado 208503" d="M141.772,157.958a37.4,37.4,0,0,0,1.054-2.926,5.671,5.671,0,0,0-1.054,2.926" transform="translate(-15.188 -16.61)" fill="#1a2e35"/>
              <path id="Trazado_208504" data-name="Trazado 208504" d="M135.523,154.964c.074.017.264-.833.813-1.729s1.2-1.465,1.154-1.523a4.253,4.253,0,0,0-1.968,3.253" transform="translate(-14.518 -16.254)" fill="#1a2e35"/>
              <path id="Trazado_208505" data-name="Trazado 208505" d="M117.579,173.015c-.069.009.755,6.66,1.84,14.854s2.019,14.83,2.088,14.821-.755-6.658-1.84-14.854-2.019-14.829-2.087-14.821" transform="translate(-12.597 -18.537)" fill="#1a2e35"/>
              <path id="Trazado_208506" data-name="Trazado 208506" d="M199.255,185.076a3.6,3.6,0,0,0,.014.687,5.336,5.336,0,0,0,.1.8q.04.236.084.5c.038.175.091.356.139.548a14.788,14.788,0,0,0,.959,2.613,17.839,17.839,0,0,0,1.788,2.9,15.276,15.276,0,0,0,2.378,2.448,10.209,10.209,0,0,0,2.387,1.439c.184.076.355.155.524.217l.488.135.424.116c.132.029.256.035.366.051a3.6,3.6,0,0,0,.686.054,12.253,12.253,0,0,1-2.418-.735,10.677,10.677,0,0,1-2.312-1.456,15.975,15.975,0,0,1-2.324-2.421,18.836,18.836,0,0,1-1.779-2.852,15.955,15.955,0,0,1-1-2.56,23.915,23.915,0,0,1-.508-2.488" transform="translate(-21.348 -19.83)" fill="#1a2e35"/>
              <g id="Grupo_146415" data-name="Grupo 146415" transform="translate(101.792 183.731)" opacity="0.3">
                <g id="Grupo_146414" data-name="Grupo 146414">
                  <g id="Grupo_146413" data-name="Grupo 146413" clip-path="url(#clip-path-6)">
                    <path id="Trazado_208507" data-name="Trazado 208507" d="M118.762,242.953c-2.063-1-2.533-3.674-2.743-5.956l-1.851-20.066c-.29-3.145-.431-6.735,1.787-8.983,2.026-2.054,5.244-2.177,8.128-2.168,17.808.051,33.535.571,51.342.622l-.907,31.152Z" transform="translate(-114.007 -205.779)"/>
                  </g>
                </g>
              </g>
              <path id="Trazado_208508" data-name="Trazado 208508" d="M183.358,211.551l-1.9,36.129a2.637,2.637,0,0,1-2.648,2.484l-57.551.1a2.639,2.639,0,0,1-2.648-2.494l-2.2-35.516c-.072-1.474.977-3.437,2.471-3.466l61.769.006a2.636,2.636,0,0,1,2.7,2.756" transform="translate(-12.473 -22.37)" fill="#e1e1e1"/>
              <path id="Trazado_208509" data-name="Trazado 208509" d="M183.344,211.536s0-.046.006-.136a2.286,2.286,0,0,0-.021-.4,2.6,2.6,0,0,0-.682-1.407,2.632,2.632,0,0,0-.963-.655,3.38,3.38,0,0,0-1.391-.194l-3.5-.012-22.3-.042-33.071-.03h-2.348a2.079,2.079,0,0,0-1.189.3,2.953,2.953,0,0,0-.879.862,4.163,4.163,0,0,0-.723,2.33q.072,1.208.145,2.429.3,4.876.612,9.951c.418,6.76.849,13.759,1.292,20.927l.083,1.343c.037.45.031.882.111,1.353a2.754,2.754,0,0,0,1.736,2.037,3.363,3.363,0,0,0,1.351.18l1.323,0,2.634,0,10.332-.02,19.532-.042,17.675-.042,4.079-.011,1,0a8.564,8.564,0,0,0,1-.031,2.757,2.757,0,0,0,1.726-.954,2.786,2.786,0,0,0,.642-1.819q.048-.943.1-1.865.094-1.846.185-3.609c.477-9.4.863-17.005,1.129-22.269.127-2.626.226-4.665.294-6.054q.047-1.034.071-1.575c.014-.355.015-.538.015-.538s-.018.181-.041.536-.054.886-.095,1.574c-.079,1.388-.194,3.428-.341,6.052-.286,5.262-.7,12.868-1.209,22.265q-.094,1.762-.193,3.608-.05.923-.1,1.865a2.589,2.589,0,0,1-.6,1.7,2.554,2.554,0,0,1-1.605.883,8.274,8.274,0,0,1-.972.029h-1l-4.079,0-17.675.019L135.9,250.1l-10.333.016-2.633,0-1.323,0a3.132,3.132,0,0,1-1.263-.165,2.5,2.5,0,0,1-1.579-1.851c-.071-.411-.07-.878-.106-1.319l-.083-1.343c-.444-7.168-.878-14.166-1.3-20.926l-.618-9.951q-.074-1.217-.146-2.422a3.923,3.923,0,0,1,.679-2.192,2.141,2.141,0,0,1,1.876-1.066h2.348l33.071-.023,22.3-.038,3.5-.012a3.319,3.319,0,0,1,1.367.178A2.624,2.624,0,0,1,183.3,211a5.243,5.243,0,0,1,.04.534" transform="translate(-12.459 -22.356)" fill="#1a2e35"/>
              <path id="Trazado_208510" data-name="Trazado 208510" d="M149.63,231.211a3.39,3.39,0,1,0,3.39-3.39,3.39,3.39,0,0,0-3.39,3.39" transform="translate(-16.032 -24.409)" fill="#fff"/>
              <path id="Trazado_208511" data-name="Trazado 208511" d="M149.628,231.2c.028,0,.015-.3.154-.816a3.378,3.378,0,0,1,1.239-1.808,3.3,3.3,0,0,1,3.112-.452,3.248,3.248,0,0,1,1.516,1.145,3.262,3.262,0,0,1,0,3.863,3.248,3.248,0,0,1-1.516,1.145,3.3,3.3,0,0,1-3.113-.452,3.381,3.381,0,0,1-1.238-1.808c-.138-.514-.126-.818-.154-.816a.7.7,0,0,0-.014.218,2.634,2.634,0,0,0,.073.621,3.37,3.37,0,0,0,1.226,1.925,3.419,3.419,0,0,0,1.46.667,3.5,3.5,0,1,0,0-6.863,3.42,3.42,0,0,0-1.46.666,3.377,3.377,0,0,0-1.227,1.926,2.634,2.634,0,0,0-.073.621.7.7,0,0,0,.014.218" transform="translate(-16.03 -24.397)" fill="#1a2e35"/>
              <path id="Trazado_208512" data-name="Trazado 208512" d="M189.1,216.361c-.069,0-.353,6.069-.634,13.559s-.453,13.568-.383,13.57.352-6.067.633-13.56.453-13.566.384-13.569" transform="translate(-20.15 -23.182)" fill="#1a2e35"/>
              <path id="Trazado_208513" data-name="Trazado 208513" d="M206.872,160.742c.337-.285-1.137-5.959-1.137-5.959s3.9-6.371,4.006-8.425-1.541-6.268-1.541-6.268L197,137.213s-3.6,6.679-4.316,9.042,1.233,10.377,1.233,10.377l1.9,4.11s5.721,4.521,11.057,0" transform="translate(-20.628 -14.701)" fill="#ffc09d"/>
              <path id="Trazado_208514" data-name="Trazado 208514" d="M209.713,145.939a24.744,24.744,0,0,0,1.179-2.487c.709-1.682,1.58-3.331,0-4.271a2.064,2.064,0,0,0-1.687-.266s.243-1.415-.6-1.946a1.823,1.823,0,0,0-1.661-.145s.267-2-.951-2.843a2.954,2.954,0,0,0-3.1-.088s.964-8.739,1.048-9.2c.306-1.7-.322-3.2-2.013-2.784-.619.154-.963.807-1.69,3.653s-1.894,7.7-1.894,7.7-1.967,3.417-2.9,5.271a45.072,45.072,0,0,0-2.918,7.192c-.4,2.891,1.3,6.719,1.3,6.719l11.9.691s3.532-6.367,3.986-7.2" transform="translate(-20.621 -13.054)" fill="#ffc09d"/>
              <path id="Trazado_208515" data-name="Trazado 208515" d="M210.645,141.386a9.8,9.8,0,0,0-.921,1.286c-.281.429-.6.91-.942,1.433a6.1,6.1,0,0,0-.512.895,1.818,1.818,0,0,0-.14,1.135,1.144,1.144,0,0,0,.752.882,1.5,1.5,0,0,0,1.067-.131,4.776,4.776,0,0,0,.795-.492q.352-.253.642-.48c.386-.3.687-.561.888-.746s.305-.3.295-.31c-.024-.029-.5.349-1.287.913a10.493,10.493,0,0,1-1.426.9,1.276,1.276,0,0,1-.9.109.9.9,0,0,1-.583-.7,1.6,1.6,0,0,1,.122-.986,6.335,6.335,0,0,1,.48-.866l.9-1.462a9.805,9.805,0,0,0,.772-1.38" transform="translate(-22.295 -15.148)" fill="#ff9b6c"/>
              <path id="Trazado_208516" data-name="Trazado 208516" d="M199.911,142.117a5.541,5.541,0,0,0-.867-3.593c-.067.032.264.794.5,1.78s.295,1.814.368,1.813" transform="translate(-21.325 -14.842)" fill="#ff9b6c"/>
              <path id="Trazado_208517" data-name="Trazado 208517" d="M194.731,145.128a7.9,7.9,0,0,1,3.982-2.079,14.992,14.992,0,0,1,4.535-.174c1.211.11,2.594.423,3.146,1.507a2.591,2.591,0,0,1-1.19,3.195,6.028,6.028,0,0,1-3.649.554,15.334,15.334,0,0,0-3.739-.153" transform="translate(-20.864 -15.298)" fill="#ffc09d"/>
              <path id="Trazado_208518" data-name="Trazado 208518" d="M197.815,147.964c0,.021.336-.031.939-.025a25.074,25.074,0,0,1,2.552.243,10.764,10.764,0,0,0,1.787.075,4.838,4.838,0,0,0,2.005-.5,3.079,3.079,0,0,0,1.49-1.733,2.34,2.34,0,0,0,.085-1.238,2.12,2.12,0,0,0-.657-1.1,4.261,4.261,0,0,0-2.288-.888,19.442,19.442,0,0,0-2.262-.137,11.439,11.439,0,0,0-3.785.573,7.594,7.594,0,0,0-2.271,1.226,5.494,5.494,0,0,0-.521.471.937.937,0,0,0-.157.188c.017.018.249-.228.738-.582a8.1,8.1,0,0,1,2.269-1.136,11.666,11.666,0,0,1,3.728-.51,19.9,19.9,0,0,1,2.229.149,4.068,4.068,0,0,1,2.154.83,1.879,1.879,0,0,1,.582.97,2.113,2.113,0,0,1-.074,1.108,2.859,2.859,0,0,1-1.366,1.606,4.692,4.692,0,0,1-1.91.5,11.142,11.142,0,0,1-1.757-.045,20.008,20.008,0,0,0-2.57-.164,5.977,5.977,0,0,0-.7.065.9.9,0,0,0-.238.057" transform="translate(-20.864 -15.285)" fill="#ff9b6c"/>
              <path id="Trazado_208519" data-name="Trazado 208519" d="M210.052,141.459c-1.253,1.9-2.358,3.993-3.414,6.011a3.728,3.728,0,0,1-1.2,1.555c-.452.279-1.572-.227-2.074-.4l3.439-7.826" transform="translate(-21.789 -15.086)" fill="#ffc09d"/>
              <path id="Trazado_208520" data-name="Trazado 208520" d="M206.788,140.8a3.572,3.572,0,0,0-.305.583c-.2.424-.453.973-.762,1.639-.637,1.395-1.511,3.346-2.486,5.554l-.054.121.127.046c.371.132.771.3,1.2.408a2.492,2.492,0,0,0,.526.079.937.937,0,0,0,.282-.029.78.78,0,0,0,.259-.128,2.683,2.683,0,0,0,.693-.741c.354-.555.6-1.112.883-1.629.54-1.041,1.035-1.973,1.464-2.748s.79-1.395,1.041-1.822a4.953,4.953,0,0,0,.376-.674,4.214,4.214,0,0,0-.458.622c-.277.413-.663,1.02-1.112,1.787s-.962,1.692-1.515,2.728c-.283.512-.546,1.08-.882,1.6a2.46,2.46,0,0,1-.63.672,1.036,1.036,0,0,1-.865.04c-.407-.1-.794-.262-1.18-.4l.073.167c.968-2.212,1.813-4.174,2.411-5.587l.692-1.669a3.645,3.645,0,0,0,.223-.62" transform="translate(-21.77 -15.086)" fill="#ff9b6c"/>
              <path id="Trazado_208521" data-name="Trazado 208521" d="M207.376,138.016l-3.316,8.317a5.7,5.7,0,0,1-.892,1.668,1.927,1.927,0,0,1-1.67.728,1.972,1.972,0,0,1-1.473-1.918,6.22,6.22,0,0,1,.621-2.524,52.507,52.507,0,0,0,2.379-7.783" transform="translate(-21.431 -14.625)" fill="#ffc09d"/>
              <path id="Trazado_208522" data-name="Trazado 208522" d="M203.01,136.5a1.138,1.138,0,0,0-.084.254l-.2.735c-.171.637-.421,1.561-.771,2.687s-.8,2.458-1.373,3.909a8.086,8.086,0,0,0-.695,2.379,2.575,2.575,0,0,0,.251,1.321,1.937,1.937,0,0,0,1,.977,1.676,1.676,0,0,0,1.393-.113,2.607,2.607,0,0,0,.979-.921,14.675,14.675,0,0,0,1-2.261l1.513-3.867,1-2.615c.1-.289.191-.526.26-.715a.134.134,0,1,0-.046-.019c-.081.185-.181.416-.3.7-.268.643-.631,1.519-1.074,2.586-.449,1.105-.978,2.407-1.563,3.847a14.883,14.883,0,0,1-.994,2.211,2.376,2.376,0,0,1-.888.836,1.428,1.428,0,0,1-1.188.1,1.7,1.7,0,0,1-.864-.854,2.331,2.331,0,0,1-.229-1.2,7.99,7.99,0,0,1,.665-2.31c.562-1.462,1-2.8,1.327-3.941s.554-2.07.7-2.715c.07-.324.121-.576.152-.747a1.1,1.1,0,0,0,.034-.264" transform="translate(-21.416 -14.625)" fill="#ff9b6c"/>
              <path id="Trazado_208523" data-name="Trazado 208523" d="M214.353,183.341c-.3-1.1-7.895-23.484-7.895-23.484l-12.514-1.5,5.12,19.288s-.8,4.9,0,7.795,7.195,10.793,10.493,8.895,5.1-9.894,4.8-10.993" transform="translate(-20.78 -16.967)" fill="#ffc09d"/>
              <path id="Trazado_208524" data-name="Trazado 208524" d="M199.678,155.768a1.419,1.419,0,0,0,.713-.094,3.99,3.99,0,0,0,2.507-2.3,1.458,1.458,0,0,0,.156-.7,5.094,5.094,0,0,1-3.377,3.1" transform="translate(-21.394 -16.358)" fill="#ff9b6c"/>
            </g>
          </g>
        </g>
      </g>
    </g>
  </g>
</svg>
