<svg xmlns="http://www.w3.org/2000/svg" xmlns:xlink="http://www.w3.org/1999/xlink" width="190" height="100.3" viewBox="0 0 190 100.3">
  <defs>
    <clipPath id="clip-path">
      <rect id="Rectángulo_294514" data-name="Rectángulo 294514" width="111.638" height="100.3" fill="none"/>
    </clipPath>
  </defs>
  <g id="Grupo_179285" data-name="Grupo 179285" transform="translate(-180 -4043)">
    <g id="Grupo_179150" data-name="Grupo 179150" transform="translate(0 2932.3)">
      <g id="Grupo_179114" data-name="Grupo 179114" transform="translate(-25 -72)">
        <g id="Grupo_179113" data-name="Grupo 179113" transform="translate(25 -299)">
          <path id="Trazado_113723" data-name="Trazado 113723" d="M-72.06,10.548c-4.477.05-6.13,3.173-2.337,4.452,6.3,2.121,12.513,4.55,18.547,7.263A177.319,177.319,0,0,1-32.831,34.648c5.278,3.394,15.486,2.36,18.155-1.823,2.056-3.221,2.858-6.957-.234-10.426-1.934-2.169-5.253-3.9-9.238-5C-45.161,11.608-61.544,10.43-72.06,10.548Z" transform="translate(382.855 1471.46)" fill="#a2e6b0" opacity="0.2"/>
          <path id="blob" d="M14.578,76.777C1.92,55.917,14.714,27.111,42.343,16.268,69.976,5.341,112.305,12.46,146.059,27.277s58.933,37.249,50.495,54.548c-8.44,17.383-50.5,29.551-90.783,29.137C65.62,110.548,27.239,97.636,14.578,76.777Z" transform="translate(170.321 1471.027)" fill="#a2e6b0" opacity="0.2"/>
        </g>
      </g>
      <g id="Grupo_179151" data-name="Grupo 179151" transform="translate(219 1110.7)">
        <g id="Grupo_175327" data-name="Grupo 175327" clip-path="url(#clip-path)">
          <path id="Trazado_265886" data-name="Trazado 265886" d="M170.361,18.722h30.526a4.361,4.361,0,1,0,0-8.722H170.361a4.361,4.361,0,1,0,0,8.722" transform="translate(-129.805 -7.82)" fill="#a2e6b0" fill-rule="evenodd"/>
          <path id="Trazado_265887" data-name="Trazado 265887" d="M169.609,90H130.361a4.361,4.361,0,1,0,0,8.722h39.248a4.361,4.361,0,1,0,0-8.722" transform="translate(-98.527 -70.376)" fill="#a2e6b0" fill-rule="evenodd"/>
          <path id="Trazado_265888" data-name="Trazado 265888" d="M39.654,138.346V114.361A4.374,4.374,0,0,1,35.293,110H10v32.706h8.722v-4.361Z" transform="translate(-7.82 -86.015)" fill="#a2e6b0" fill-rule="evenodd"/>
          <rect id="Rectángulo_294508" data-name="Rectángulo 294508" width="17.443" height="8.723" transform="translate(40.556 28.346)" fill="#858fa6"/>
          <rect id="Rectángulo_294509" data-name="Rectángulo 294509" width="8.722" height="8.722" transform="translate(44.21 37.068)" fill="#b5bbc9"/>
          <path id="Trazado_265889" data-name="Trazado 265889" d="M326,114.361v28.346h29.654V110H330.361A4.374,4.374,0,0,1,326,114.361" transform="translate(-254.918 -86.015)" fill="#a2e6b0" fill-rule="evenodd"/>
          <path id="Trazado_265890" data-name="Trazado 265890" d="M462,130v17.443h6.541a2.187,2.187,0,0,0,2.18-2.18V132.18a2.187,2.187,0,0,0-2.18-2.18Z" transform="translate(-361.264 -101.654)" fill="#858fa6" fill-rule="evenodd"/>
          <rect id="Rectángulo_294510" data-name="Rectángulo 294510" width="13.083" height="8.722" transform="translate(71.082 56.691)" fill="#b5bbc9"/>
          <path id="Trazado_265891" data-name="Trazado 265891" d="M198.331,300H146v8.722h64.541a4.361,4.361,0,1,0,0-8.722Z" transform="translate(-114.166 -234.59)" fill="#858fa6" fill-rule="evenodd"/>
          <path id="Trazado_265892" data-name="Trazado 265892" d="M135.476,340H70.935v15.262H50v8.722h85.472Z" transform="translate(-39.101 -265.868)" fill="#b5bbc9" fill-rule="evenodd"/>
          <rect id="Rectángulo_294511" data-name="Rectángulo 294511" width="20.931" height="26.165" transform="translate(10.903 63.232)" fill="#a2e6b0"/>
          <rect id="Rectángulo_294512" data-name="Rectángulo 294512" width="10.902" height="8.722" transform="translate(60.18 10.902)" fill="#858fa6"/>
          <rect id="Rectángulo_294513" data-name="Rectángulo 294513" width="20.931" height="10.902" transform="translate(10.903 52.33)" fill="#858fa6"/>
          <path id="Trazado_265893" data-name="Trazado 265893" d="M107.277,26.166h-4.361V23.985a2.18,2.18,0,0,0-2.18-2.18H77.249a6.572,6.572,0,0,0-3.986-3.985V12.708A6.541,6.541,0,0,0,71.082,0H61.271a2.18,2.18,0,0,0,0,4.361h9.811a2.18,2.18,0,1,1,0,4.361H40.556a2.18,2.18,0,0,1,0-4.361h1.091a2.18,2.18,0,1,0,0-4.361H40.556a6.541,6.541,0,0,0-2.18,12.708v4.736H31.834A6.553,6.553,0,0,0,25.668,21.8H2.18A2.18,2.18,0,0,0,0,23.985V56.691a2.18,2.18,0,0,0,2.18,2.18H8.722V98.119a2.18,2.18,0,0,0,2.18,2.18H96.375a2.18,2.18,0,0,0,2.18-2.18V75.94a6.54,6.54,0,0,0-2.18-12.707H86.346V58.872h14.39a2.18,2.18,0,0,0,2.18-2.18V47.97h4.361a4.366,4.366,0,0,0,4.361-4.361V30.527a4.366,4.366,0,0,0-4.361-4.361M62.36,13.083H68.9v4.361H62.36Zm-19.624,0H58v4.361H42.736ZM31.834,21.8H71.082a2.18,2.18,0,1,1,0,4.361H31.834a2.18,2.18,0,1,1,0-4.361m2.18,41.429V30.526h4.361v6.542a2.181,2.181,0,0,0,2.18,2.18h1.473V45.79a2.18,2.18,0,0,0,2.18,2.18H46.39v2.18a2.18,2.18,0,1,0,4.361,0V47.97H68.9V63.232H34.015ZM13.083,54.511H29.654v6.541H13.083Zm0,10.9H29.654v21.8H13.083ZM55.819,34.888H42.736V30.526H55.819ZM68.9,30.526V43.609H55.112V39.249H58a2.181,2.181,0,0,0,2.18-2.18V30.526ZM46.39,39.249h4.362v4.361H46.39ZM4.361,54.511V26.165H25.668a6.573,6.573,0,0,0,3.986,3.986v20H10.9a2.18,2.18,0,0,0-2.18,2.18v2.18Zm8.722,41.428V91.578H31.834a2.18,2.18,0,0,0,2.18-2.18V76.316h60.18V95.939ZM98.555,69.775a2.183,2.183,0,0,1-2.18,2.18H34.015V67.594h62.36a2.183,2.183,0,0,1,2.18,2.18m-16.57-6.541H73.262V58.872h8.723Zm16.57-8.723H73.262V30.151a6.571,6.571,0,0,0,3.986-3.986H98.555Zm8.722-10.9h-4.361V30.527h4.361Z"/>
          <path id="Trazado_265894" data-name="Trazado 265894" d="M386.033,200h-7.849a2.18,2.18,0,1,0,0,4.361h7.849a2.18,2.18,0,1,0,0-4.361" transform="translate(-294.019 -156.395)"/>
          <path id="Trazado_265895" data-name="Trazado 265895" d="M386.033,160h-7.849a2.18,2.18,0,1,0,0,4.361h7.849a2.18,2.18,0,1,0,0-4.361" transform="translate(-294.019 -125.116)"/>
          <path id="Trazado_265896" data-name="Trazado 265896" d="M42.18,144.365h7.849a2.18,2.18,0,0,0,0-4.361H42.18a2.18,2.18,0,0,0,0,4.361" transform="translate(-31.278 -109.477)"/>
          <path id="Trazado_265897" data-name="Trazado 265897" d="M42.18,184.365h0A2.18,2.18,0,1,0,40,182.184a2.18,2.18,0,0,0,2.182,2.18" transform="translate(-31.278 -140.755)"/>
          <path id="Trazado_265898" data-name="Trazado 265898" d="M351.176,400H339.184a2.18,2.18,0,1,0,0,4.361h11.991a2.18,2.18,0,1,0,0-4.361" transform="translate(-263.523 -312.783)"/>
          <path id="Trazado_265899" data-name="Trazado 265899" d="M294.181,400h0a2.18,2.18,0,1,0,2.182,2.18A2.18,2.18,0,0,0,294.18,400" transform="translate(-228.331 -312.783)"/>
          <path id="Trazado_265900" data-name="Trazado 265900" d="M228.18,4.361h0A2.18,2.18,0,1,0,226,2.18a2.18,2.18,0,0,0,2.182,2.18" transform="translate(-176.722)"/>
        </g>
      </g>
    </g>
  </g>
</svg>
