<svg xmlns="http://www.w3.org/2000/svg" width="190" height="100.3" viewBox="0 0 190 100.3">
  <g id="Grupo_179115" data-name="Grupo 179115" transform="translate(-180 -1110.7)">
    <g id="Grupo_179114" data-name="Grupo 179114" transform="translate(-25 -72)">
      <g id="Grupo_179113" data-name="Grupo 179113" transform="translate(25 -299)">
        <path id="Trazado_113723" data-name="Trazado 113723" d="M-72.06,10.548c-4.477.05-6.13,3.173-2.337,4.452,6.3,2.121,12.513,4.55,18.547,7.263A177.319,177.319,0,0,1-32.831,34.648c5.278,3.394,15.486,2.36,18.155-1.823,2.056-3.221,2.858-6.957-.234-10.426-1.934-2.169-5.253-3.9-9.238-5C-45.161,11.608-61.544,10.43-72.06,10.548Z" transform="translate(382.855 1471.46)" fill="#a2e6b0" opacity="0.2"/>
        <path id="blob" d="M14.578,76.777C1.92,55.917,14.714,27.111,42.343,16.268,69.976,5.341,112.305,12.46,146.059,27.277s58.933,37.249,50.495,54.548c-8.44,17.383-50.5,29.551-90.783,29.137C65.62,110.548,27.239,97.636,14.578,76.777Z" transform="translate(170.321 1471.027)" fill="#a2e6b0" opacity="0.2"/>
      </g>
    </g>
    <g id="obrero" transform="translate(188 1110.7)">
      <path id="Trazado_268170" data-name="Trazado 268170" d="M407.754,363.27v12.342H396V344.82A20.483,20.483,0,0,1,407.754,363.27Z" transform="translate(-281.435 -277.27)" fill="#a2e6b0"/>
      <path id="Trazado_268171" data-name="Trazado 268171" d="M166.934,133a3.918,3.918,0,0,1,0,7.836H119.918a3.918,3.918,0,0,1,0-7.836Z" transform="translate(-56.287 -106.945)" fill="#48a5f0"/>
      <path id="Trazado_268172" data-name="Trazado 268172" d="M151.672,14.9v-.392c0-2.165,1.753-4.506,3.918-4.506h7.836c2.165,0,3.918,2.341,3.918,4.506V14.9a19.6,19.6,0,0,1,15.672,19.2H136A19.6,19.6,0,0,1,151.672,14.9Z" transform="translate(-72.369 -8.041)" fill="#a2e6b0"/>
      <path id="Trazado_268173" data-name="Trazado 268173" d="M163.016,336H155.18l-11.754,12.342L131.672,336h-7.836A18.655,18.655,0,0,0,116,337.728v30.791h54.852V337.728A18.655,18.655,0,0,0,163.016,336Z" transform="translate(-56.287 -270.178)" fill="#48a5f0"/>
      <path id="Trazado_268174" data-name="Trazado 268174" d="M164.975,173h-43.1a5.877,5.877,0,0,0,0,11.754h2.347a20.618,20.618,0,0,0,5.35,10.228,20.069,20.069,0,0,0,2.2,1.981l-.1.135v7.834l11.754,12.342,11.754-12.342V197.1l-.1-.135a20.621,20.621,0,0,0,7.552-12.208h2.347a5.877,5.877,0,1,0,0-11.754Z" transform="translate(-56.287 -139.11)" fill="#fff5cd"/>
      <path id="Trazado_268175" data-name="Trazado 268175" d="M67.754,344.82v30.791H56V363.27A20.483,20.483,0,0,1,67.754,344.82Z" transform="translate(-8.041 -277.27)" fill="#a2e6b0"/>
      <path id="Trazado_268176" data-name="Trazado 268176" d="M347.959,432.918A1.959,1.959,0,1,0,346,430.959,1.96,1.96,0,0,0,347.959,432.918Z" transform="translate(-241.23 -344.96)"/>
      <path id="Trazado_268177" data-name="Trazado 268177" d="M147.959,429a1.959,1.959,0,1,0,1.959,1.959A1.96,1.96,0,0,0,147.959,429Z" transform="translate(-80.41 -344.96)"/>
      <path id="Trazado_268178" data-name="Trazado 268178" d="M124.682,73.895a22.138,22.138,0,0,0-8.785-7.877,1.949,1.949,0,0,0-1.112-.512,20.493,20.493,0,0,0-8.055-1.643h-5.877V58.695A22.471,22.471,0,0,0,107.883,47.6h.8a7.831,7.831,0,0,0,5.755-13.147c.123-.1.243-.214.359-.329a5.875,5.875,0,0,0-2.263-9.718A21.623,21.623,0,0,0,96.819,5.291C96.3,2.6,94.08,0,91.057,0H83.221C80.2,0,77.974,2.6,77.458,5.291A21.623,21.623,0,0,0,61.739,24.407a5.874,5.874,0,0,0-1.9,10.048A7.831,7.831,0,0,0,65.59,47.6h.8a22.518,22.518,0,0,0,5.484,9.625c.492.513,1.013,1,1.553,1.465v5.17H67.549a20.5,20.5,0,0,0-8.055,1.643,1.949,1.949,0,0,0-1.112.512A22.445,22.445,0,0,0,46,86V98.341a1.959,1.959,0,0,0,1.959,1.959h78.359a1.959,1.959,0,0,0,1.959-1.959V86A22.272,22.272,0,0,0,124.682,73.895ZM104.77,67.781V80.123a1.959,1.959,0,0,0,3.918,0V67.9a16.584,16.584,0,0,1,3.918.957V96.382h-3.918V91.876a1.959,1.959,0,1,0-3.918,0v4.506H89.1V78.947L99.732,67.781ZM77.344,61.39a20.632,20.632,0,0,0,19.59,0v3.649L87.139,75.323,77.344,65.038Zm31.344-17.7H108.6c.058-.652.089-1.306.089-1.959V35.849a3.918,3.918,0,0,1,0,7.836ZM77.344,9.43v8.788a1.959,1.959,0,0,0,3.918,0V6.465c0-1.214,1.025-2.547,1.959-2.547h7.836c.934,0,1.959,1.333,1.959,2.547V18.219a1.959,1.959,0,0,0,3.918,0V9.43A17.708,17.708,0,0,1,108.578,24.1H65.7A17.709,17.709,0,0,1,77.344,9.43Zm-15.1,19.158a1.946,1.946,0,0,1,1.385-.574h47.016a1.959,1.959,0,0,1,0,3.918H63.631a1.958,1.958,0,0,1-1.385-3.344Zm-.574,11.18a3.922,3.922,0,0,1,3.918-3.918v5.877c0,.653.031,1.307.089,1.959H65.59A3.922,3.922,0,0,1,61.672,39.767Zm8.192,5.521c0-.021-.008-.043-.012-.063a18.068,18.068,0,0,1-.344-3.5V35.849H104.77v5.877a18.075,18.075,0,0,1-.344,3.5c0,.021-.008.043-.012.064a18.557,18.557,0,0,1-6.826,11.018,16.818,16.818,0,0,1-20.9,0A18.154,18.154,0,0,1,74.7,54.516,18.577,18.577,0,0,1,69.864,45.288Zm4.682,22.492L85.18,78.947V96.382H69.508V91.876a1.959,1.959,0,1,0-3.918,0v4.506H61.672V68.853A16.582,16.582,0,0,1,65.59,67.9V80.123a1.959,1.959,0,0,0,3.918,0V67.781ZM49.918,86a18.714,18.714,0,0,1,7.836-15.06V96.382H49.918Zm74.441,10.383h-7.836V70.939A18.714,18.714,0,0,1,124.359,86Z"/>
    </g>
  </g>
</svg>
