<svg xmlns="http://www.w3.org/2000/svg" xmlns:xlink="http://www.w3.org/1999/xlink" width="400" height="221.354" viewBox="0 0 400 221.354">
  <defs>
    <linearGradient id="linear-gradient" y1="0.5" x2="1" y2="0.5" gradientUnits="objectBoundingBox">
      <stop offset="0.032" stop-color="#48a5f0"/>
      <stop offset="1" stop-color="#3d5075"/>
    </linearGradient>
    <linearGradient id="linear-gradient-2" x1="0.106" y1="0.808" x2="0.894" y2="0.192" gradientUnits="objectBoundingBox">
      <stop offset="0.032" stop-color="#a2e6b0"/>
      <stop offset="1" stop-color="#48a5f0"/>
    </linearGradient>
    <linearGradient id="linear-gradient-4" x1="-0.612" y1="0.827" x2="0.587" y2="0.175" xlink:href="#linear-gradient-2"/>
    <clipPath id="clip-path">
      <rect id="Rectángulo_44497" data-name="Rectángulo 44497" width="224.946" height="221.354" fill="none"/>
    </clipPath>
    <clipPath id="clip-path-3">
      <path id="Trazado_196377" data-name="Trazado 196377" d="M85.978,74.454l26.991,15.583L164.131,60.5,137.139,44.916Z" transform="translate(-85.978 -44.916)" fill="none"/>
    </clipPath>
    <linearGradient id="linear-gradient-5" x1="-1.477" y1="3.569" x2="-1.46" y2="3.569" gradientUnits="objectBoundingBox">
      <stop offset="0" stop-color="#e4e4e4"/>
      <stop offset="0.64" stop-color="#d1d1d1"/>
      <stop offset="0.645" stop-color="#dcdcdc"/>
      <stop offset="1" stop-color="#dcdcdc"/>
    </linearGradient>
    <clipPath id="clip-path-5">
      <path id="Trazado_196381" data-name="Trazado 196381" d="M107.768,60.972l.258,2.285a6.491,6.491,0,0,0,1.806,2.567l3.879,2.28a19.9,19.9,0,0,0,4.426,1.065l5.505.03a20.161,20.161,0,0,0,4.414-1.046l3.921-2.24a6.512,6.512,0,0,0,1.826-2.559l.012-4.289c-4.658,5.239-24.175,4.866-25.777-.1Z" transform="translate(-107.768 -58.969)" fill="none"/>
    </clipPath>
    <linearGradient id="linear-gradient-6" x1="-5.556" y1="13.897" x2="-5.504" y2="13.897" gradientUnits="objectBoundingBox">
      <stop offset="0" stop-color="#9f9f9f"/>
      <stop offset="0.296" stop-color="#9f9f9f"/>
      <stop offset="1" stop-color="#b5b5b5"/>
    </linearGradient>
    <clipPath id="clip-path-7">
      <path id="Trazado_196384" data-name="Trazado 196384" d="M113.611,55.537c-1.691.983-2.536,2.267-2.541,3.552l-.012,4.287c0-1.285.85-2.569,2.541-3.552a13.632,13.632,0,0,1,12.368-.009c1.72.992,2.577,2.3,2.574,3.6l.012-4.289c0-1.3-.853-2.6-2.573-3.6a13.637,13.637,0,0,0-12.369.009" transform="translate(-111.058 -54.049)" fill="none"/>
    </clipPath>
    <linearGradient id="linear-gradient-7" x1="-8.523" y1="15.888" x2="-8.446" y2="15.888" gradientUnits="objectBoundingBox">
      <stop offset="0" stop-color="#b5b5b5"/>
      <stop offset="1" stop-color="#9f9f9f"/>
    </linearGradient>
    <clipPath id="clip-path-9">
      <path id="Trazado_196393" data-name="Trazado 196393" d="M115.6,63.821c-3.427-1.977-3.444-5.178-.042-7.154a13.635,13.635,0,0,1,12.369-.009c3.425,1.977,3.427,5.186.024,7.164a13.6,13.6,0,0,1-12.352,0M119.5,50.752l-.457,2.018a18.851,18.851,0,0,0-4.43,1.037l-2.836-1.231L108.6,54.427l2.119,1.609a6.416,6.416,0,0,0-1.828,2.559l-3.487.291-.012,2.618,3.467.281a6.481,6.481,0,0,0,1.8,2.569l-2.116,1.638,3.208,1.852,2.788-1.211a19.829,19.829,0,0,0,4.426,1.066l.5,2.028,4.534.009.475-2.007a20.1,20.1,0,0,0,4.412-1.047l2.836,1.231,3.186-1.852-2.1-1.618a6.516,6.516,0,0,0,1.826-2.561l3.5-.281V58.974l-3.466-.282a6.518,6.518,0,0,0-1.823-2.559l2.116-1.637-3.206-1.853-2.771,1.2a19.953,19.953,0,0,0-4.44-1.057l-.482-2.037Z" transform="translate(-105.388 -50.752)" fill="none"/>
    </clipPath>
    <linearGradient id="linear-gradient-8" x1="-4.322" y1="8.07" x2="-4.281" y2="8.07" xlink:href="#linear-gradient-5"/>
    <clipPath id="clip-path-11">
      <path id="Trazado_196451" data-name="Trazado 196451" d="M26.953,71.79l46.584,26.9a16.629,16.629,0,0,1,4.1,3.451,22.623,22.623,0,0,1,3.636,5.719A17.691,17.691,0,0,1,82.9,114.9c-.008,2.958-1.054,5.041-2.741,6.021l2.644-1.537c1.687-.979,2.733-3.062,2.742-6.02a17.666,17.666,0,0,0-1.626-7.043,22.562,22.562,0,0,0-3.636-5.719,16.606,16.606,0,0,0-4.1-3.452L29.6,70.254Z" transform="translate(-26.953 -70.254)" fill="none"/>
    </clipPath>
    <linearGradient id="linear-gradient-9" x1="-0.361" y1="1.888" x2="-0.343" y2="1.888" gradientUnits="objectBoundingBox">
      <stop offset="0" stop-color="#5874d9"/>
      <stop offset="1" stop-color="#4a60c6"/>
    </linearGradient>
    <clipPath id="clip-path-13">
      <path id="Trazado_196459" data-name="Trazado 196459" d="M47.431,94.9l7.5,4.329a16.586,16.586,0,0,1,4.1,3.452l11.635-6.729a16.628,16.628,0,0,0-4.1-3.451l-7.5-4.329Z" transform="translate(-47.431 -88.177)" fill="none"/>
    </clipPath>
    <linearGradient id="linear-gradient-10" x1="-2.251" y1="4.458" x2="-2.202" y2="4.458" xlink:href="#linear-gradient-9"/>
    <clipPath id="clip-path-14">
      <path id="Trazado_196460" data-name="Trazado 196460" d="M16.681,77.721l46.583,26.9a16.659,16.659,0,0,1,4.1,3.451A22.7,22.7,0,0,1,71,113.786a17.689,17.689,0,0,1,1.623,7.043c-.008,2.958-1.054,5.041-2.741,6.021l2.644-1.537c1.688-.979,2.733-3.062,2.742-6.02a17.664,17.664,0,0,0-1.625-7.043,22.637,22.637,0,0,0-3.636-5.719,16.635,16.635,0,0,0-4.1-3.452L19.325,76.185Z" transform="translate(-16.681 -76.185)" fill="none"/>
    </clipPath>
    <linearGradient id="linear-gradient-11" x1="-0.18" y1="1.779" x2="-0.162" y2="1.779" xlink:href="#linear-gradient-9"/>
    <clipPath id="clip-path-16">
      <rect id="Rectángulo_44478" data-name="Rectángulo 44478" width="3.572" height="2.832" fill="none"/>
    </clipPath>
    <clipPath id="clip-path-17">
      <rect id="Rectángulo_44479" data-name="Rectángulo 44479" width="3.572" height="2.062" fill="none"/>
    </clipPath>
    <clipPath id="clip-path-20">
      <rect id="Rectángulo_44484" data-name="Rectángulo 44484" width="27.678" height="14.228" fill="none"/>
    </clipPath>
    <clipPath id="clip-path-21">
      <rect id="Rectángulo_44482" data-name="Rectángulo 44482" width="27.678" height="13.849" fill="none"/>
    </clipPath>
    <clipPath id="clip-path-22">
      <rect id="Rectángulo_44483" data-name="Rectángulo 44483" width="27.678" height="7.758" fill="none"/>
    </clipPath>
    <clipPath id="clip-path-27">
      <rect id="Rectángulo_44491" data-name="Rectángulo 44491" width="34.893" height="18.394" fill="none"/>
    </clipPath>
    <clipPath id="clip-path-28">
      <rect id="Rectángulo_44489" data-name="Rectángulo 44489" width="34.893" height="18.014" fill="none"/>
    </clipPath>
    <clipPath id="clip-path-29">
      <rect id="Rectángulo_44490" data-name="Rectángulo 44490" width="34.893" height="11.015" fill="none"/>
    </clipPath>
    <clipPath id="clip-path-30">
      <rect id="Rectángulo_44495" data-name="Rectángulo 44495" width="24.22" height="23.191" fill="none"/>
    </clipPath>
    <clipPath id="clip-path-31">
      <path id="Trazado_196485" data-name="Trazado 196485" d="M12.023,90.369c1.243-.722,2.974-.6,4.874.533a14.681,14.681,0,0,1,6.545,11.607c-.036,2.041-.775,3.472-1.947,4.155l-9.759,5.67L2.265,96.04Z" transform="translate(-2.265 -89.918)" fill="none"/>
    </clipPath>
    <linearGradient id="linear-gradient-12" x1="0.041" y1="3.462" x2="0.086" y2="3.462" xlink:href="#linear-gradient-9"/>
    <clipPath id="clip-path-32">
      <rect id="Rectángulo_44494" data-name="Rectángulo 44494" width="18.221" height="14.954" fill="none"/>
    </clipPath>
    <clipPath id="clip-path-33">
      <path id="Trazado_196487" data-name="Trazado 196487" d="M2.033,102.8c.414-3.693.51-5.437,3.745-7.381,1.214-.73,9.237-5.388,9.237-5.388a7.227,7.227,0,0,1,1.962.831,12.471,12.471,0,0,1,3.278,2.965c-.608.361-8.509,4.13-10.225,5.689A23.084,23.084,0,0,0,5.7,104.985c-1.419-.1-2.6-1.168-3.664-2.183" transform="translate(-2.033 -90.032)" fill="none"/>
    </clipPath>
    <linearGradient id="linear-gradient-13" x1="-0.002" y1="4.502" x2="0.055" y2="4.502" gradientUnits="objectBoundingBox">
      <stop offset="0" stop-color="#3c4aae"/>
      <stop offset="0.218" stop-color="#303b8c"/>
      <stop offset="0.695" stop-color="#131838"/>
      <stop offset="1"/>
    </linearGradient>
  </defs>
  <g id="Grupo_179279" data-name="Grupo 179279" transform="translate(-180 -2971.686)">
    <g id="Grupo_142148" data-name="Grupo 142148" transform="translate(180 2996.683)">
      <g id="Grupo_108465" data-name="Grupo 108465" transform="translate(0 0)">
        <path id="Trazado_113529" data-name="Trazado 113529" d="M44.727,152.19c4.373,4.228,11.323,4.819,17.394,5.172s12.653-1.774,16.038-6.827c2.106-3.145,2.754-7.009,3.5-10.72,4.45-22.147,17.087-45.713,39.134-50.633,10.188-2.276,20.871-.154,31.215-1.552s21.516-8.517,21.452-18.954c-.217-35.8-54.492-54.172-91.822-37.417C45.337,47.553-2.526,106.51,44.727,152.19Z" transform="translate(-25 -22.854)" fill="url(#linear-gradient)"/>
        <circle id="Elipse_4716" data-name="Elipse 4716" cx="20.771" cy="20.771" r="20.771" transform="translate(0 20.771)" fill="url(#linear-gradient-2)"/>
        <circle id="Elipse_4717" data-name="Elipse 4717" cx="13.951" cy="13.951" r="13.951" transform="translate(46.329 0)" fill="url(#linear-gradient-2)"/>
      </g>
      <path id="Trazado_113748" data-name="Trazado 113748" d="M1199.913,275.5c7.473-7,20.76,77.011-15.312,109.758-31.5,28.6-66.764,7.954-62.023-9.156s27.446-15.511,52.773-54C1193.607,294.363,1194.987,280.114,1199.913,275.5Z" transform="translate(-808.595 -236.568)" fill="url(#linear-gradient-4)"/>
    </g>
    <g id="Grupo_142230" data-name="Grupo 142230" transform="translate(251.521 2971.686)">
      <g id="Grupo_142229" data-name="Grupo 142229" clip-path="url(#clip-path)">
        <g id="Grupo_142150" data-name="Grupo 142150">
          <g id="Grupo_142149" data-name="Grupo 142149" clip-path="url(#clip-path)">
            <path id="Trazado_196348" data-name="Trazado 196348" d="M95.908,10.18,83.924,3.26a2.5,2.5,0,0,0-2.514,0,2.53,2.53,0,0,0-.6.5,2.366,2.366,0,0,0-.5.134,2.511,2.511,0,0,0-.606.5,2.408,2.408,0,0,0-.5.137,2.468,2.468,0,0,0-.6.5,2.478,2.478,0,0,0-.5.136,2.5,2.5,0,0,0-.6.5,2.4,2.4,0,0,0-.5.134,2.488,2.488,0,0,0-1.258,2.177V32.257a9.662,9.662,0,0,0,.924,4.1l3.691,7.792a.613.613,0,0,0,.553.352.6.6,0,0,0,.262-.06.61.61,0,0,0,.291-.814v-.117a.612.612,0,0,0,1.106-.524v-.114a.613.613,0,0,0,.553.35.6.6,0,0,0,.261-.059.612.612,0,0,0,.291-.815v-.117a.613.613,0,0,0,.553.352.6.6,0,0,0,.262-.06.61.61,0,0,0,.291-.814V41.6a.612.612,0,1,0,1.106-.524l-3.691-7.792a8.428,8.428,0,0,1-.8-3.578V8.319L90.87,13.8a.615.615,0,0,0,.837-.224.574.574,0,0,0-.034-.589l.3.175a.616.616,0,0,0,.837-.224.574.574,0,0,0-.036-.591l.3.176a.62.62,0,0,0,.838-.224.574.574,0,0,0-.036-.591l.306.177a.615.615,0,0,0,.837-.224.573.573,0,0,0-.036-.592l.306.176a.612.612,0,0,0,.612-1.061" transform="translate(25.957 1.001)" fill="#2c2623"/>
            <path id="Trazado_196349" data-name="Trazado 196349" d="M98.358,156.267,78.25,144.657V10.728L98.358,22.336Z" transform="translate(26.821 3.677)" fill="#3c4aae"/>
            <path id="Trazado_196350" data-name="Trazado 196350" d="M118.175,142.576l-24.95,14.405V23.05l24.95-14.405Z" transform="translate(31.954 2.963)" fill="#4a60c6"/>
            <path id="Trazado_196351" data-name="Trazado 196351" d="M118.175,139.136l-24.95,14.405V33.086l24.95-14.405Z" transform="translate(31.954 6.403)" fill="#3a322e"/>
            <path id="Trazado_196352" data-name="Trazado 196352" d="M98.358,26.013,78.25,14.4,103.2,0l20.108,11.608Z" transform="translate(26.821 0)" fill="#597de2"/>
            <path id="Trazado_196353" data-name="Trazado 196353" d="M117.593,163.191,81.73,142.486v-70.6l35.862,20.705Z" transform="translate(28.014 24.641)" fill="#c8c4ba"/>
            <path id="Trazado_196354" data-name="Trazado 196354" d="M162.934,134.474l-54.5,31.464V95.34l54.5-31.462Z" transform="translate(37.168 21.895)" fill="#e1ddd7"/>
            <path id="Trazado_196355" data-name="Trazado 196355" d="M117.593,100.626,81.73,79.92l54.5-31.464,35.862,20.705Z" transform="translate(28.014 16.609)" fill="#f2efeb"/>
            <path id="Trazado_196356" data-name="Trazado 196356" d="M96.4,100.978,63.163,81.791v4.332L96.4,105.311Z" transform="translate(21.65 28.035)" fill="#c8c4ba"/>
            <path id="Trazado_196357" data-name="Trazado 196357" d="M194.812,54.449l-106.9,61.719v-4.333l106.9-61.719Z" transform="translate(30.133 17.178)" fill="#e1ddd7"/>
            <path id="Trazado_196358" data-name="Trazado 196358" d="M96.4,116.732,63.163,97.546l106.9-61.719L203.3,55.014Z" transform="translate(21.65 12.28)" fill="#f2efeb"/>
            <path id="Trazado_196359" data-name="Trazado 196359" d="M119.613,154.311l-15.576-8.992,5.94-31.238,9.636,5.563Z" transform="translate(35.66 39.102)" fill="#c8c4ba"/>
            <path id="Trazado_196360" data-name="Trazado 196360" d="M170.133,129.459l-54.5,31.464V126.255l54.5-31.464Z" transform="translate(39.636 32.491)" fill="#e1ddd7"/>
            <path id="Trazado_196361" data-name="Trazado 196361" d="M118.1,127.675l-9.636-5.563,54.5-31.464,9.636,5.563Z" transform="translate(37.176 31.071)" fill="#f2efeb"/>
            <path id="Trazado_196362" data-name="Trazado 196362" d="M93.1,97.688l30.971-17.95,9.56,5.52-30.971,17.95Z" transform="translate(31.91 27.331)" fill="#f2efeb"/>
            <path id="Trazado_196363" data-name="Trazado 196363" d="M107.435,111.348,138.405,93.4l-.008,2.726-30.971,17.95Z" transform="translate(36.822 32.013)" fill="#e1ddd7"/>
            <path id="Trazado_196364" data-name="Trazado 196364" d="M100.218,101.8l30.971-17.95,9.687,12.821-30.969,17.951Z" transform="translate(34.351 28.74)" fill="#f6f3ef"/>
            <path id="Trazado_196365" data-name="Trazado 196365" d="M130.419,85.016l-28.883,16.74,8.234,10.9,28.883-16.742c-.144-.188-8.087-10.7-8.234-10.9m-28.378,16.842,28.288-16.394,7.819,10.346-28.288,16.4Z" transform="translate(34.803 29.14)" fill="#c8c4ba"/>
            <path id="Trazado_196366" data-name="Trazado 196366" d="M102.658,98.626l9.688,12.822-.008,2.726-19.226-11.1L93.1,93.106Z" transform="translate(31.91 31.913)" fill="#c8c4ba"/>
            <path id="Trazado_196367" data-name="Trazado 196367" d="M163.135,66.406l-32.15-18.66-.091-21.6L163.042,44.8Z" transform="translate(44.865 8.961)" fill="#3c4aae"/>
            <path id="Trazado_196368" data-name="Trazado 196368" d="M163.043,45.024l-32.15-18.66,1.493-.862,32.15,18.66Z" transform="translate(44.865 8.741)" fill="#597de2"/>
            <path id="Trazado_196369" data-name="Trazado 196369" d="M108.642,103.119l-32.15-18.66,73.14-42.227,32.15,18.66Z" transform="translate(26.218 14.475)" fill="#597de2"/>
            <path id="Trazado_196370" data-name="Trazado 196370" d="M107.522,90.537l-32.15-18.66,1.493-.862,32.15,18.66Z" transform="translate(25.835 24.341)" fill="#597de2"/>
            <path id="Trazado_196371" data-name="Trazado 196371" d="M107.537,95.611l-32.15-18.66-.015-5.293,32.15,18.659Z" transform="translate(25.835 24.561)" fill="#3c4aae"/>
            <path id="Trazado_196372" data-name="Trazado 196372" d="M175.36,39.4l.1,23.318L99.331,106.669l-.016-5.295,1.493-.862.011,3.578,73.14-42.227-.093-21.6Z" transform="translate(34.041 13.504)" fill="#4a60c6"/>
            <path id="Trazado_196373" data-name="Trazado 196373" d="M112.969,86.465l-7.781-4.493-19.21-11.09V67.741l26.991,15.583Z" transform="translate(29.47 23.219)" fill="#2c2623"/>
            <path id="Trazado_196374" data-name="Trazado 196374" d="M157.241,60.49,106.079,90.028V86.886l51.162-29.538Z" transform="translate(36.36 19.656)" fill="#3a322e"/>
            <path id="Trazado_196375" data-name="Trazado 196375" d="M112.969,84.14,85.978,68.558V66.914L112.969,82.5Z" transform="translate(29.47 22.936)" fill="#949494"/>
            <path id="Trazado_196376" data-name="Trazado 196376" d="M157.241,58.165,106.079,87.7V86.059l51.162-29.538Z" transform="translate(36.36 19.373)" fill="#b2b2b2"/>
          </g>
        </g>
        <g id="Grupo_142152" data-name="Grupo 142152" transform="translate(115.448 60.311)">
          <g id="Grupo_142151" data-name="Grupo 142151" clip-path="url(#clip-path-3)">
            <rect id="Rectángulo_44465" data-name="Rectángulo 44465" width="78.153" height="45.121" fill="url(#linear-gradient-5)"/>
          </g>
        </g>
        <g id="Grupo_142154" data-name="Grupo 142154">
          <g id="Grupo_142153" data-name="Grupo 142153" clip-path="url(#clip-path)">
            <path id="Trazado_196378" data-name="Trazado 196378" d="M94.934,39.208l19.395,11.2v6.248l-19.395-11.2Z" transform="translate(32.54 13.439)" fill="#c8c4ba"/>
            <path id="Trazado_196379" data-name="Trazado 196379" d="M128.773,45.455l-19.395,11.2V50.405l19.395-11.2Z" transform="translate(37.491 13.439)" fill="#e1ddd7"/>
            <path id="Trazado_196380" data-name="Trazado 196380" d="M114.329,53.264l-19.395-11.2,19.395-11.2,19.395,11.2Z" transform="translate(32.54 10.58)" fill="#f2efeb"/>
          </g>
        </g>
        <g id="Grupo_142156" data-name="Grupo 142156" transform="translate(144.707 79.181)">
          <g id="Grupo_142155" data-name="Grupo 142155" clip-path="url(#clip-path-5)">
            <rect id="Rectángulo_44467" data-name="Rectángulo 44467" width="26.047" height="10.23" transform="translate(0 0)" fill="url(#linear-gradient-6)"/>
          </g>
        </g>
        <g id="Grupo_142158" data-name="Grupo 142158">
          <g id="Grupo_142157" data-name="Grupo 142157" clip-path="url(#clip-path)">
            <path id="Trazado_196382" data-name="Trazado 196382" d="M107.78,53.489l-.012,4.287,2.119,1.61L109.9,55.1Z" transform="translate(36.939 18.334)" fill="#9f9f9f"/>
            <path id="Trazado_196383" data-name="Trazado 196383" d="M125.837,55.178l-.012,4.287,2.116-1.638.012-4.287Z" transform="translate(43.128 18.351)" fill="#b5b5b5"/>
          </g>
        </g>
        <g id="Grupo_142160" data-name="Grupo 142160" transform="translate(149.124 72.575)">
          <g id="Grupo_142159" data-name="Grupo 142159" clip-path="url(#clip-path-7)">
            <rect id="Rectángulo_44469" data-name="Rectángulo 44469" width="17.498" height="9.364" transform="translate(0 -0.001)" fill="url(#linear-gradient-7)"/>
          </g>
        </g>
        <g id="Grupo_142162" data-name="Grupo 142162">
          <g id="Grupo_142161" data-name="Grupo 142161" clip-path="url(#clip-path)">
            <path id="Trazado_196385" data-name="Trazado 196385" d="M105.391,58.76l-.012,4.287,3.466.282.012-4.289Z" transform="translate(36.12 20.14)" fill="#9f9f9f"/>
            <path id="Trazado_196386" data-name="Trazado 196386" d="M127.17,59.113l-.012,4.287,3.5-.281.012-4.287Z" transform="translate(43.585 20.165)" fill="#a6a6a6"/>
            <path id="Trazado_196387" data-name="Trazado 196387" d="M107.741,62.1l-.012,4.287,3.207,1.852.013-4.287Z" transform="translate(36.925 21.286)" fill="#9f9f9f"/>
            <path id="Trazado_196388" data-name="Trazado 196388" d="M110.13,63.791l-.012,4.287,2.789-1.211.012-4.289Z" transform="translate(37.744 21.449)" fill="#a6a6a6"/>
            <path id="Trazado_196389" data-name="Trazado 196389" d="M122.889,62.615l-.012,4.287,2.836,1.231.012-4.287Z" transform="translate(42.117 21.462)" fill="#9f9f9f"/>
            <path id="Trazado_196390" data-name="Trazado 196390" d="M125,64l-.012,4.287,3.186-1.852.012-4.287Z" transform="translate(42.841 21.304)" fill="#b5b5b5"/>
            <path id="Trazado_196391" data-name="Trazado 196391" d="M119.25,65.4l-.012,4.287.474-2.006.012-4.289Z" transform="translate(40.87 21.729)" fill="#a6a6a6"/>
            <path id="Trazado_196392" data-name="Trazado 196392" d="M115.5,63.373l-.012,4.287.5,2.026L116,65.4Z" transform="translate(39.585 21.722)" fill="#9f9f9f"/>
          </g>
        </g>
        <g id="Grupo_142164" data-name="Grupo 142164" transform="translate(141.511 68.148)">
          <g id="Grupo_142163" data-name="Grupo 142163" clip-path="url(#clip-path-9)">
            <rect id="Rectángulo_44471" data-name="Rectángulo 44471" width="32.742" height="18.984" transform="translate(0 0)" fill="url(#linear-gradient-8)"/>
          </g>
        </g>
        <g id="Grupo_142166" data-name="Grupo 142166">
          <g id="Grupo_142165" data-name="Grupo 142165" clip-path="url(#clip-path)">
            <rect id="Rectángulo_44472" data-name="Rectángulo 44472" width="4.287" height="4.536" transform="translate(155.572 91.408) rotate(-89.838)" fill="#b5b5b5"/>
            <path id="Trazado_196394" data-name="Trazado 196394" d="M130.544,35.435c-2.112-1.265-5.054-1.108-8.306.771C115.809,39.919,110.6,48.945,110.6,56.369c0,3.667,1.272,6.257,3.334,7.493l6.58,3.8,16.614-28.426Z" transform="translate(37.908 11.865)" fill="#787878"/>
            <path id="Trazado_196395" data-name="Trazado 196395" d="M115.5,59.2c0,7.424,5.213,10.433,11.642,6.721s11.64-12.739,11.64-20.163-5.211-10.432-11.64-6.721S115.5,51.774,115.5,59.2" transform="translate(39.587 12.835)" fill="#838383"/>
            <path id="Trazado_196396" data-name="Trazado 196396" d="M117.752,64.914l-11.093-6.4V39.723l11.093,6.4Z" transform="translate(36.559 13.615)" fill="#3c4aae"/>
            <path id="Trazado_196397" data-name="Trazado 196397" d="M110.347,43.028l-2.668-1.54V57.115l2.668,1.541Z" transform="translate(36.908 14.22)" fill="#3a322e"/>
            <path id="Trazado_196398" data-name="Trazado 196398" d="M139.973,52.508,114.921,66.972V48.184l25.052-14.463Z" transform="translate(39.39 11.558)" fill="#4a60c6"/>
            <path id="Trazado_196399" data-name="Trazado 196399" d="M117.752,49.819l-11.093-6.4,25.052-14.463,11.093,6.4Z" transform="translate(36.559 9.923)" fill="#597de2"/>
            <path id="Trazado_196400" data-name="Trazado 196400" d="M122.84,50.254c0,1.135.8,1.6,1.779,1.027A3.931,3.931,0,0,0,126.4,48.2c0-1.135-.8-1.6-1.779-1.027a3.931,3.931,0,0,0-1.779,3.082" transform="translate(42.105 16.085)" fill="#e1ddd7"/>
            <path id="Trazado_196401" data-name="Trazado 196401" d="M143.925,68.006a1.468,1.468,0,0,1,1.5-.14l6.823,3.94a1.481,1.481,0,0,1,.616,1.359,4.638,4.638,0,0,1-2.1,3.635,1.6,1.6,0,0,1-1.418.2c-.1-.042-6.917-4-6.917-4a1.485,1.485,0,0,1-.6-1.351,4.638,4.638,0,0,1,2.1-3.635" transform="translate(48.612 23.212)" fill="#a9a49a"/>
            <path id="Trazado_196402" data-name="Trazado 196402" d="M148.205,66.964c1.575-.909,3-.986,4.024-.373l2.185,1.262-8.047,13.767-2.186-1.261a3.991,3.991,0,0,1-1.614-3.63,12.463,12.463,0,0,1,5.638-9.766" transform="translate(48.866 22.689)" fill="#463c37"/>
            <path id="Trazado_196403" data-name="Trazado 196403" d="M144.194,77.671c0,3.6,2.524,5.053,5.638,3.255a12.464,12.464,0,0,0,5.64-9.766c0-3.6-2.526-5.053-5.64-3.255a12.463,12.463,0,0,0-5.638,9.766" transform="translate(49.424 23.011)" fill="#342d2a"/>
            <path id="Trazado_196404" data-name="Trazado 196404" d="M145.894,75.6c0,2.14,1.5,3.008,3.357,1.938a7.419,7.419,0,0,0,3.356-5.813c0-2.14-1.5-3.009-3.356-1.939a7.419,7.419,0,0,0-3.357,5.814" transform="translate(50.007 23.763)" fill="#2c2623"/>
            <path id="Trazado_196405" data-name="Trazado 196405" d="M147.629,73.487c0,.654.459.92,1.026.592a2.267,2.267,0,0,0,1.027-1.776c0-.655-.461-.92-1.027-.593a2.27,2.27,0,0,0-1.026,1.778" transform="translate(50.601 24.531)" fill="#342d2a"/>
            <path id="Trazado_196406" data-name="Trazado 196406" d="M147.657,76.1a.536.536,0,0,1,.551-.051l6.933,4a.544.544,0,0,1,.226.5,1.706,1.706,0,0,1-.771,1.336.587.587,0,0,1-.521.071c-.036-.015-6.968-4.026-6.968-4.026a.545.545,0,0,1-.22-.5,1.706,1.706,0,0,1,.771-1.336" transform="translate(50.347 26.048)" fill="#463c37"/>
            <path id="Trazado_196407" data-name="Trazado 196407" d="M129.5,76.333a1.468,1.468,0,0,1,1.5-.14l6.824,3.94a1.483,1.483,0,0,1,.615,1.359,4.638,4.638,0,0,1-2.1,3.635,1.6,1.6,0,0,1-1.418.2c-.1-.042-6.917-4-6.917-4a1.485,1.485,0,0,1-.6-1.351,4.638,4.638,0,0,1,2.1-3.635" transform="translate(43.668 26.066)" fill="#a9a49a"/>
            <path id="Trazado_196408" data-name="Trazado 196408" d="M133.781,75.291c1.575-.909,3-.986,4.024-.373l2.185,1.262-8.047,13.767-2.186-1.261a3.988,3.988,0,0,1-1.614-3.629,12.463,12.463,0,0,1,5.638-9.766" transform="translate(43.922 25.543)" fill="#463c37"/>
            <path id="Trazado_196409" data-name="Trazado 196409" d="M129.771,86c0,3.6,2.524,5.053,5.638,3.255a12.464,12.464,0,0,0,5.64-9.766c0-3.6-2.526-5.053-5.64-3.255A12.463,12.463,0,0,0,129.771,86" transform="translate(44.48 25.865)" fill="#342d2a"/>
            <path id="Trazado_196410" data-name="Trazado 196410" d="M131.47,83.928c0,2.14,1.5,3.008,3.357,1.938a7.42,7.42,0,0,0,3.357-5.813c0-2.14-1.5-3.009-3.357-1.939a7.419,7.419,0,0,0-3.357,5.814" transform="translate(45.063 26.617)" fill="#2c2623"/>
            <path id="Trazado_196411" data-name="Trazado 196411" d="M133.206,81.814c0,.654.459.92,1.026.592a2.267,2.267,0,0,0,1.027-1.776c0-.655-.461-.92-1.027-.594a2.27,2.27,0,0,0-1.026,1.778" transform="translate(45.658 27.386)" fill="#342d2a"/>
            <path id="Trazado_196412" data-name="Trazado 196412" d="M133.233,84.429a.536.536,0,0,1,.551-.051l6.933,4a.544.544,0,0,1,.226.5,1.706,1.706,0,0,1-.771,1.336.587.587,0,0,1-.521.071c-.036-.015-6.968-4.026-6.968-4.026a.545.545,0,0,1-.22-.5,1.706,1.706,0,0,1,.771-1.336" transform="translate(45.403 28.903)" fill="#463c37"/>
            <path id="Trazado_196413" data-name="Trazado 196413" d="M108.584,117.921l-16.341-9.434v-3.334l16.341,9.434Z" transform="translate(31.617 36.042)" fill="#a9a49a"/>
            <path id="Trazado_196414" data-name="Trazado 196414" d="M108.209,116.548l-16.76-9.676.857-2.018,16.76,9.677Z" transform="translate(31.345 35.94)" fill="#e1ddd7"/>
            <path id="Trazado_196415" data-name="Trazado 196415" d="M108.584,121.563l-16.341-9.434v-3.334l16.341,9.436Z" transform="translate(31.617 37.29)" fill="#a9a49a"/>
            <path id="Trazado_196416" data-name="Trazado 196416" d="M108.209,120.19l-16.76-9.676.857-2.018,16.76,9.677Z" transform="translate(31.345 37.188)" fill="#e1ddd7"/>
            <path id="Trazado_196417" data-name="Trazado 196417" d="M108.584,125.2,92.243,115.77v-3.334l16.341,9.436Z" transform="translate(31.617 38.539)" fill="#a9a49a"/>
            <path id="Trazado_196418" data-name="Trazado 196418" d="M108.209,123.832l-16.76-9.676.857-2.017,16.76,9.676Z" transform="translate(31.345 38.437)" fill="#e1ddd7"/>
            <path id="Trazado_196419" data-name="Trazado 196419" d="M108.584,128.847l-16.341-9.434v-3.334l16.341,9.434Z" transform="translate(31.617 39.787)" fill="#a9a49a"/>
            <path id="Trazado_196420" data-name="Trazado 196420" d="M108.209,127.474,91.449,117.8l.857-2.017,16.76,9.676Z" transform="translate(31.345 39.685)" fill="#e1ddd7"/>
            <path id="Trazado_196421" data-name="Trazado 196421" d="M83.227,26.384a1.255,1.255,0,0,1-.493-.568.557.557,0,0,1,0-.569l2.95-3.407c.1-.12.287-.12.493,0a1.242,1.242,0,0,1,.493.568l2.95,6.815a.55.55,0,0,1,0,.569c-.1.117-.286.118-.493,0Z" transform="translate(28.332 7.455)" fill="#3a322e"/>
            <path id="Trazado_196422" data-name="Trazado 196422" d="M82.912,25.492l2.95-3.407c.063-.073.219.017.281.162l2.951,6.813c.062.144-.016.234-.141.162l-5.9-3.407c-.125-.073-.2-.252-.141-.325" transform="translate(28.411 7.561)" fill="#db9d12"/>
            <path id="Trazado_196423" data-name="Trazado 196423" d="M85.093,25.5a.282.282,0,0,1-.133-.2L84.8,23.223c-.062-.732.991-.054.935.538l-.161,1.885c-.007.067-.064.087-.134.047Zm.172.54c-.218-.126-.393-.051-.393.167a.814.814,0,0,0,.393.62c.218.126.393.051.393-.167a.816.816,0,0,0-.393-.62" transform="translate(29.064 7.851)" fill="#3a322e"/>
            <path id="Trazado_196424" data-name="Trazado 196424" d="M133.194,40.3a2.145,2.145,0,0,0,1.033-1.627V36.759c0-.568-.463-.764-1.033-.435l-5.375,3.1a2.145,2.145,0,0,0-1.033,1.627v1.909c0,.568.463.764,1.033.435Z" transform="translate(43.457 12.396)" fill="#3a322e"/>
            <path id="Trazado_196425" data-name="Trazado 196425" d="M127.749,43.054l5.375-3.1a1.588,1.588,0,0,0,.764-1.206V36.837c0-.423-.342-.568-.764-.324l-5.375,3.1a1.588,1.588,0,0,0-.764,1.206V42.73c0,.423.342.568.764.324" transform="translate(43.525 12.475)" fill="#ffbe43"/>
            <path id="Trazado_196426" data-name="Trazado 196426" d="M127.7,40.35l4.976-2.874v-.234L127.7,40.116Z" transform="translate(43.772 12.765)" fill="#3a322e"/>
            <path id="Trazado_196427" data-name="Trazado 196427" d="M127.7,40.852l4.976-2.874v-.234L127.7,40.617Z" transform="translate(43.772 12.937)" fill="#3a322e"/>
            <path id="Trazado_196428" data-name="Trazado 196428" d="M127.7,41.354l4.976-2.874v-.234L127.7,41.12Z" transform="translate(43.772 13.109)" fill="#3a322e"/>
            <path id="Trazado_196429" data-name="Trazado 196429" d="M107.8,97.583a1.307,1.307,0,0,1-.232,1.991,1.78,1.78,0,0,1-2.2-.585A1.306,1.306,0,0,1,105.6,97a1.78,1.78,0,0,1,2.2.585" transform="translate(35.996 33.185)" fill="#463c37"/>
            <path id="Trazado_196430" data-name="Trazado 196430" d="M110.642,95.941a1.308,1.308,0,0,1-.235,1.991,1.776,1.776,0,0,1-2.2-.585,1.307,1.307,0,0,1,.235-1.991,1.775,1.775,0,0,1,2.2.585" transform="translate(36.971 32.623)" fill="#463c37"/>
            <path id="Trazado_196431" data-name="Trazado 196431" d="M113.484,94.3a1.31,1.31,0,0,1-.238,1.991,1.772,1.772,0,0,1-2.2-.585,1.308,1.308,0,0,1,.238-1.991,1.771,1.771,0,0,1,2.2.585" transform="translate(37.946 32.06)" fill="#e14444"/>
            <path id="Trazado_196432" data-name="Trazado 196432" d="M115.4,93.594a.632.632,0,0,1-.117.96.852.852,0,0,1-1.055-.282.63.63,0,0,1,.115-.96.854.854,0,0,1,1.057.282" transform="translate(39.095 31.954)" fill="#e1ddd7"/>
            <path id="Trazado_196433" data-name="Trazado 196433" d="M117.206,92.548a.632.632,0,0,1-.117.96.851.851,0,0,1-1.055-.282.632.632,0,0,1,.115-.96.853.853,0,0,1,1.057.282" transform="translate(39.715 31.596)" fill="#e1ddd7"/>
            <path id="Trazado_196434" data-name="Trazado 196434" d="M119.015,91.5a.633.633,0,0,1-.117.96.851.851,0,0,1-1.055-.282.632.632,0,0,1,.117-.96.851.851,0,0,1,1.055.282" transform="translate(40.335 31.237)" fill="#e1ddd7"/>
            <path id="Trazado_196435" data-name="Trazado 196435" d="M117.9,96.988a.632.632,0,0,1-.114.96.852.852,0,0,1-1.055-.282.631.631,0,0,1,.114-.96.852.852,0,0,1,1.055.282" transform="translate(39.955 33.117)" fill="#e1ddd7"/>
            <path id="Trazado_196436" data-name="Trazado 196436" d="M119.708,95.942a.634.634,0,0,1-.117.96.85.85,0,0,1-1.054-.282.632.632,0,0,1,.114-.96.853.853,0,0,1,1.057.282" transform="translate(40.573 32.759)" fill="#e1ddd7"/>
            <path id="Trazado_196437" data-name="Trazado 196437" d="M121.512,94.9a.634.634,0,0,1-.115.96.849.849,0,0,1-1.054-.282.632.632,0,0,1,.115-.96.849.849,0,0,1,1.054.282" transform="translate(41.192 32.401)" fill="#e1ddd7"/>
            <path id="Trazado_196438" data-name="Trazado 196438" d="M110.5,101.214a1.308,1.308,0,0,1-.23,1.991,1.777,1.777,0,0,1-2.2-.585,1.308,1.308,0,0,1,.23-1.991,1.776,1.776,0,0,1,2.2.585" transform="translate(36.924 34.43)" fill="#463c37"/>
            <path id="Trazado_196439" data-name="Trazado 196439" d="M113.337,99.571a1.31,1.31,0,0,1-.232,1.991,1.773,1.773,0,0,1-2.2-.585,1.308,1.308,0,0,1,.232-1.991,1.773,1.773,0,0,1,2.2.585" transform="translate(37.896 33.867)" fill="#463c37"/>
            <path id="Trazado_196440" data-name="Trazado 196440" d="M116.173,97.929a1.311,1.311,0,0,1-.235,1.991,1.769,1.769,0,0,1-2.193-.585,1.309,1.309,0,0,1,.235-1.991,1.768,1.768,0,0,1,2.193.585" transform="translate(38.869 33.304)" fill="#95b900"/>
            <path id="Trazado_196441" data-name="Trazado 196441" d="M49.134,171.1,13.462,150.5v-3.882l35.672,20.6Z" transform="translate(4.614 50.256)" fill="#c8c4ba"/>
            <path id="Trazado_196442" data-name="Trazado 196442" d="M65.264,154.99,40.028,169.56v-3.882l25.236-14.57Z" transform="translate(13.72 51.794)" fill="#e1ddd7"/>
            <path id="Trazado_196443" data-name="Trazado 196443" d="M49.134,170.936l-35.672-20.6L38.7,135.77l35.672,20.6Z" transform="translate(4.614 46.537)" fill="#f2efeb"/>
            <path id="Trazado_196444" data-name="Trazado 196444" d="M31.644,128.932l12.035-6.994,10.813,38.218-12.035,6.994Z" transform="translate(10.846 41.795)" fill="#f6f3ef"/>
            <path id="Trazado_196445" data-name="Trazado 196445" d="M31.677,120.4l12.035-6.994L43.68,124.86l-12.035,6.994Z" transform="translate(10.847 38.872)" fill="#e1ddd7"/>
            <path id="Trazado_196446" data-name="Trazado 196446" d="M20.344,113.865l12.035-6.994,15.207,8.779-12.035,6.994Z" transform="translate(6.973 36.631)" fill="#f2efeb"/>
            <path id="Trazado_196447" data-name="Trazado 196447" d="M35.582,120.859l-.032,11.451,10.812,38.218L20.253,155.454l.122-43.374Z" transform="translate(6.942 38.417)" fill="#c8c4ba"/>
            <path id="Trazado_196448" data-name="Trazado 196448" d="M35.567,100.723l-15.223-8.79v27.051l15.223,8.79Z" transform="translate(6.973 31.511)" fill="#3c4aae"/>
            <path id="Trazado_196449" data-name="Trazado 196449" d="M43.75,120.342l-12.069,6.968V100.258L43.75,93.29Z" transform="translate(10.859 31.976)" fill="#4a60c6"/>
            <path id="Trazado_196450" data-name="Trazado 196450" d="M35.567,102.5l-15.223-8.79,12.069-6.968,15.223,8.79Z" transform="translate(6.973 29.733)" fill="#597de2"/>
          </g>
        </g>
        <g id="Grupo_142168" data-name="Grupo 142168" transform="translate(36.191 94.334)">
          <g id="Grupo_142167" data-name="Grupo 142167" clip-path="url(#clip-path-11)">
            <rect id="Rectángulo_44474" data-name="Rectángulo 44474" width="76.079" height="73.176" transform="translate(-21.939 12.666) rotate(-30)" fill="url(#linear-gradient-9)"/>
          </g>
        </g>
        <g id="Grupo_142170" data-name="Grupo 142170">
          <g id="Grupo_142169" data-name="Grupo 142169" clip-path="url(#clip-path)">
            <path id="Trazado_196452" data-name="Trazado 196452" d="M73.553,98.293,26.968,71.4l-.06,21.582,46.583,26.9c5.183,2.992,9.4.585,9.422-5.37s-4.177-13.221-9.36-16.212" transform="translate(9.223 24.472)" fill="#3c4aae"/>
            <path id="Trazado_196453" data-name="Trazado 196453" d="M54.57,99.826l-30.6-17.665,11.983-6.919,30.6,17.667Z" transform="translate(8.216 25.79)" fill="#aaa"/>
            <path id="Trazado_196454" data-name="Trazado 196454" d="M36.425,75.658,24.442,82.576v-.567l11.983-6.918Z" transform="translate(8.378 25.738)" fill="#4a60c6"/>
            <path id="Trazado_196455" data-name="Trazado 196455" d="M26.638,83.341l-8.6-4.966,12.417-7.168,8.167,5.215Z" transform="translate(6.182 24.407)" fill="#597de2"/>
            <path id="Trazado_196456" data-name="Trazado 196456" d="M64.7,94.39l2.644-1.537a22.635,22.635,0,0,1,3.638,5.72l-2.645,1.536A22.623,22.623,0,0,0,64.7,94.39" transform="translate(22.176 31.826)" fill="#597de2"/>
            <path id="Trazado_196457" data-name="Trazado 196457" d="M62.128,113.086c0,5.329-3.741,7.489-8.356,4.825s-8.357-9.144-8.357-14.474,3.742-7.489,8.357-4.825,8.356,9.144,8.356,14.474" transform="translate(15.566 33.409)" fill="#838383"/>
            <path id="Trazado_196458" data-name="Trazado 196458" d="M47.2,100.05l13.512-7.8c1.517-.908,3.628-.795,5.963.553,4.615,2.664,8.357,9.144,8.357,14.474,0,2.633-.913,4.492-2.394,5.378l-13.512,7.8c1.48-.886,2.393-2.745,2.393-5.378,0-5.329-3.741-11.81-8.356-14.474-2.335-1.348-4.447-1.461-5.963-.553" transform="translate(16.178 31.418)" fill="#aaa"/>
          </g>
        </g>
        <g id="Grupo_142172" data-name="Grupo 142172" transform="translate(63.688 118.401)">
          <g id="Grupo_142171" data-name="Grupo 142171" clip-path="url(#clip-path-13)">
            <rect id="Rectángulo_44476" data-name="Rectángulo 44476" width="27.373" height="24.18" transform="translate(-6.282 3.627) rotate(-30)" fill="url(#linear-gradient-10)"/>
          </g>
        </g>
        <g id="Grupo_142174" data-name="Grupo 142174" transform="translate(22.399 102.298)">
          <g id="Grupo_142173" data-name="Grupo 142173" clip-path="url(#clip-path-14)">
            <rect id="Rectángulo_44477" data-name="Rectángulo 44477" width="76.078" height="73.175" transform="matrix(0.866, -0.5, 0.5, 0.866, -21.939, 12.666)" fill="url(#linear-gradient-11)"/>
          </g>
        </g>
        <g id="Grupo_142228" data-name="Grupo 142228">
          <g id="Grupo_142227" data-name="Grupo 142227" clip-path="url(#clip-path)">
            <path id="Trazado_196461" data-name="Trazado 196461" d="M63.27,104.224l-46.584-26.9-.021,21.605,46.545,26.873c5.182,2.992,9.4.585,9.421-5.37s-4.177-13.221-9.36-16.212" transform="translate(5.712 26.505)" fill="#3c4aae"/>
            <path id="Trazado_196462" data-name="Trazado 196462" d="M57.544,107.237,31.493,92.2l-.009,4.948,26.06,15.046Z" transform="translate(10.791 31.601)" fill="#2c2623"/>
            <path id="Trazado_196463" data-name="Trazado 196463" d="M54.426,100.321l2.644-1.537a22.636,22.636,0,0,1,3.638,5.72l-2.645,1.536a22.623,22.623,0,0,0-3.636-5.719" transform="translate(18.655 33.859)" fill="#597de2"/>
            <path id="Trazado_196464" data-name="Trazado 196464" d="M52.12,95.62l-2.394-1.383V95.62L52.12,97Z" transform="translate(17.044 32.301)" fill="#3c4aae"/>
            <path id="Trazado_196465" data-name="Trazado 196465" d="M65.8,90.5l-14.3,8.253V97.374L65.8,89.12Z" transform="translate(17.655 30.547)" fill="#4a60c6"/>
            <path id="Trazado_196466" data-name="Trazado 196466" d="M52.12,97.727l-2.394-1.383,14.3-8.253,2.394,1.383Z" transform="translate(17.044 30.194)" fill="#597de2"/>
            <g id="Grupo_142177" data-name="Grupo 142177" transform="translate(69.926 127.481)" opacity="0.6">
              <g id="Grupo_142176" data-name="Grupo 142176">
                <g id="Grupo_142175" data-name="Grupo 142175" clip-path="url(#clip-path-16)">
                  <path id="Trazado_196467" data-name="Trazado 196467" d="M54.606,96.4l-2.53-1.461v1.372l2.53,1.46,1.042-.6V95.8Z" transform="translate(-52.076 -94.94)" fill="#388ca3"/>
                </g>
              </g>
            </g>
            <g id="Grupo_142180" data-name="Grupo 142180" transform="translate(69.926 126.879)" opacity="0.5">
              <g id="Grupo_142179" data-name="Grupo 142179">
                <g id="Grupo_142178" data-name="Grupo 142178" clip-path="url(#clip-path-17)">
                  <path id="Trazado_196468" data-name="Trazado 196468" d="M54.606,96.554l-2.53-1.461,1.042-.6,2.53,1.461Z" transform="translate(-52.076 -94.491)" fill="#95daed"/>
                </g>
              </g>
            </g>
            <g id="Grupo_142183" data-name="Grupo 142183" transform="translate(81.675 120.698)" opacity="0.6">
              <g id="Grupo_142182" data-name="Grupo 142182">
                <g id="Grupo_142181" data-name="Grupo 142181" clip-path="url(#clip-path-16)">
                  <path id="Trazado_196469" data-name="Trazado 196469" d="M63.356,91.348l-2.53-1.461V91.26l2.53,1.46,1.042-.6V90.747Z" transform="translate(-60.826 -89.888)" fill="#388ca3"/>
                </g>
              </g>
            </g>
            <g id="Grupo_142186" data-name="Grupo 142186" transform="translate(81.675 120.096)" opacity="0.5">
              <g id="Grupo_142185" data-name="Grupo 142185">
                <g id="Grupo_142184" data-name="Grupo 142184" clip-path="url(#clip-path-17)">
                  <path id="Trazado_196470" data-name="Trazado 196470" d="M63.356,91.5l-2.53-1.461,1.042-.6L64.4,90.9Z" transform="translate(-60.826 -89.44)" fill="#95daed"/>
                </g>
              </g>
            </g>
            <g id="Grupo_142195" data-name="Grupo 142195" transform="translate(72.103 120.852)" style="isolation: isolate">
              <g id="Grupo_142194" data-name="Grupo 142194">
                <g id="Grupo_142193" data-name="Grupo 142193" clip-path="url(#clip-path-20)">
                  <g id="Grupo_142189" data-name="Grupo 142189" opacity="0.5">
                    <g id="Grupo_142188" data-name="Grupo 142188">
                      <g id="Grupo_142187" data-name="Grupo 142187" clip-path="url(#clip-path-21)">
                        <path id="Trazado_196471" data-name="Trazado 196471" d="M72.073,91.1c-2.132-1.231-4.14-1.434-5.653-.58L53.7,97.9c1.515-.854,3.522-.651,5.654.58l9.3,5.371,12.721-7.378Z" transform="translate(-53.698 -90.002)" fill="#95daed"/>
                      </g>
                    </g>
                  </g>
                  <g id="Grupo_142192" data-name="Grupo 142192" transform="translate(0 6.47)" opacity="0.6">
                    <g id="Grupo_142191" data-name="Grupo 142191">
                      <g id="Grupo_142190" data-name="Grupo 142190" clip-path="url(#clip-path-22)">
                        <path id="Trazado_196472" data-name="Trazado 196472" d="M68.654,102.2l-9.3-5.371c-2.132-1.231-4.14-1.434-5.654-.58l.341.223c1.5-.647,3.352-.393,5.313.739l9.3,5.37L81.373,95.2l0-.381Z" transform="translate(-53.698 -94.821)" fill="#388ca3"/>
                      </g>
                    </g>
                  </g>
                </g>
              </g>
            </g>
            <g id="Grupo_142198" data-name="Grupo 142198" transform="translate(30.301 104.854)" opacity="0.6">
              <g id="Grupo_142197" data-name="Grupo 142197">
                <g id="Grupo_142196" data-name="Grupo 142196" clip-path="url(#clip-path-16)">
                  <path id="Trazado_196473" data-name="Trazado 196473" d="M25.1,79.549l-2.53-1.461V79.46l2.53,1.46,1.042-.6V78.947Z" transform="translate(-22.566 -78.088)" fill="#388ca3"/>
                </g>
              </g>
            </g>
            <g id="Grupo_142201" data-name="Grupo 142201" transform="translate(30.301 104.252)" opacity="0.5">
              <g id="Grupo_142200" data-name="Grupo 142200">
                <g id="Grupo_142199" data-name="Grupo 142199" clip-path="url(#clip-path-17)">
                  <path id="Trazado_196474" data-name="Trazado 196474" d="M25.1,79.7l-2.53-1.461,1.042-.6,2.53,1.461Z" transform="translate(-22.566 -77.64)" fill="#95daed"/>
                </g>
              </g>
            </g>
            <g id="Grupo_142204" data-name="Grupo 142204" transform="translate(42.05 98.07)" opacity="0.6">
              <g id="Grupo_142203" data-name="Grupo 142203">
                <g id="Grupo_142202" data-name="Grupo 142202" clip-path="url(#clip-path-16)">
                  <path id="Trazado_196475" data-name="Trazado 196475" d="M33.846,74.5l-2.53-1.461v1.372l2.53,1.46,1.042-.6V73.9Z" transform="translate(-31.316 -73.036)" fill="#388ca3"/>
                </g>
              </g>
            </g>
            <g id="Grupo_142207" data-name="Grupo 142207" transform="translate(42.05 97.469)" opacity="0.5">
              <g id="Grupo_142206" data-name="Grupo 142206">
                <g id="Grupo_142205" data-name="Grupo 142205" clip-path="url(#clip-path-17)">
                  <path id="Trazado_196476" data-name="Trazado 196476" d="M33.846,74.651l-2.53-1.461,1.042-.6,2.53,1.461Z" transform="translate(-31.316 -72.588)" fill="#95daed"/>
                </g>
              </g>
            </g>
            <g id="Grupo_142216" data-name="Grupo 142216" transform="translate(32.478 98.224)" style="isolation: isolate">
              <g id="Grupo_142215" data-name="Grupo 142215">
                <g id="Grupo_142214" data-name="Grupo 142214" clip-path="url(#clip-path-27)">
                  <g id="Grupo_142210" data-name="Grupo 142210" opacity="0.5">
                    <g id="Grupo_142209" data-name="Grupo 142209">
                      <g id="Grupo_142208" data-name="Grupo 142208" clip-path="url(#clip-path-28)">
                        <path id="Trazado_196477" data-name="Trazado 196477" d="M42.563,74.251c-2.132-1.231-4.14-1.434-5.653-.58L24.187,81.049c1.515-.854,3.522-.651,5.653.58l16.519,9.536L59.08,83.787Z" transform="translate(-24.187 -73.151)" fill="#95daed"/>
                      </g>
                    </g>
                  </g>
                  <g id="Grupo_142213" data-name="Grupo 142213" transform="translate(0 7.378)" opacity="0.6">
                    <g id="Grupo_142212" data-name="Grupo 142212">
                      <g id="Grupo_142211" data-name="Grupo 142211" clip-path="url(#clip-path-29)">
                        <path id="Trazado_196478" data-name="Trazado 196478" d="M46.359,89.282,29.84,79.746c-2.131-1.231-4.138-1.434-5.653-.58l.341.222c1.5-.646,3.352-.393,5.312.739l16.516,9.535,12.721-7.377,0-.38Z" transform="translate(-24.187 -78.646)" fill="#388ca3"/>
                      </g>
                    </g>
                  </g>
                </g>
              </g>
            </g>
            <path id="Trazado_196479" data-name="Trazado 196479" d="M52.279,102.425c-2.271-1.311-4.112-.248-4.112,2.374a9.088,9.088,0,0,0,4.112,7.121c2.271,1.312,4.112.248,4.112-2.374a9.088,9.088,0,0,0-4.112-7.121" transform="translate(16.51 34.915)" fill="#c8c4ba"/>
            <path id="Trazado_196480" data-name="Trazado 196480" d="M22.612,112.78l-15.33-8.851V85.363l15.33,8.851Z" transform="translate(2.496 29.259)" fill="#2c2623"/>
            <path id="Trazado_196481" data-name="Trazado 196481" d="M31.316,105.1,18.7,112.38V93.813l12.618-7.284Z" transform="translate(6.409 29.659)" fill="#3a322e"/>
            <path id="Trazado_196482" data-name="Trazado 196482" d="M22.612,96.073,7.282,87.222,19.9,79.937l15.33,8.851Z" transform="translate(2.496 27.399)" fill="#463c37"/>
            <path id="Trazado_196483" data-name="Trazado 196483" d="M9.577,86.591l10.69-6.171,4.571,2.64L14.149,89.231Z" transform="translate(3.283 27.565)" fill="#597de2"/>
            <path id="Trazado_196484" data-name="Trazado 196484" d="M15.794,90.181l10.69-6.171,4.571,2.64L20.366,92.821Z" transform="translate(5.414 28.795)" fill="#597de2"/>
            <g id="Grupo_142226" data-name="Grupo 142226" transform="translate(0 120.738)" style="isolation: isolate">
              <g id="Grupo_142225" data-name="Grupo 142225">
                <g id="Grupo_142224" data-name="Grupo 142224" clip-path="url(#clip-path-30)">
                  <g id="Grupo_142218" data-name="Grupo 142218" transform="translate(3.041)">
                    <g id="Grupo_142217" data-name="Grupo 142217" clip-path="url(#clip-path-31)">
                      <rect id="Rectángulo_44492" data-name="Rectángulo 44492" width="29.749" height="30.274" transform="translate(-9.824 5.401) rotate(-30)" fill="url(#linear-gradient-12)"/>
                    </g>
                  </g>
                  <path id="Trazado_196486" data-name="Trazado 196486" d="M0,100.271a12.471,12.471,0,0,0,5.763,10.272,7.726,7.726,0,0,0,3.28,1.105,5.888,5.888,0,0,0,3.467-.761c1.172-.681,1.911-2.113,1.948-4.155A14.678,14.678,0,0,0,7.914,95.127c-1.9-1.135-3.629-1.257-4.874-.534A6.548,6.548,0,0,0,0,100.271" transform="translate(0 -88.47)" fill="#3c4aae"/>
                  <g id="Grupo_142223" data-name="Grupo 142223" transform="translate(2.73 0.153)" opacity="0.3" style="mix-blend-mode: screen;isolation: isolate">
                    <g id="Grupo_142222" data-name="Grupo 142222">
                      <g id="Grupo_142221" data-name="Grupo 142221" clip-path="url(#clip-path-32)">
                        <g id="Grupo_142220" data-name="Grupo 142220" transform="translate(0 0.001)">
                          <g id="Grupo_142219" data-name="Grupo 142219" clip-path="url(#clip-path-33)">
                            <rect id="Rectángulo_44493" data-name="Rectángulo 44493" width="23.566" height="23.208" transform="matrix(0.76, -0.65, 0.65, 0.76, -7.387, 6.323)" fill="url(#linear-gradient-13)"/>
                          </g>
                        </g>
                      </g>
                    </g>
                  </g>
                  <path id="Trazado_196488" data-name="Trazado 196488" d="M4.928,98.434a8.823,8.823,0,0,1,3.934,6.977c-.046,2.527-1.881,3.5-4.1,2.177a8.825,8.825,0,0,1-3.934-6.977c.046-2.528,1.881-3.5,4.1-2.177" transform="translate(0.283 -87.202)" fill="#4453bb"/>
                  <path id="Trazado_196489" data-name="Trazado 196489" d="M4.443,106.955a6.463,6.463,0,0,1-1.015-.854l2.648,1.528a3.288,3.288,0,0,1-1.016-.32Zm-.27-3.863a1.542,1.542,0,0,1-.115-.334L1.1,101.049c0,.093.009.187.019.279ZM6.85,107.6a1.554,1.554,0,0,0,.3-.1l-4.8-2.77c.1.153.2.3.3.446Zm-2.792-5.317a.438.438,0,0,1,.117-.2l-3.055-1.764a2.511,2.511,0,0,0-.021.255Zm3.5,4.988a2.107,2.107,0,0,0,.183-.168l-5.974-3.448c.058.128.118.254.18.376Zm.44-.487c.042-.066.077-.137.114-.205L1.4,102.7c.038.113.071.223.111.337Zm.27-.584c.024-.077.04-.157.062-.236l-7.145-4.125c.02.1.038.2.06.306Zm-2.8-2.63a.452.452,0,0,1-.117.2l3.055,1.764a2.538,2.538,0,0,0,.021-.256Zm-.114-.807a1.593,1.593,0,0,1,.115.334l2.959,1.709c0-.093-.009-.187-.019-.279Zm-4.1-3.11c-.026.077-.042.157-.063.235l7.145,4.126c-.02-.1-.038-.2-.06-.307Zm.269-.585c-.042.067-.077.137-.114.207l6.714,3.875c-.038-.111-.071-.222-.111-.336Zm.44-.486a2.109,2.109,0,0,0-.183.166l5.974,3.45c-.058-.128-.118-.254-.18-.376Zm.71-.33a1.557,1.557,0,0,0-.3.1l4.8,2.769c-.1-.153-.2-.3-.3-.444Zm1.791.294a3.325,3.325,0,0,0-1.016-.32L6.1,99.757A6.391,6.391,0,0,0,5.083,98.9Z" transform="translate(0.376 -87.069)" fill="#2c3c8e"/>
                </g>
              </g>
            </g>
            <path id="Trazado_196490" data-name="Trazado 196490" d="M28.129,102.364l-8.144,4.7V97.258l8.144-4.7Z" transform="translate(6.85 31.724)" fill="#4a60c6"/>
            <path id="Trazado_196491" data-name="Trazado 196491" d="M23.352,96.575a3.641,3.641,0,0,0-1.641,2.861c0,1.049.74,1.488,1.652.961a3.679,3.679,0,0,0,1.658-2.872c0-1.049-.757-1.477-1.669-.951" transform="translate(7.442 33.025)" fill="#3c4aae"/>
            <path id="Trazado_196492" data-name="Trazado 196492" d="M22.314,98.206a3.371,3.371,0,0,1,.54-.85,2.453,2.453,0,0,1,.6-.506.989.989,0,0,1,1-.094l.834.485-1.973,3.417-.834-.485a.991.991,0,0,1-.411-.906,2.652,2.652,0,0,1,.244-1.061" transform="translate(7.565 33.131)" fill="#dda414"/>
            <path id="Trazado_196493" data-name="Trazado 196493" d="M24.076,97.211a3.074,3.074,0,0,0-1.386,2.417c0,.886.624,1.257,1.4.812a3.1,3.1,0,0,0,1.4-2.426c0-.885-.639-1.247-1.41-.8" transform="translate(7.777 33.255)" fill="#ffcf48"/>
            <path id="Trazado_196494" data-name="Trazado 196494" d="M158.43,65.327c4.083,1.958,3.706,27.43-.263,27.8-2.2.2-20.656-1.092-20.844-1.339-.606-.795-.627-3.944.408-4.669l16.927-1.578s-2.071-15.357-2.021-17.634c.021-1.037,1.738-4.522,5.793-2.578" transform="translate(46.925 22.193)" fill="#fbbd9e"/>
            <path id="Trazado_196495" data-name="Trazado 196495" d="M134.269,110.545c-1.223,7.362,26.088,6.318,24.865-2.057-.273-4.036-1.5-8.434-1.211-13.276.926-15.458,10.382-30.957-1.313-30.87a4.167,4.167,0,0,0-.5,0,18.837,18.837,0,0,0-4.686.712l-8.054,2.25a33,33,0,0,0-8.293,3.564c-2.758,1.681-2.894,2.306-3.416,4.351-.544,2.127,5.6,13.313,2.613,35.328" transform="translate(45.115 22.052)" fill="#fff"/>
            <path id="Trazado_196496" data-name="Trazado 196496" d="M158.457,134.8l-14.966-2.095c-1.48.521-1.063,4.056-.556,5.531.2.585,8.484,2.033,10.194,2.4a7.149,7.149,0,0,0,4.7-.548c.258-.144.78-.463.76-.831,0,0-.121-3.977-.133-4.458" transform="translate(48.832 45.486)" fill="#191619"/>
            <path id="Trazado_196497" data-name="Trazado 196497" d="M155.907,139.032a9.972,9.972,0,0,1-3.728-.02c-1.578-.289-7.066-1.615-8.68-2.187l.551,1.707a77.377,77.377,0,0,0,9.92,1.978c3.143.058,3.983-.843,4.218-1.243a.675.675,0,0,0,.083-.383l-.046-1.194s0,.886-2.319,1.343" transform="translate(49.186 46.898)" fill="#e58d2e"/>
            <path id="Trazado_196498" data-name="Trazado 196498" d="M148.982,152.592c0-.191.007-.38.011-.571l.121-6.711a28.168,28.168,0,0,0-4.659-.893l-5.076.859c-1.654,2.547-12.262,1.168-12.8,5.133-.829,3.491,9.667,3.7,11.271,3.4,1.179-.226,3.119-.458,4.034-.72,0,0,7.1-.254,7.1-.494" transform="translate(43.369 49.5)" fill="#191619"/>
            <path id="Trazado_196499" data-name="Trazado 196499" d="M148.929,150.476c-.42.4-5.431.816-6.632.922a77.035,77.035,0,0,1-11.661.239,5.331,5.331,0,0,1-3.1-1.026,1.945,1.945,0,0,1-.88-1.838,2,2,0,0,0,.042,1.793,3.642,3.642,0,0,0,2.541,2.075c2.9.654,10.087.175,11.716.032,1.6-.14,7.427-.5,7.847-.9A.919.919,0,0,0,149,151.1c.005-.262.009-.525.013-.787a.474.474,0,0,1-.086.165" transform="translate(43.349 50.994)" fill="#e58d2e"/>
            <path id="Trazado_196500" data-name="Trazado 196500" d="M159.714,122.732a22.3,22.3,0,0,1-.747-5.017c.4-6.549,1.077-19.529-1.391-27.776-.853,4.827-7.176,5.936-11.873,6.295a26.858,26.858,0,0,1-11.166-1.37s-1.014,10.041-1.152,12.578c0,0-1.229,12.372-.368,19.322.808,6.526,1.892,9.8,2.178,13.959.395,5.758.388,16.353.446,23.94.03,4.011,11.4,3.856,11.618.56,1.532-23.355.192-20.183-.819-34.721a27.031,27.031,0,0,1,.434-7.223c.307-1.72.623-3.444.92-5.172.089,1.474.165,2.714.214,3.564.254,4.533,3.314,22.215,4.032,27.929.388,3.427,10.423,2.209,10.353.577-.79-18.644-1.26-22.236-2.677-27.446" transform="translate(45.488 30.828)" fill="#a0e4ae"/>
            <path id="Trazado_196501" data-name="Trazado 196501" d="M137.152,78.664c.457,5.558,1.155,11.789,1.155,11.789l-7.1,1.1-5.152.8c-2.032.316-3.9-.218-5.961-.256a3.885,3.885,0,0,0-1.116.1,3.342,3.342,0,0,0-1.507,1.054A11.44,11.44,0,0,0,115.3,97.1a2.208,2.208,0,0,0-.059,1.865,1.9,1.9,0,0,0,1.56.729,4.942,4.942,0,0,0,2.829-.712c.446-.273.849-.618,1.317-.849,1.486-.733,3.679-.462,5.34-.577q2.878-.2,5.755-.419c3.859-.29,7.729-.563,11.575-1.011a2.8,2.8,0,0,0,2.467-2.512,72.158,72.158,0,0,0-.141-16.807c-2.926.675-5.858,1.3-8.794,1.856" transform="translate(39.437 26.327)" fill="#fbbd9e"/>
            <path id="Trazado_196502" data-name="Trazado 196502" d="M143.1,89.816c.243-6.4-2.072-14.353-5.317-18.231-3.531-4.22-5.97.189-6.228,1.194a73.7,73.7,0,0,0-.822,15.98c-.516,2.867,11.781,3.717,12.367,1.057" transform="translate(44.754 23.921)" fill="#fff"/>
            <path id="Trazado_196503" data-name="Trazado 196503" d="M159.313,83.971c-.391-6.393-1.022-15.3-3.848-18.53-3.374-2.886-8.11,1.082-8.267,2.108a73.69,73.69,0,0,0,.761,15.983c-.231,2.9,11.035,3.143,11.354.439" transform="translate(50.404 22.076)" fill="#fff"/>
            <path id="Trazado_196504" data-name="Trazado 196504" d="M132.152,62.873c1.253-1.362,1.109-2.276,1.327-3.527a28.656,28.656,0,0,1,1.387-4.1c.422-1.257.32-2.553,1.535-3.376a5.2,5.2,0,0,1,2.011-.667l1.08-.2a7.52,7.52,0,0,1,4.815.4c1.8.573,3.74,1.242,4.806,2.8a8.184,8.184,0,0,1,.889,1.95,9.99,9.99,0,0,1,.784,4.365c-.211,1.838-1.371,3.464-1.59,5.3a5.388,5.388,0,0,0,1.493,4.352A2.794,2.794,0,0,1,149,72.536c-1.8,1.175-4.43,1.058-6.576,1.145a2.257,2.257,0,0,1-.767-.056c-1.163-.364-1.183-2.293-2.343-2.667a2.184,2.184,0,0,0-.815-.054,10.5,10.5,0,0,1-2.6-.008,2.9,2.9,0,0,1-2.105-1.39,4.656,4.656,0,0,1-.352-1.8,22.3,22.3,0,0,0-.321-2.479,1.388,1.388,0,0,0-.162-.5c-.308-.489-1.174-.6-1.184-1.178a1.084,1.084,0,0,1,.385-.686" transform="translate(45.164 17.407)" fill="#fbbd9e"/>
            <path id="Trazado_196505" data-name="Trazado 196505" d="M141.166,64.324c4.247.342.544,7.485,7.052,4.418.741-.349.776-.548.866-1.23.353-2.679,4.1-6.581,1.3-12.649-1.881-4.073-7.719-5.65-11.669-4.653-1.474.373-3.482,1.027-4.244,2.464a5.88,5.88,0,0,0-.453,2.708,4.694,4.694,0,0,0,1.848,2.3c.994.679,1.187.733,1.335,2.369a13.938,13.938,0,0,0,.964,3.975c.587,1.445,1.1.145,3,.3" transform="translate(45.927 17.11)" fill="#513120"/>
            <path id="Trazado_196506" data-name="Trazado 196506" d="M143.717,61.647c-2.536,0-10.322-1.34-10.66-4.822,0,0,1.362-11.2,13.062-8.513,7.533,2.13,5.722,10.664,5.722,10.664-.277,1.311-3.006,2.671-8.124,2.671" transform="translate(45.607 16.417)" fill="#a0e4ae"/>
            <path id="Trazado_196507" data-name="Trazado 196507" d="M134.628,53.3s-4.779.38-4.951,1.066a6.507,6.507,0,0,0,.306,2.962c.246.839,3.217,1.305,5.084,1.65,1.414.26,5.448.312,7.4.577-1.692-.411-8.067-3.436-7.842-6.256" transform="translate(44.421 18.269)" fill="#a3ad18"/>
            <path id="Trazado_196508" data-name="Trazado 196508" d="M139.919,48.975c-.032.322.5.64,1.2.709s1.282-.137,1.315-.461-.506-.639-1.2-.709-1.284.138-1.315.461" transform="translate(47.958 16.624)" fill="#a3ad18"/>
            <path id="Trazado_196509" data-name="Trazado 196509" d="M151.422,91.4a128.62,128.62,0,0,0,5.16-24.1,4.768,4.768,0,0,0-.717-2.951c-.1,0-.191-.011-.3-.011a4.791,4.791,0,0,0-.506,0,18.046,18.046,0,0,0-2.42.22,2.457,2.457,0,0,1,1.645,2.538A123.778,123.778,0,0,1,149.9,88.546L141.527,72.8a8.4,8.4,0,0,0-3.742-3.871,31.393,31.393,0,0,0-3.129,1.59,4.426,4.426,0,0,1,2.028.422,6.114,6.114,0,0,1,2.792,2.906l9.458,17.784c-2.186,6.567-4.962,12.451-8.212,15.176l1.477,1.764c3.275-2.745,6.018-8.114,8.206-14.177l4.633,8.71,2.033-1.081Z" transform="translate(46.155 22.052)" fill="#a0e4ae"/>
          </g>
        </g>
      </g>
    </g>
  </g>
</svg>
