<svg xmlns="http://www.w3.org/2000/svg" xmlns:xlink="http://www.w3.org/1999/xlink" width="198" height="198" viewBox="0 0 198 198">
  <defs>
    <filter id="Elipse_4973" x="0" y="0" width="198" height="198" filterUnits="userSpaceOnUse">
      <feOffset dy="3" input="SourceAlpha"/>
      <feGaussianBlur stdDeviation="3" result="blur"/>
      <feFlood flood-opacity="0.161"/>
      <feComposite operator="in" in2="blur"/>
      <feComposite in="SourceGraphic"/>
    </filter>
  </defs>
  <g id="Grupo_179253" data-name="Grupo 179253" transform="translate(-701 -1745)">
    <g transform="matrix(1, 0, 0, 1, 701, 1745)" filter="url(#Elipse_4973)">
      <circle id="Elipse_4973-2" data-name="Elipse 4973" cx="90" cy="90" r="90" transform="translate(9 6)" fill="#48a5f0"/>
    </g>
    <g id="dibujo-tecnico" transform="translate(752 1793)">
      <path id="Trazado_268213" data-name="Trazado 268213" d="M86.846,13.713a3.431,3.431,0,0,0-3.775,3.311V29.731H51.812l-1.385-2.9A8.932,8.932,0,0,0,47.595,13.75l.1-9.343c.057-5.394-8.253-5.435-8.31-.088l-.1,9.333a8.948,8.948,0,0,0-3.108,13.031L34.64,29.731H3.311A3.315,3.315,0,0,0,0,33.042V93.78a3.315,3.315,0,0,0,3.311,3.311H87.436a9.457,9.457,0,0,0,9.445-9.363c0-.014,0-.028,0-.042V23.751A10.049,10.049,0,0,0,86.846,13.713Zm-.936,3.311c0-.47.592-.548.936-.473a7.207,7.207,0,0,1,7.2,7.2V80.939a9.42,9.42,0,0,0-6.612-2.7c-.369.057-1.523.161-1.523-.473ZM63.15,60.008l-1.483,4.2-16.3-34.076a8.81,8.81,0,0,0,2.894-1.253ZM38.3,28.776a8.808,8.808,0,0,0,2.866,1.315L24.149,63.814l-1.393-4.233Zm9.9,13.852-10.123-.107,5.17-10.246ZM42.222,4.349a1.317,1.317,0,0,1,2.633.028l-.089,8.4a8.99,8.99,0,0,0-2.633-.032ZM39.151,17.221a6.083,6.083,0,0,1,4.269-1.716,6.012,6.012,0,0,1-.062,12.024h-.065a6.012,6.012,0,0,1-4.143-10.307ZM87.436,94.253H3.311a.474.474,0,0,1-.473-.473V33.042a.474.474,0,0,1,.473-.473h29.9l-4.969,9.848-4.794-.051a1.42,1.42,0,0,0-.03,2.838l3.4.036-6.68,13.238a2.349,2.349,0,0,0-.135,1.8l1.813,5.506a2.384,2.384,0,0,0,4.357.326l10.481-20.77,12.913.136L59.6,66.465a2.388,2.388,0,0,0,4.364-.234l1.928-5.464a2.35,2.35,0,0,0-.1-1.808L59.4,45.585l3.4.036a1.42,1.42,0,0,0,.03-2.838l-4.794-.051L53.17,32.569h29.9V77.762c0,2.49,2.247,3.39,4.362,3.311a6.59,6.59,0,1,1,0,13.179Z" transform="translate(0 -0.335)" fill="#12263f"/>
      <path id="Trazado_268214" data-name="Trazado 268214" d="M113.8,373.584H51.043a2.368,2.368,0,0,0-2.365,2.365v12.867a2.368,2.368,0,0,0,2.365,2.365H113.8a2.368,2.368,0,0,0,2.365-2.365V375.949a2.368,2.368,0,0,0-2.366-2.365Zm-.473,14.76H51.516V376.422h3.657v2.541a1.42,1.42,0,0,0,2.838,0v-2.541h3.619v4.433a1.42,1.42,0,0,0,2.838,0v-4.433h3.619v2.541a1.42,1.42,0,0,0,2.838,0v-2.541h3.619v4.433a1.42,1.42,0,0,0,2.838,0v-4.433H81v2.541a1.42,1.42,0,0,0,2.838,0v-2.541h3.619v4.433a1.42,1.42,0,0,0,2.838,0v-4.433h3.619v2.541a1.42,1.42,0,0,0,2.838,0v-2.541h3.619v4.433a1.42,1.42,0,0,0,2.838,0v-4.433h3.619v2.541a1.42,1.42,0,0,0,2.838,0v-2.541h3.657Z" transform="translate(-39.467 -302.956)" fill="#12263f"/>
    </g>
  </g>
</svg>
