<svg xmlns="http://www.w3.org/2000/svg" width="190" height="100" viewBox="0 0 190 100">
  <g id="Grupo_179304" data-name="Grupo 179304" transform="translate(-180 -1510)">
    <g id="Grupo_179245" data-name="Grupo 179245" transform="translate(0 28)">
      <path id="Trazado_113723" data-name="Trazado 113723" d="M-72.06,10.548c-4.477.05-6.13,3.173-2.337,4.452,6.3,2.121,12.513,4.55,18.547,7.263A177.319,177.319,0,0,1-32.831,34.648c5.278,3.394,15.486,2.36,18.155-1.823,2.056-3.221,2.858-6.957-.234-10.426-1.934-2.169-5.253-3.9-9.238-5C-45.161,11.608-61.544,10.43-72.06,10.548Z" transform="translate(382.855 1471.46)" fill="#a2e6b0" opacity="0.2"/>
      <path id="blob" d="M14.578,76.777C1.92,55.917,14.714,27.111,42.343,16.268,69.976,5.341,112.305,12.46,146.059,27.277s58.933,37.249,50.495,54.548c-8.44,17.383-50.5,29.551-90.783,29.137C65.62,110.548,27.239,97.636,14.578,76.777Z" transform="translate(170.321 1471.027)" fill="#a2e6b0" opacity="0.2"/>
    </g>
    <g id="ventaja" transform="translate(212.631 1510)">
      <g id="Grupo_179227" data-name="Grupo 179227" transform="translate(17.323 1.953)">
        <g id="Grupo_179218" data-name="Grupo 179218" transform="translate(45.045)">
          <path id="Trazado_268233" data-name="Trazado 268233" d="M301.045,66.876V100.4a5.7,5.7,0,0,1-5.7,5.7H261.7a5.7,5.7,0,0,1-5.7-5.7V15.7a5.7,5.7,0,0,1,5.7-5.7h33.65a5.7,5.7,0,0,1,5.7,5.7v33.52" transform="translate(-256 -10)" fill="#faf7f5"/>
        </g>
        <g id="Grupo_179220" data-name="Grupo 179220">
          <g id="Grupo_179219" data-name="Grupo 179219">
            <path id="Trazado_268234" data-name="Trazado 268234" d="M64.718,106.094H31.067a5.7,5.7,0,0,1-5.7-5.7V15.7a5.7,5.7,0,0,1,5.7-5.7h33.65a5.7,5.7,0,0,1,5.7,5.7v84.7A5.7,5.7,0,0,1,64.718,106.094Z" transform="translate(-25.37 -10)" fill="#faf7f5"/>
          </g>
        </g>
        <g id="Grupo_179221" data-name="Grupo 179221" transform="translate(10.277 11.62)">
          <circle id="Elipse_4977" data-name="Elipse 4977" cx="12.246" cy="12.246" r="12.246" transform="translate(0)" fill="#a2e6b0"/>
        </g>
        <g id="Grupo_179222" data-name="Grupo 179222" transform="translate(55.322 11.62)">
          <circle id="Elipse_4978" data-name="Elipse 4978" cx="12.246" cy="12.246" r="12.246" fill="#48a5f0"/>
        </g>
        <g id="Grupo_179224" data-name="Grupo 179224" transform="translate(10.277 76.124)">
          <g id="Grupo_179223" data-name="Grupo 179223" transform="translate(0)">
            <path id="Trazado_268235" data-name="Trazado 268235" d="M77.987,399.755H88.7v10.773H77.987Z" transform="translate(-77.987 -399.755)" fill="#a2e6b0"/>
          </g>
        </g>
        <g id="Grupo_179226" data-name="Grupo 179226" transform="translate(55.322 76.124)">
          <g id="Grupo_179225" data-name="Grupo 179225">
            <path id="Trazado_268236" data-name="Trazado 268236" d="M308.617,399.755h10.716v10.773H308.617Z" transform="translate(-308.617 -399.755)" fill="#48a5f0"/>
          </g>
        </g>
      </g>
      <g id="Grupo_179244" data-name="Grupo 179244" transform="translate(15.37)">
        <g id="Grupo_179228" data-name="Grupo 179228" transform="translate(63.378 23.865)">
          <path id="Trazado_268237" data-name="Trazado 268237" d="M350.2,126.1h-8.378a1.953,1.953,0,1,1,0-3.906H350.2a1.953,1.953,0,1,1,0,3.906Z" transform="translate(-339.868 -122.191)"/>
        </g>
        <g id="Grupo_179229" data-name="Grupo 179229" transform="translate(55.322 44.86)">
          <path id="Trazado_268238" data-name="Trazado 268238" d="M325.062,233.587H300.57a1.953,1.953,0,1,1,0-3.906h24.491a1.953,1.953,0,0,1,0,3.906Z" transform="translate(-298.617 -229.681)"/>
        </g>
        <g id="Grupo_179230" data-name="Grupo 179230" transform="translate(55.322 55.369)">
          <path id="Trazado_268239" data-name="Trazado 268239" d="M325.062,287.4H300.57a1.953,1.953,0,1,1,0-3.906h24.491a1.953,1.953,0,0,1,0,3.906Z" transform="translate(-298.617 -283.489)"/>
        </g>
        <g id="Grupo_179231" data-name="Grupo 179231" transform="translate(55.322 65.879)">
          <path id="Trazado_268240" data-name="Trazado 268240" d="M325.062,341.2H300.57a1.953,1.953,0,0,1,0-3.906h24.491a1.953,1.953,0,0,1,0,3.906Z" transform="translate(-298.617 -337.298)"/>
        </g>
        <g id="Grupo_179233" data-name="Grupo 179233" transform="translate(73.53 76.388)">
          <g id="Grupo_179232" data-name="Grupo 179232">
            <path id="Trazado_268241" data-name="Trazado 268241" d="M400.079,395.012H393.8a1.953,1.953,0,1,1,0-3.906h6.283a1.953,1.953,0,1,1,0,3.906Z" transform="translate(-391.843 -391.106)"/>
          </g>
        </g>
        <g id="Grupo_179235" data-name="Grupo 179235" transform="translate(73.53 86.897)">
          <g id="Grupo_179234" data-name="Grupo 179234">
            <path id="Trazado_268242" data-name="Trazado 268242" d="M400.079,448.821H393.8a1.953,1.953,0,1,1,0-3.906h6.283a1.953,1.953,0,1,1,0,3.906Z" transform="translate(-391.843 -444.915)"/>
          </g>
        </g>
        <path id="Trazado_268243" data-name="Trazado 268243" d="M311.286,404.435H300.57a1.953,1.953,0,0,1-1.953-1.953V391.708a1.953,1.953,0,0,1,1.953-1.953h10.716a1.953,1.953,0,0,1,1.953,1.953v10.773a1.953,1.953,0,0,1-1.953,1.953Zm-8.763-3.906h6.809v-6.867h-6.809Z" transform="translate(-243.295 -313.631)"/>
        <path id="Trazado_268244" data-name="Trazado 268244" d="M80.656,404.435H69.94a1.953,1.953,0,0,1-1.953-1.953V391.708a1.953,1.953,0,0,1,1.953-1.953H80.656a1.953,1.953,0,0,1,1.953,1.953v10.773A1.953,1.953,0,0,1,80.656,404.435Zm-8.762-3.906H78.7v-6.867H71.893Z" transform="translate(-57.71 -313.631)"/>
        <g id="Grupo_179236" data-name="Grupo 179236" transform="translate(10.277 44.86)">
          <path id="Trazado_268245" data-name="Trazado 268245" d="M94.432,233.587H69.94a1.953,1.953,0,1,1,0-3.906H94.432a1.953,1.953,0,1,1,0,3.906Z" transform="translate(-67.987 -229.681)"/>
        </g>
        <g id="Grupo_179237" data-name="Grupo 179237" transform="translate(10.277 55.369)">
          <path id="Trazado_268246" data-name="Trazado 268246" d="M94.432,287.4H69.94a1.953,1.953,0,1,1,0-3.906H94.432a1.953,1.953,0,1,1,0,3.906Z" transform="translate(-67.987 -283.489)"/>
        </g>
        <g id="Grupo_179238" data-name="Grupo 179238" transform="translate(10.277 65.879)">
          <path id="Trazado_268247" data-name="Trazado 268247" d="M94.432,341.2H69.94a1.953,1.953,0,0,1,0-3.906H94.432a1.953,1.953,0,1,1,0,3.906Z" transform="translate(-67.987 -337.298)"/>
        </g>
        <g id="Grupo_179240" data-name="Grupo 179240" transform="translate(28.485 76.388)">
          <g id="Grupo_179239" data-name="Grupo 179239">
            <path id="Trazado_268248" data-name="Trazado 268248" d="M169.449,395.012h-6.283a1.953,1.953,0,0,1,0-3.906h6.283a1.953,1.953,0,0,1,0,3.906Z" transform="translate(-161.213 -391.106)"/>
          </g>
        </g>
        <g id="Grupo_179242" data-name="Grupo 179242" transform="translate(28.485 86.897)">
          <g id="Grupo_179241" data-name="Grupo 179241">
            <path id="Trazado_268249" data-name="Trazado 268249" d="M169.449,448.821h-6.283a1.953,1.953,0,1,1,0-3.906h6.283a1.953,1.953,0,1,1,0,3.906Z" transform="translate(-161.213 -444.915)"/>
          </g>
        </g>
        <path id="Trazado_268250" data-name="Trazado 268250" d="M312.816,87.892a14.2,14.2,0,1,1,14.2-14.2A14.215,14.215,0,0,1,312.816,87.892Zm0-24.491a10.293,10.293,0,1,0,10.293,10.293A10.3,10.3,0,0,0,312.816,63.4Z" transform="translate(-243.295 -47.874)"/>
        <path id="Trazado_268251" data-name="Trazado 268251" d="M119.569,104.933h-2.236V102.7a1.953,1.953,0,1,0-3.906,0v2.236h-2.236a1.953,1.953,0,1,0,0,3.906h2.236v2.236a1.953,1.953,0,0,0,3.906,0v-2.236h2.236a1.953,1.953,0,1,0,0-3.906Z" transform="translate(-90.904 -81.067)"/>
        <path id="Trazado_268252" data-name="Trazado 268252" d="M82.186,87.892a14.2,14.2,0,1,1,14.2-14.2A14.215,14.215,0,0,1,82.186,87.892Zm0-24.491A10.293,10.293,0,1,0,92.478,73.693,10.3,10.3,0,0,0,82.186,63.4Z" transform="translate(-57.71 -47.874)"/>
        <path id="Trazado_268253" data-name="Trazado 268253" d="M107.413,43.124a1.953,1.953,0,0,0,1.953-1.953V7.65A7.659,7.659,0,0,0,101.716,0H68.065a7.633,7.633,0,0,0-5.7,2.55A7.633,7.633,0,0,0,56.671,0H23.02a7.659,7.659,0,0,0-7.65,7.65v84.7A7.659,7.659,0,0,0,23.02,100h33.65a7.633,7.633,0,0,0,5.7-2.55,7.633,7.633,0,0,0,5.7,2.55h33.65a7.659,7.659,0,0,0,7.65-7.65V58.829a1.953,1.953,0,1,0-3.906,0V92.35a3.748,3.748,0,0,1-3.744,3.744H68.065a3.748,3.748,0,0,1-3.744-3.744V7.65a3.748,3.748,0,0,1,3.744-3.744h33.65A3.748,3.748,0,0,1,105.46,7.65v33.52a1.953,1.953,0,0,0,1.953,1.953ZM56.671,96.094H23.02a3.748,3.748,0,0,1-3.744-3.744V7.65A3.748,3.748,0,0,1,23.02,3.906h33.65A3.748,3.748,0,0,1,60.415,7.65v84.7A3.748,3.748,0,0,1,56.671,96.094Z" transform="translate(-15.37)"/>
        <g id="Grupo_179243" data-name="Grupo 179243" transform="translate(90.093 48.015)">
          <path id="Trazado_268254" data-name="Trazado 268254" d="M478.6,249.741a1.954,1.954,0,1,1,1.914-1.572A1.972,1.972,0,0,1,478.6,249.741Z" transform="translate(-476.645 -245.839)"/>
        </g>
      </g>
    </g>
  </g>
</svg>
